  0
SECTION
  2
HEADER
  9
$ACADVER
  1
AC1024
  9
$ACADMAINTVER
 70
6
  9
$DWGCODEPAGE
  3
ANSI_1252
  9
$LASTSAVEDBY
  1
ezdxf
  9
$INSBASE
 10
0.0
 20
0.0
 30
0.0
  9
$EXTMIN
 10
1e+20
 20
1e+20
 30
1e+20
  9
$EXTMAX
 10
-1e+20
 20
-1e+20
 30
-1e+20
  9
$LIMMIN
 10
0.0
 20
0.0
  9
$LIMMAX
 10
420.0
 20
297.0
  9
$ORTHOMODE
 70
0
  9
$REGENMODE
 70
1
  9
$FILLMODE
 70
1
  9
$QTEXTMODE
 70
0
  9
$MIRRTEXT
 70
1
  9
$LTSCALE
 40
1.0
  9
$ATTMODE
 70
1
  9
$TEXTSIZE
 40
2.5
  9
$TRACEWID
 40
1.0
  9
$TEXTSTYLE
  7
OpenSans
  9
$CLAYER
  8
0
  9
$CELTYPE
  6
ByLayer
  9
$CECOLOR
 62
256
  9
$CELTSCALE
 40
1.0
  9
$DISPSILH
 70
0
  9
$DIMSCALE
 40
1.0
  9
$DIMASZ
 40
0.175
  9
$DIMEXO
 40
0.125
  9
$DIMDLI
 40
3.75
  9
$DIMRND
 40
0.0
  9
$DIMDLE
 40
0.0
  9
$DIMEXE
 40
0.375
  9
$DIMTP
 40
0.0
  9
$DIMTM
 40
0.0
  9
$DIMTXT
 40
0.25
  9
$DIMCEN
 40
2.5
  9
$DIMTSZ
 40
0.0
  9
$DIMTOL
 70
0
  9
$DIMLIM
 70
0
  9
$DIMTIH
 70
0
  9
$DIMTOH
 70
0
  9
$DIMSE1
 70
0
  9
$DIMSE2
 70
0
  9
$DIMTAD
 70
1
  9
$DIMZIN
 70
12
  9
$DIMBLK
  1
ARCHTICK
  9
$DIMASO
 70
1
  9
$DIMSHO
 70
1
  9
$DIMPOST
  1

  9
$DIMAPOST
  1

  9
$DIMALT
 70
0
  9
$DIMALTD
 70
3
  9
$DIMALTF
 40
0.03937007874
  9
$DIMLFAC
 40
100.0
  9
$DIMTOFL
 70
1
  9
$DIMTVP
 40
0.0
  9
$DIMTIX
 70
0
  9
$DIMSOXD
 70
0
  9
$DIMSAH
 70
0
  9
$DIMBLK1
  1

  9
$DIMBLK2
  1

  9
$DIMSTYLE
  2
EZDXF
  9
$DIMCLRD
 70
0
  9
$DIMCLRE
 70
0
  9
$DIMCLRT
 70
0
  9
$DIMTFAC
 40
0.5
  9
$DIMGAP
 40
0.1
  9
$DIMJUST
 70
0
  9
$DIMSD1
 70
0
  9
$DIMSD2
 70
0
  9
$DIMTOLJ
 70
0
  9
$DIMTZIN
 70
8
  9
$DIMALTZ
 70
0
  9
$DIMALTTZ
 70
0
  9
$DIMUPT
 70
1
  9
$DIMDEC
 70
2
  9
$DIMTDEC
 70
2
  9
$DIMALTU
 70
2
  9
$DIMALTTD
 70
3
  9
$DIMTXSTY
  7
OpenSansCondensed-Light
  9
$DIMAUNIT
 70
0
  9
$DIMADEC
 70
2
  9
$DIMALTRND
 40
0.0
  9
$DIMAZIN
 70
3
  9
$DIMDSEP
 70
46
  9
$DIMATFIT
 70
3
  9
$DIMFRAC
 70
0
  9
$DIMLDRBLK
  1

  9
$DIMLUNIT
 70
2
  9
$DIMLWD
 70
-2
  9
$DIMLWE
 70
-2
  9
$DIMTMOVE
 70
2
  9
$DIMFXL
 40
1.0
  9
$DIMFXLON
 70
0
  9
$DIMJOGANG
 40
0.785398163397
  9
$DIMTFILL
 70
0
  9
$DIMTFILLCLR
 70
0
  9
$DIMARCSYM
 70
0
  9
$DIMLTYPE
  6

  9
$DIMLTEX1
  6

  9
$DIMLTEX2
  6

  9
$DIMTXTDIRECTION
 70
0
  9
$LUNITS
 70
2
  9
$LUPREC
 70
4
  9
$SKETCHINC
 40
1.0
  9
$FILLETRAD
 40
10.0
  9
$AUNITS
 70
0
  9
$AUPREC
 70
2
  9
$MENU
  1
.
  9
$ELEVATION
 40
0.0
  9
$PELEVATION
 40
0.0
  9
$THICKNESS
 40
0.0
  9
$LIMCHECK
 70
0
  9
$CHAMFERA
 40
0.0
  9
$CHAMFERB
 40
0.0
  9
$CHAMFERC
 40
0.0
  9
$CHAMFERD
 40
0.0
  9
$SKPOLY
 70
0
  9
$TDCREATE
 40
2461204.0786458333
  9
$TDUCREATE
 40
2458532.153996898
  9
$TDUPDATE
 40
2461204.0786458333
  9
$TDUUPDATE
 40
2458532.1544311
  9
$TDINDWG
 40
0.0
  9
$TDUSRTIMER
 40
0.0
  9
$USRTIMER
 70
1
  9
$ANGBASE
 50
0.0
  9
$ANGDIR
 70
0
  9
$PDMODE
 70
0
  9
$PDSIZE
 40
0.0
  9
$PLINEWID
 40
0.0
  9
$SPLFRAME
 70
0
  9
$SPLINETYPE
 70
6
  9
$SPLINESEGS
 70
8
  9
$HANDSEED
  5
101
  9
$SURFTAB1
 70
6
  9
$SURFTAB2
 70
6
  9
$SURFTYPE
 70
6
  9
$SURFU
 70
6
  9
$SURFV
 70
6
  9
$UCSBASE
  2

  9
$UCSNAME
  2

  9
$UCSORG
 10
0.0
 20
0.0
 30
0.0
  9
$UCSXDIR
 10
1.0
 20
0.0
 30
0.0
  9
$UCSYDIR
 10
0.0
 20
1.0
 30
0.0
  9
$UCSORTHOREF
  2

  9
$UCSORTHOVIEW
 70
0
  9
$UCSORGTOP
 10
0.0
 20
0.0
 30
0.0
  9
$UCSORGBOTTOM
 10
0.0
 20
0.0
 30
0.0
  9
$UCSORGLEFT
 10
0.0
 20
0.0
 30
0.0
  9
$UCSORGRIGHT
 10
0.0
 20
0.0
 30
0.0
  9
$UCSORGFRONT
 10
0.0
 20
0.0
 30
0.0
  9
$UCSORGBACK
 10
0.0
 20
0.0
 30
0.0
  9
$PUCSBASE
  2

  9
$PUCSNAME
  2

  9
$PUCSORG
 10
0.0
 20
0.0
 30
0.0
  9
$PUCSXDIR
 10
1.0
 20
0.0
 30
0.0
  9
$PUCSYDIR
 10
0.0
 20
1.0
 30
0.0
  9
$PUCSORTHOREF
  2

  9
$PUCSORTHOVIEW
 70
0
  9
$PUCSORGTOP
 10
0.0
 20
0.0
 30
0.0
  9
$PUCSORGBOTTOM
 10
0.0
 20
0.0
 30
0.0
  9
$PUCSORGLEFT
 10
0.0
 20
0.0
 30
0.0
  9
$PUCSORGRIGHT
 10
0.0
 20
0.0
 30
0.0
  9
$PUCSORGFRONT
 10
0.0
 20
0.0
 30
0.0
  9
$PUCSORGBACK
 10
0.0
 20
0.0
 30
0.0
  9
$USERI1
 70
0
  9
$USERI2
 70
0
  9
$USERI3
 70
0
  9
$USERI4
 70
0
  9
$USERI5
 70
0
  9
$USERR1
 40
0.0
  9
$USERR2
 40
0.0
  9
$USERR3
 40
0.0
  9
$USERR4
 40
0.0
  9
$USERR5
 40
0.0
  9
$WORLDVIEW
 70
1
  9
$SHADEDGE
 70
3
  9
$SHADEDIF
 70
70
  9
$TILEMODE
 70
1
  9
$MAXACTVP
 70
64
  9
$PINSBASE
 10
0.0
 20
0.0
 30
0.0
  9
$PLIMCHECK
 70
0
  9
$PEXTMIN
 10
1e+20
 20
1e+20
 30
1e+20
  9
$PEXTMAX
 10
-1e+20
 20
-1e+20
 30
-1e+20
  9
$PLIMMIN
 10
0.0
 20
0.0
  9
$PLIMMAX
 10
420.0
 20
297.0
  9
$UNITMODE
 70
0
  9
$VISRETAIN
 70
1
  9
$PLINEGEN
 70
0
  9
$PSLTSCALE
 70
1
  9
$TREEDEPTH
 70
3020
  9
$CMLSTYLE
  2
Standard
  9
$CMLJUST
 70
0
  9
$CMLSCALE
 40
20.0
  9
$PROXYGRAPHICS
 70
1
  9
$MEASUREMENT
 70
1
  9
$CELWEIGHT
370
-1
  9
$ENDCAPS
280
0
  9
$JOINSTYLE
280
0
  9
$LWDISPLAY
290
0
  9
$INSUNITS
 70
6
  9
$HYPERLINKBASE
  1

  9
$STYLESHEET
  1

  9
$XEDIT
290
1
  9
$CEPSNTYPE
380
0
  9
$PSTYLEMODE
290
1
  9
$FINGERPRINTGUID
  2
{DCAB5E84-0531-4A9E-A914-967D999E712E}
  9
$VERSIONGUID
  2
{EE71EE41-EB43-4E60-9841-F2B46BA52338}
  9
$EXTNAMES
290
1
  9
$PSVPSCALE
 40
0.0
  9
$OLESTARTUP
290
0
  9
$SORTENTS
280
127
  9
$INDEXCTL
280
0
  9
$HIDETEXT
280
1
  9
$XCLIPFRAME
280
1
  9
$HALOGAP
280
0
  9
$OBSCOLOR
 70
257
  9
$OBSLTYPE
280
0
  9
$INTERSECTIONDISPLAY
280
0
  9
$INTERSECTIONCOLOR
 70
257
  9
$DIMASSOC
280
2
  9
$PROJECTNAME
  1

  9
$CAMERADISPLAY
290
0
  9
$LENSLENGTH
 40
50.0
  9
$CAMERAHEIGHT
 40
0.0
  9
$STEPSPERSEC
 40
24.0
  9
$STEPSIZE
 40
100.0
  9
$3DDWFPREC
 40
2.0
  9
$PSOLWIDTH
 40
0.005
  9
$PSOLHEIGHT
 40
0.08
  9
$LOFTANG1
 40
1.570796326795
  9
$LOFTANG2
 40
1.570796326795
  9
$LOFTMAG1
 40
0.0
  9
$LOFTMAG2
 40
0.0
  9
$LOFTPARAM
 70
7
  9
$LOFTNORMALS
280
1
  9
$LATITUDE
 40
37.795
  9
$LONGITUDE
 40
-122.394
  9
$NORTHDIRECTION
 40
0.0
  9
$TIMEZONE
 70
-8000
  9
$LIGHTGLYPHDISPLAY
280
1
  9
$TILEMODELIGHTSYNCH
280
1
  9
$CMATERIAL
347
20
  9
$SOLIDHIST
280
0
  9
$SHOWHIST
280
1
  9
$DWFFRAME
280
2
  9
$DGNFRAME
280
2
  9
$REALWORLDSCALE
290
1
  9
$INTERFERECOLOR
 62
256
  9
$CSHADOW
280
0
  9
$SHADOWPLANELOCATION
 40
0.0
  0
ENDSEC
  0
SECTION
  2
CLASSES
  0
CLASS
  1
ACDBDICTIONARYWDFLT
  2
AcDbDictionaryWithDefault
  3
ObjectDBX Classes
 90
0
 91
0
280
0
281
0
  0
CLASS
  1
SUN
  2
AcDbSun
  3
SCENEOE
 90
1153
 91
0
280
0
281
0
  0
CLASS
  1
VISUALSTYLE
  2
AcDbVisualStyle
  3
ObjectDBX Classes
 90
4095
 91
0
280
0
281
0
  0
CLASS
  1
MATERIAL
  2
AcDbMaterial
  3
ObjectDBX Classes
 90
1153
 91
0
280
0
281
0
  0
CLASS
  1
SCALE
  2
AcDbScale
  3
ObjectDBX Classes
 90
1153
 91
0
280
0
281
0
  0
CLASS
  1
TABLESTYLE
  2
AcDbTableStyle
  3
ObjectDBX Classes
 90
4095
 91
0
280
0
281
0
  0
CLASS
  1
MLEADERSTYLE
  2
AcDbMLeaderStyle
  3
ACDB_MLEADERSTYLE_CLASS
 90
4095
 91
0
280
0
281
0
  0
CLASS
  1
DICTIONARYVAR
  2
AcDbDictionaryVar
  3
ObjectDBX Classes
 90
0
 91
0
280
0
281
0
  0
CLASS
  1
CELLSTYLEMAP
  2
AcDbCellStyleMap
  3
ObjectDBX Classes
 90
1152
 91
0
280
0
281
0
  0
CLASS
  1
MENTALRAYRENDERSETTINGS
  2
AcDbMentalRayRenderSettings
  3
SCENEOE
 90
1024
 91
0
280
0
281
0
  0
CLASS
  1
ACDBDETAILVIEWSTYLE
  2
AcDbDetailViewStyle
  3
ObjectDBX Classes
 90
1025
 91
0
280
0
281
0
  0
CLASS
  1
ACDBSECTIONVIEWSTYLE
  2
AcDbSectionViewStyle
  3
ObjectDBX Classes
 90
1025
 91
0
280
0
281
0
  0
CLASS
  1
RASTERVARIABLES
  2
AcDbRasterVariables
  3
ISM
 90
0
 91
0
280
0
281
0
  0
CLASS
  1
ACDBPLACEHOLDER
  2
AcDbPlaceHolder
  3
ObjectDBX Classes
 90
0
 91
0
280
0
281
0
  0
CLASS
  1
LAYOUT
  2
AcDbLayout
  3
ObjectDBX Classes
 90
0
 91
0
280
0
281
0
  0
ENDSEC
  0
SECTION
  2
TABLES
  0
TABLE
  2
VPORT
  5
8
330
0
100
AcDbSymbolTable
 70
1
  0
VPORT
  5
23
330
8
100
AcDbSymbolTableRecord
100
AcDbViewportTableRecord
  2
*Active
 70
0
 10
0.0
 20
0.0
 11
1.0
 21
1.0
 12
0.0
 22
0.0
 13
0.0
 23
0.0
 14
0.5
 24
0.5
 15
0.5
 25
0.5
 16
0.0
 26
0.0
 36
1.0
 17
0.0
 27
0.0
 37
0.0
 40
1000.0
 41
1.34
 42
50.0
 43
0.0
 44
0.0
 50
0.0
 51
0.0
 71
0
 72
1000
 73
1
 74
3
 75
0
 76
0
 77
0
 78
0
281
0
 65
0
146
0.0
  0
ENDTAB
  0
TABLE
  2
LTYPE
  5
2
330
0
100
AcDbSymbolTable
 70
21
  0
LTYPE
  5
24
330
2
100
AcDbSymbolTableRecord
100
AcDbLinetypeTableRecord
  2
ByBlock
 70
0
  3

 72
65
 73
0
 40
0.0
  0
LTYPE
  5
25
330
2
100
AcDbSymbolTableRecord
100
AcDbLinetypeTableRecord
  2
ByLayer
 70
0
  3

 72
65
 73
0
 40
0.0
  0
LTYPE
  5
26
330
2
100
AcDbSymbolTableRecord
100
AcDbLinetypeTableRecord
  2
Continuous
 70
0
  3

 72
65
 73
0
 40
0.0
  0
LTYPE
  5
2F
330
2
100
AcDbSymbolTableRecord
100
AcDbLinetypeTableRecord
  2
CENTER
 70
0
  3
Center ____ _ ____ _ ____ _ ____ _ ____ _ ____
 72
65
 73
4
 40
5.08
 49
3.175
 74
0
 49
-0.635
 74
0
 49
0.635
 74
0
 49
-0.635
 74
0
  0
LTYPE
  5
30
330
2
100
AcDbSymbolTableRecord
100
AcDbLinetypeTableRecord
  2
CENTERX2
 70
0
  3
Center (2x) ________  __  ________  __  ________
 72
65
 73
4
 40
8.89
 49
6.35
 74
0
 49
-0.635
 74
0
 49
1.27
 74
0
 49
-0.635
 74
0
  0
LTYPE
  5
31
330
2
100
AcDbSymbolTableRecord
100
AcDbLinetypeTableRecord
  2
CENTER2
 70
0
  3
Center (.5x) ____ _ ____ _ ____ _ ____ _ ____
 72
65
 73
4
 40
2.54
 49
1.587
 74
0
 49
-0.318
 74
0
 49
0.318
 74
0
 49
-0.318
 74
0
  0
LTYPE
  5
32
330
2
100
AcDbSymbolTableRecord
100
AcDbLinetypeTableRecord
  2
DASHED
 70
0
  3
Dashed __ __ __ __ __ __ __ __ __ __ __ __ __ _
 72
65
 73
2
 40
1.524
 49
1.27
 74
0
 49
-0.254
 74
0
  0
LTYPE
  5
33
330
2
100
AcDbSymbolTableRecord
100
AcDbLinetypeTableRecord
  2
DASHEDX2
 70
0
  3
Dashed (2x) ____  ____  ____  ____  ____  ____
 72
65
 73
2
 40
3.048
 49
2.54
 74
0
 49
-0.508
 74
0
  0
LTYPE
  5
34
330
2
100
AcDbSymbolTableRecord
100
AcDbLinetypeTableRecord
  2
DASHED2
 70
0
  3
Dashed (.5x) _ _ _ _ _ _ _ _ _ _ _ _ _ _
 72
65
 73
2
 40
0.762
 49
0.635
 74
0
 49
-0.127
 74
0
  0
LTYPE
  5
35
330
2
100
AcDbSymbolTableRecord
100
AcDbLinetypeTableRecord
  2
PHANTOM
 70
0
  3
Phantom ______  __  __  ______  __  __  ______
 72
65
 73
6
 40
6.35
 49
3.175
 74
0
 49
-0.635
 74
0
 49
0.635
 74
0
 49
-0.635
 74
0
 49
0.635
 74
0
 49
-0.635
 74
0
  0
LTYPE
  5
36
330
2
100
AcDbSymbolTableRecord
100
AcDbLinetypeTableRecord
  2
PHANTOMX2
 70
0
  3
Phantom (2x)____________    ____    ____    ____________
 72
65
 73
6
 40
10.795
 49
6.35
 74
0
 49
-0.635
 74
0
 49
1.27
 74
0
 49
-0.635
 74
0
 49
1.27
 74
0
 49
-0.635
 74
0
  0
LTYPE
  5
37
330
2
100
AcDbSymbolTableRecord
100
AcDbLinetypeTableRecord
  2
PHANTOM2
 70
0
  3
Phantom (.5x) ___ _ _ ___ _ _ ___ _ _ ___ _ _ ___
 72
65
 73
6
 40
3.175
 49
1.587
 74
0
 49
-0.318
 74
0
 49
0.318
 74
0
 49
-0.318
 74
0
 49
0.318
 74
0
 49
-0.318
 74
0
  0
LTYPE
  5
38
330
2
100
AcDbSymbolTableRecord
100
AcDbLinetypeTableRecord
  2
DASHDOT
 70
0
  3
Dash dot __ . __ . __ . __ . __ . __ . __ . __
 72
65
 73
4
 40
3.556
 49
2.54
 74
0
 49
-0.508
 74
0
 49
0.0
 74
0
 49
-0.508
 74
0
  0
LTYPE
  5
39
330
2
100
AcDbSymbolTableRecord
100
AcDbLinetypeTableRecord
  2
DASHDOTX2
 70
0
  3
Dash dot (2x) ____  .  ____  .  ____  .  ____
 72
65
 73
4
 40
6.096
 49
5.08
 74
0
 49
-0.508
 74
0
 49
0.0
 74
0
 49
-0.508
 74
0
  0
LTYPE
  5
3A
330
2
100
AcDbSymbolTableRecord
100
AcDbLinetypeTableRecord
  2
DASHDOT2
 70
0
  3
Dash dot (.5x) _ . _ . _ . _ . _ . _ . _ . _
 72
65
 73
4
 40
1.778
 49
1.27
 74
0
 49
-0.254
 74
0
 49
0.0
 74
0
 49
-0.254
 74
0
  0
LTYPE
  5
3B
330
2
100
AcDbSymbolTableRecord
100
AcDbLinetypeTableRecord
  2
DOT
 70
0
  3
Dot .  .  .  .  .  .  .  .  .  .  .  .  .  .  .  .
 72
65
 73
2
 40
0.508
 49
0.0
 74
0
 49
-0.508
 74
0
  0
LTYPE
  5
3C
330
2
100
AcDbSymbolTableRecord
100
AcDbLinetypeTableRecord
  2
DOTX2
 70
0
  3
Dot (2x) .    .    .    .    .    .    .    . 
 72
65
 73
2
 40
1.016
 49
0.0
 74
0
 49
-1.016
 74
0
  0
LTYPE
  5
3D
330
2
100
AcDbSymbolTableRecord
100
AcDbLinetypeTableRecord
  2
DOT2
 70
0
  3
Dot (.5) . . . . . . . . . . . . . . . . . . . 
 72
65
 73
2
 40
0.254
 49
0.0
 74
0
 49
-0.254
 74
0
  0
LTYPE
  5
3E
330
2
100
AcDbSymbolTableRecord
100
AcDbLinetypeTableRecord
  2
DIVIDE
 70
0
  3
Divide __ . . __ . . __ . . __ . . __ . . __
 72
65
 73
6
 40
4.064
 49
2.54
 74
0
 49
-0.508
 74
0
 49
0.0
 74
0
 49
-0.508
 74
0
 49
0.0
 74
0
 49
-0.508
 74
0
  0
LTYPE
  5
3F
330
2
100
AcDbSymbolTableRecord
100
AcDbLinetypeTableRecord
  2
DIVIDEX2
 70
0
  3
Divide (2x) ____  . .  ____  . .  ____  . .  ____
 72
65
 73
6
 40
6.604
 49
5.08
 74
0
 49
-0.508
 74
0
 49
0.0
 74
0
 49
-0.508
 74
0
 49
0.0
 74
0
 49
-0.508
 74
0
  0
LTYPE
  5
40
330
2
100
AcDbSymbolTableRecord
100
AcDbLinetypeTableRecord
  2
DIVIDE2
 70
0
  3
Divide(.5x) _ . _ . _ . _ . _ . _ . _ . _
 72
65
 73
6
 40
2.032
 49
1.27
 74
0
 49
-0.254
 74
0
 49
0.0
 74
0
 49
-0.254
 74
0
 49
0.0
 74
0
 49
-0.254
 74
0
  0
ENDTAB
  0
TABLE
  2
LAYER
  5
1
330
0
100
AcDbSymbolTable
 70
6
  0
LAYER
  5
27
330
1
100
AcDbSymbolTableRecord
100
AcDbLayerTableRecord
  2
0
 70
0
 62
7
  6
Continuous
370
-3
390
13
347
21
  0
LAYER
  5
28
330
1
100
AcDbSymbolTableRecord
100
AcDbLayerTableRecord
  2
Defpoints
 70
0
 62
7
  6
Continuous
290
0
370
-3
390
13
347
21
  0
LAYER
  5
8A
330
1
100
AcDbSymbolTableRecord
100
AcDbLayerTableRecord
  2
PLATE_OUTLINE
 70
0
 62
7
  6
Continuous
370
-3
390
13
347
21
  0
LAYER
  5
8B
330
1
100
AcDbSymbolTableRecord
100
AcDbLayerTableRecord
  2
SWITCH_CUTOUTS
 70
0
 62
3
  6
Continuous
370
-3
390
13
347
21
  0
LAYER
  5
8C
330
1
100
AcDbSymbolTableRecord
100
AcDbLayerTableRecord
  2
STAB_CUTOUTS
 70
0
 62
5
  6
Continuous
370
-3
390
13
347
21
  0
LAYER
  5
8D
330
1
100
AcDbSymbolTableRecord
100
AcDbLayerTableRecord
  2
PCB_SCREW_HOLES
 70
0
 62
1
  6
Continuous
370
-3
390
13
347
21
  0
ENDTAB
  0
TABLE
  2
STYLE
  5
5
330
0
100
AcDbSymbolTable
 70
26
  0
STYLE
  5
29
330
5
100
AcDbSymbolTableRecord
100
AcDbTextStyleTableRecord
  2
Standard
 70
0
 40
0.0
 41
1.0
 50
0.0
 71
0
 42
2.5
  3
txt
  4

  0
STYLE
  5
41
330
5
100
AcDbSymbolTableRecord
100
AcDbTextStyleTableRecord
  2
OpenSans-Light
 70
0
 40
0.0
 41
1.0
 50
0.0
 71
0
 42
2.5
  3
OpenSans-Light.ttf
  4

  0
STYLE
  5
42
330
5
100
AcDbSymbolTableRecord
100
AcDbTextStyleTableRecord
  2
OpenSans-Light-Italic
 70
0
 40
0.0
 41
1.0
 50
0.0
 71
0
 42
2.5
  3
OpenSans-LightItalic.ttf
  4

  0
STYLE
  5
43
330
5
100
AcDbSymbolTableRecord
100
AcDbTextStyleTableRecord
  2
OpenSans
 70
0
 40
0.0
 41
1.0
 50
0.0
 71
0
 42
2.5
  3
OpenSans-Regular.ttf
  4

  0
STYLE
  5
44
330
5
100
AcDbSymbolTableRecord
100
AcDbTextStyleTableRecord
  2
OpenSans-Italic
 70
0
 40
0.0
 41
1.0
 50
0.0
 71
0
 42
2.5
  3
OpenSans-Italic.ttf
  4

  0
STYLE
  5
45
330
5
100
AcDbSymbolTableRecord
100
AcDbTextStyleTableRecord
  2
OpenSans-SemiBold
 70
0
 40
0.0
 41
1.0
 50
0.0
 71
0
 42
2.5
  3
OpenSans-SemiBold.ttf
  4

  0
STYLE
  5
46
330
5
100
AcDbSymbolTableRecord
100
AcDbTextStyleTableRecord
  2
OpenSans-SemiBoldItalic
 70
0
 40
0.0
 41
1.0
 50
0.0
 71
0
 42
2.5
  3
OpenSans-SemiBoldItalic.ttf
  4

  0
STYLE
  5
47
330
5
100
AcDbSymbolTableRecord
100
AcDbTextStyleTableRecord
  2
OpenSans-Bold
 70
0
 40
0.0
 41
1.0
 50
0.0
 71
0
 42
2.5
  3
OpenSans-Bold.ttf
  4

  0
STYLE
  5
48
330
5
100
AcDbSymbolTableRecord
100
AcDbTextStyleTableRecord
  2
OpenSans-BoldItalic
 70
0
 40
0.0
 41
1.0
 50
0.0
 71
0
 42
2.5
  3
OpenSans-BoldItalic.ttf
  4

  0
STYLE
  5
49
330
5
100
AcDbSymbolTableRecord
100
AcDbTextStyleTableRecord
  2
OpenSans-ExtraBold
 70
0
 40
0.0
 41
1.0
 50
0.0
 71
0
 42
2.5
  3
OpenSans-ExtraBold.ttf
  4

  0
STYLE
  5
4A
330
5
100
AcDbSymbolTableRecord
100
AcDbTextStyleTableRecord
  2
OpenSans-ExtraBoldItalic
 70
0
 40
0.0
 41
1.0
 50
0.0
 71
0
 42
2.5
  3
OpenSans-ExtraBoldItalic.ttf
  4

  0
STYLE
  5
4B
330
5
100
AcDbSymbolTableRecord
100
AcDbTextStyleTableRecord
  2
OpenSansCondensed-Bold
 70
0
 40
0.0
 41
1.0
 50
0.0
 71
0
 42
2.5
  3
OpenSansCondensed-Bold.ttf
  4

  0
STYLE
  5
4C
330
5
100
AcDbSymbolTableRecord
100
AcDbTextStyleTableRecord
  2
OpenSansCondensed-Light
 70
0
 40
0.0
 41
1.0
 50
0.0
 71
0
 42
2.5
  3
OpenSansCondensed-Light.ttf
  4

  0
STYLE
  5
4D
330
5
100
AcDbSymbolTableRecord
100
AcDbTextStyleTableRecord
  2
OpenSansCondensed-Italic
 70
0
 40
0.0
 41
1.0
 50
0.0
 71
0
 42
2.5
  3
OpenSansCondensed-LightItalic.ttf
  4

  0
STYLE
  5
4E
330
5
100
AcDbSymbolTableRecord
100
AcDbTextStyleTableRecord
  2
LiberationSans
 70
0
 40
0.0
 41
1.0
 50
0.0
 71
0
 42
2.5
  3
LiberationSans-Regular.ttf
  4

  0
STYLE
  5
4F
330
5
100
AcDbSymbolTableRecord
100
AcDbTextStyleTableRecord
  2
LiberationSans-Bold
 70
0
 40
0.0
 41
1.0
 50
0.0
 71
0
 42
2.5
  3
LiberationSans-Bold.ttf
  4

  0
STYLE
  5
50
330
5
100
AcDbSymbolTableRecord
100
AcDbTextStyleTableRecord
  2
LiberationSans-BoldItalic
 70
0
 40
0.0
 41
1.0
 50
0.0
 71
0
 42
2.5
  3
LiberationSans-BoldItalic.ttf
  4

  0
STYLE
  5
51
330
5
100
AcDbSymbolTableRecord
100
AcDbTextStyleTableRecord
  2
LiberationSans-Italic
 70
0
 40
0.0
 41
1.0
 50
0.0
 71
0
 42
2.5
  3
LiberationSans-Italic.ttf
  4

  0
STYLE
  5
52
330
5
100
AcDbSymbolTableRecord
100
AcDbTextStyleTableRecord
  2
LiberationSerif
 70
0
 40
0.0
 41
1.0
 50
0.0
 71
0
 42
2.5
  3
LiberationSerif-Regular.ttf
  4

  0
STYLE
  5
53
330
5
100
AcDbSymbolTableRecord
100
AcDbTextStyleTableRecord
  2
LiberationSerif-Bold
 70
0
 40
0.0
 41
1.0
 50
0.0
 71
0
 42
2.5
  3
LiberationSerif-Bold.ttf
  4

  0
STYLE
  5
54
330
5
100
AcDbSymbolTableRecord
100
AcDbTextStyleTableRecord
  2
LiberationSerif-BoldItalic
 70
0
 40
0.0
 41
1.0
 50
0.0
 71
0
 42
2.5
  3
LiberationSerif-BoldItalic.ttf
  4

  0
STYLE
  5
55
330
5
100
AcDbSymbolTableRecord
100
AcDbTextStyleTableRecord
  2
LiberationSerif-Italic
 70
0
 40
0.0
 41
1.0
 50
0.0
 71
0
 42
2.5
  3
LiberationSerif-Italic.ttf
  4

  0
STYLE
  5
56
330
5
100
AcDbSymbolTableRecord
100
AcDbTextStyleTableRecord
  2
LiberationMono
 70
0
 40
0.0
 41
1.0
 50
0.0
 71
0
 42
2.5
  3
LiberationMono-Regular.ttf
  4

  0
STYLE
  5
57
330
5
100
AcDbSymbolTableRecord
100
AcDbTextStyleTableRecord
  2
LiberationMono-Bold
 70
0
 40
0.0
 41
1.0
 50
0.0
 71
0
 42
2.5
  3
LiberationMono-Bold.ttf
  4

  0
STYLE
  5
58
330
5
100
AcDbSymbolTableRecord
100
AcDbTextStyleTableRecord
  2
LiberationMono-BoldItalic
 70
0
 40
0.0
 41
1.0
 50
0.0
 71
0
 42
2.5
  3
LiberationMono-BoldItalic.ttf
  4

  0
STYLE
  5
59
330
5
100
AcDbSymbolTableRecord
100
AcDbTextStyleTableRecord
  2
LiberationMono-Italic
 70
0
 40
0.0
 41
1.0
 50
0.0
 71
0
 42
2.5
  3
LiberationMono-Italic.ttf
  4

  0
ENDTAB
  0
TABLE
  2
VIEW
  5
7
330
0
100
AcDbSymbolTable
 70
0
  0
ENDTAB
  0
TABLE
  2
UCS
  5
6
330
0
100
AcDbSymbolTable
 70
0
  0
ENDTAB
  0
TABLE
  2
APPID
  5
3
330
0
100
AcDbSymbolTable
 70
3
  0
APPID
  5
2A
330
3
100
AcDbSymbolTableRecord
100
AcDbRegAppTableRecord
  2
ACAD
 70
0
  0
APPID
  5
FE
330
3
100
AcDbSymbolTableRecord
100
AcDbRegAppTableRecord
  2
HATCHBACKGROUNDCOLOR
 70
0
  0
APPID
  5
FF
330
3
100
AcDbSymbolTableRecord
100
AcDbRegAppTableRecord
  2
EZDXF
 70
0
  0
ENDTAB
  0
TABLE
  2
DIMSTYLE
  5
4
330
0
100
AcDbSymbolTable
 70
12
100
AcDbDimStyleTable
  0
DIMSTYLE
105
2B
330
4
100
AcDbSymbolTableRecord
100
AcDbDimStyleTableRecord
  2
Standard
 70
0
 40
1.0
 41
2.5
 42
0.625
 43
3.75
 44
1.25
 45
0.0
 46
0.0
 47
0.0
 48
0.0
 49
2.5
140
2.5
141
2.5
142
0.0
143
0.03937007874
144
1.0
145
0.0
146
1.0
147
0.625
148
0.0
 69
0
 70
0
 71
0
 72
0
 73
0
 74
0
 75
0
 76
0
 77
1
 78
8
 79
3
170
0
171
3
172
1
173
0
174
0
175
0
176
0
177
0
178
0
179
2
271
2
272
2
273
2
274
3
275
0
276
0
277
2
278
44
279
0
280
0
281
0
282
0
283
0
284
8
285
0
286
0
288
0
289
3
290
0
371
-2
372
-2
  0
DIMSTYLE
105
73
330
4
100
AcDbSymbolTableRecord
100
AcDbDimStyleTableRecord
  2
EZDXF
 70
0
 40
1.0
 41
0.175
 42
0.125
 43
3.75
 44
0.375
 45
0.0
 46
0.0
 47
0.0
 48
0.0
 49
2.5
140
0.25
141
2.5
142
0.0
143
0.03937007874
144
100.0
145
0.0
146
0.5
147
0.1
148
0.0
 69
0
 70
0
 71
0
 72
0
 73
0
 74
0
 75
0
 76
0
 77
1
 78
12
 79
3
170
0
171
3
172
1
173
0
174
0
175
0
176
0
177
0
178
0
179
2
271
2
272
2
273
2
274
3
275
0
276
0
277
2
278
46
279
2
280
0
281
0
282
0
283
0
284
8
285
0
286
0
288
1
289
3
290
0
340
4C
342
74
371
-2
372
-2
  0
DIMSTYLE
105
7C
330
4
100
AcDbSymbolTableRecord
100
AcDbDimStyleTableRecord
  2
EZ_M_100_H25_CM
 70
0
 40
1.0
 41
0.25
 42
0.125
 43
3.75
 44
0.375
 45
0.0
 46
0.0
 47
0.0
 48
0.0
 49
2.5
140
0.25
141
2.5
142
0.125
143
0.03937007874
144
100.0
145
0.0
146
0.5
147
0.1
148
0.0
 69
0
 70
0
 71
0
 72
0
 73
0
 74
0
 75
0
 76
0
 77
1
 78
12
 79
3
170
0
171
3
172
1
173
0
174
0
175
0
176
0
177
0
178
0
179
2
271
2
272
2
273
2
274
3
275
0
276
0
277
2
278
46
279
2
280
0
281
0
282
0
283
0
284
8
285
0
286
0
288
1
289
3
290
0
340
4C
371
-2
372
-2
  0
DIMSTYLE
105
7D
330
4
100
AcDbSymbolTableRecord
100
AcDbDimStyleTableRecord
  2
EZ_M_50_H25_CM
 70
0
 40
1.0
 41
0.125
 42
0.0625
 43
3.75
 44
0.1875
 45
0.0
 46
0.0
 47
0.0
 48
0.0
 49
2.5
140
0.125
141
2.5
142
0.0625
143
0.03937007874
144
100.0
145
0.0
146
0.5
147
0.05
148
0.0
 69
0
 70
0
 71
0
 72
0
 73
0
 74
0
 75
0
 76
0
 77
1
 78
12
 79
3
170
0
171
3
172
1
173
0
174
0
175
0
176
0
177
0
178
0
179
2
271
2
272
2
273
2
274
3
275
0
276
0
277
2
278
46
279
2
280
0
281
0
282
0
283
0
284
8
285
0
286
0
288
1
289
3
290
0
340
4C
371
-2
372
-2
  0
DIMSTYLE
105
7E
330
4
100
AcDbSymbolTableRecord
100
AcDbDimStyleTableRecord
  2
EZ_M_25_H25_CM
 70
0
 40
1.0
 41
0.0625
 42
0.03125
 43
3.75
 44
0.09375
 45
0.0
 46
0.0
 47
0.0
 48
0.0
 49
2.5
140
0.0625
141
2.5
142
0.03125
143
0.03937007874
144
100.0
145
0.0
146
0.5
147
0.025
148
0.0
 69
0
 70
0
 71
0
 72
0
 73
0
 74
0
 75
0
 76
0
 77
1
 78
12
 79
3
170
0
171
3
172
1
173
0
174
0
175
0
176
0
177
0
178
0
179
2
271
2
272
2
273
2
274
3
275
0
276
0
277
2
278
46
279
2
280
0
281
0
282
0
283
0
284
8
285
0
286
0
288
1
289
3
290
0
340
4C
371
-2
372
-2
  0
DIMSTYLE
105
7F
330
4
100
AcDbSymbolTableRecord
100
AcDbDimStyleTableRecord
  2
EZ_M_20_H25_CM
 70
0
 40
1.0
 41
0.05
 42
0.025
 43
3.75
 44
0.07500000000000001
 45
0.0
 46
0.0
 47
0.0
 48
0.0
 49
2.5
140
0.05
141
2.5
142
0.025
143
0.03937007874
144
100.0
145
0.0
146
0.5
147
0.020000000000000004
148
0.0
 69
0
 70
0
 71
0
 72
0
 73
0
 74
0
 75
0
 76
0
 77
1
 78
12
 79
3
170
0
171
3
172
1
173
0
174
0
175
0
176
0
177
0
178
0
179
2
271
2
272
2
273
2
274
3
275
0
276
0
277
2
278
46
279
2
280
0
281
0
282
0
283
0
284
8
285
0
286
0
288
1
289
3
290
0
340
4C
371
-2
372
-2
  0
DIMSTYLE
105
80
330
4
100
AcDbSymbolTableRecord
100
AcDbDimStyleTableRecord
  2
EZ_M_10_H25_CM
 70
0
 40
1.0
 41
0.025
 42
0.0125
 43
3.75
 44
0.037500000000000006
 45
0.0
 46
0.0
 47
0.0
 48
0.0
 49
2.5
140
0.025
141
2.5
142
0.0125
143
0.03937007874
144
100.0
145
0.0
146
0.5
147
0.010000000000000002
148
0.0
 69
0
 70
0
 71
0
 72
0
 73
0
 74
0
 75
0
 76
0
 77
1
 78
12
 79
3
170
0
171
3
172
1
173
0
174
0
175
0
176
0
177
0
178
0
179
2
271
2
272
2
273
2
274
3
275
0
276
0
277
2
278
46
279
2
280
0
281
0
282
0
283
0
284
8
285
0
286
0
288
1
289
3
290
0
340
4C
371
-2
372
-2
  0
DIMSTYLE
105
81
330
4
100
AcDbSymbolTableRecord
100
AcDbDimStyleTableRecord
  2
EZ_M_5_H25_CM
 70
0
 40
1.0
 41
0.0125
 42
0.00625
 43
3.75
 44
0.018750000000000003
 45
0.0
 46
0.0
 47
0.0
 48
0.0
 49
2.5
140
0.0125
141
2.5
142
0.00625
143
0.03937007874
144
100.0
145
0.0
146
0.5
147
0.005000000000000001
148
0.0
 69
0
 70
0
 71
0
 72
0
 73
0
 74
0
 75
0
 76
0
 77
1
 78
12
 79
3
170
0
171
3
172
1
173
0
174
0
175
0
176
0
177
0
178
0
179
2
271
2
272
2
273
2
274
3
275
0
276
0
277
2
278
46
279
2
280
0
281
0
282
0
283
0
284
8
285
0
286
0
288
1
289
3
290
0
340
4C
371
-2
372
-2
  0
DIMSTYLE
105
82
330
4
100
AcDbSymbolTableRecord
100
AcDbDimStyleTableRecord
  2
EZ_M_1_H25_CM
 70
0
 40
1.0
 41
0.0025
 42
0.00125
 43
3.75
 44
0.00375
 45
0.0
 46
0.0
 47
0.0
 48
0.0
 49
2.5
140
0.0025
141
2.5
142
0.00125
143
0.03937007874
144
100.0
145
0.0
146
0.5
147
0.001
148
0.0
 69
0
 70
0
 71
0
 72
0
 73
0
 74
0
 75
0
 76
0
 77
1
 78
12
 79
3
170
0
171
3
172
1
173
0
174
0
175
0
176
0
177
0
178
0
179
2
271
2
272
2
273
2
274
3
275
0
276
0
277
2
278
46
279
2
280
0
281
0
282
0
283
0
284
8
285
0
286
0
288
1
289
3
290
0
340
4C
371
-2
372
-2
  0
DIMSTYLE
105
83
330
4
100
AcDbSymbolTableRecord
100
AcDbDimStyleTableRecord
  2
EZ_RADIUS
 70
0
 40
1.0
 41
0.25
 42
0.125
 43
3.75
 44
0.375
 45
0.0
 46
0.0
 47
0.0
 48
0.0
 49
2.5
140
0.25
141
0.0
142
0.0
143
0.03937007874
144
100.0
145
0.0
146
0.5
147
0.1
148
0.0
 69
0
 70
0
 71
0
 72
0
 73
0
 74
0
 75
0
 76
0
 77
1
 78
12
 79
3
170
0
171
3
172
0
173
0
174
0
175
0
176
0
177
0
178
0
179
2
271
2
272
2
273
2
274
3
275
0
276
0
277
2
278
46
279
1
280
0
281
0
282
0
283
0
284
8
285
0
286
0
288
1
289
3
290
0
340
4C
342
84
371
-2
372
-2
  0
DIMSTYLE
105
88
330
4
100
AcDbSymbolTableRecord
100
AcDbDimStyleTableRecord
  2
EZ_RADIUS_INSIDE
 70
0
 40
1.0
 41
0.25
 42
0.125
 43
3.75
 44
0.375
 45
0.0
 46
0.0
 47
0.0
 48
0.0
 49
2.5
140
0.25
141
0.0
142
0.0
143
0.03937007874
144
100.0
145
0.0
146
0.5
147
0.1
148
0.0
 69
0
 70
0
 71
0
 72
0
 73
0
 74
0
 75
0
 76
0
 77
0
 78
12
 79
3
170
0
171
3
172
0
173
0
174
1
175
0
176
0
177
0
178
0
179
2
271
2
272
2
273
2
274
3
275
0
276
0
277
2
278
46
279
0
280
0
281
0
282
0
283
0
284
8
285
0
286
0
288
1
289
0
290
0
340
4C
342
84
371
-2
372
-2
  0
DIMSTYLE
105
89
330
4
100
AcDbSymbolTableRecord
100
AcDbDimStyleTableRecord
  2
EZ_CURVED
 70
0
 40
1.0
 41
0.25
 42
0.125
 43
3.75
 44
0.375
 45
0.0
 46
0.0
 47
0.0
 48
0.0
 49
2.5
140
0.25
141
2.5
142
0.0
143
0.03937007874
144
100.0
145
0.0
146
0.5
147
0.1
148
0.0
 69
0
 70
0
 71
0
 72
0
 73
0
 74
0
 75
0
 76
0
 77
1
 78
12
 79
2
 90
2
170
0
171
3
172
1
173
0
174
0
175
0
176
0
177
0
178
0
179
2
271
2
272
2
273
2
274
3
275
0
276
0
277
2
278
46
279
2
280
0
281
0
282
0
283
0
284
8
285
0
286
0
288
1
289
3
290
0
340
4C
371
-2
372
-2
  0
ENDTAB
  0
TABLE
  2
BLOCK_RECORD
  5
9
330
0
100
AcDbSymbolTable
 70
5
  0
BLOCK_RECORD
  5
17
330
9
100
AcDbSymbolTableRecord
100
AcDbBlockTableRecord
  2
*Model_Space
340
1A
 70
0
280
1
281
0
  0
BLOCK_RECORD
  5
1B
330
9
100
AcDbSymbolTableRecord
100
AcDbBlockTableRecord
  2
*Paper_Space
340
1E
 70
0
280
1
281
0
  0
BLOCK_RECORD
  5
74
330
9
100
AcDbSymbolTableRecord
100
AcDbBlockTableRecord
  2
_ARCHTICK
340
0
 70
0
280
1
281
0
  0
BLOCK_RECORD
  5
78
330
9
100
AcDbSymbolTableRecord
100
AcDbBlockTableRecord
  2
_CLOSEDFILLED
340
0
 70
0
280
1
281
0
  0
BLOCK_RECORD
  5
84
330
9
100
AcDbSymbolTableRecord
100
AcDbBlockTableRecord
  2
_CLOSEDBLANK
340
0
 70
0
280
1
281
0
  0
ENDTAB
  0
ENDSEC
  0
SECTION
  2
BLOCKS
  0
BLOCK
  5
18
330
17
100
AcDbEntity
  8
0
100
AcDbBlockBegin
  2
*Model_Space
 70
0
 10
0.0
 20
0.0
 30
0.0
  3
*Model_Space
  1

  0
ENDBLK
  5
19
330
17
100
AcDbEntity
  8
0
100
AcDbBlockEnd
  0
BLOCK
  5
1C
330
1B
100
AcDbEntity
  8
0
100
AcDbBlockBegin
  2
*Paper_Space
 70
0
 10
0.0
 20
0.0
 30
0.0
  3
*Paper_Space
  1

  0
ENDBLK
  5
1D
330
1B
100
AcDbEntity
  8
0
100
AcDbBlockEnd
  0
BLOCK
  5
75
330
74
100
AcDbEntity
  8
0
100
AcDbBlockBegin
  2
_ARCHTICK
 70
0
 10
0.0
 20
0.0
 30
0.0
  3
_ARCHTICK
  1

  0
LWPOLYLINE
  5
77
330
74
100
AcDbEntity
  8
0
  6
BYBLOCK
 62
0
100
AcDbPolyline
 90
2
 70
0
 43
0.15
 10
-0.5
 20
-0.5
 10
0.5
 20
0.5
  0
ENDBLK
  5
76
330
74
100
AcDbEntity
  8
0
100
AcDbBlockEnd
  0
BLOCK
  5
79
330
78
100
AcDbEntity
  8
0
100
AcDbBlockBegin
  2
_CLOSEDFILLED
 70
0
 10
0.0
 20
0.0
 30
0.0
  3
_CLOSEDFILLED
  1

  0
SOLID
  5
7B
330
78
100
AcDbEntity
  8
0
  6
BYBLOCK
 62
0
100
AcDbTrace
 10
-1.0
 20
0.16439898372402537
 30
0.0
 11
0.0
 21
0.0
 31
0.0
 12
-1.0
 22
-0.16439898372402537
 32
0.0
 13
-1.0
 23
-0.16439898372402537
 33
0.0
  0
ENDBLK
  5
7A
330
78
100
AcDbEntity
  8
0
100
AcDbBlockEnd
  0
BLOCK
  5
85
330
84
100
AcDbEntity
  8
0
100
AcDbBlockBegin
  2
_CLOSEDBLANK
 70
0
 10
0.0
 20
0.0
 30
0.0
  3
_CLOSEDBLANK
  1

  0
LWPOLYLINE
  5
87
330
84
100
AcDbEntity
  8
0
  6
BYBLOCK
 62
0
100
AcDbPolyline
 90
3
 70
1
 10
-1.0
 20
0.16439898372402537
 10
0.0
 20
0.0
 10
-1.0
 20
-0.16439898372402537
  0
ENDBLK
  5
86
330
84
100
AcDbEntity
  8
0
100
AcDbBlockEnd
  0
ENDSEC
  0
SECTION
  2
ENTITIES
  0
LWPOLYLINE
  5
8E
330
17
100
AcDbEntity
  8
PLATE_OUTLINE
100
AcDbPolyline
 90
208
 70
1
 10
284.736765
 20
2.6191149999999936
 10
284.736765
 20
0.0
 10
155.486765
 20
0.0
 10
155.486765
 20
2.6191149999999936
 10
155.47820986137307
 20
2.749641192219957
 10
155.4526908262883
 20
2.877934045102332
 10
155.41064453251047
 20
3.0017984323648044
 10
155.35279040378364
 20
3.119114999999619
 10
155.28011834029044
 20
3.227876429008247
 10
155.19387178118578
 20
3.3262217811859878
 10
155.095526429008
 20
3.4124683402905975
 10
154.98676499999934
 20
3.4851404037837344
 10
154.8694484323645
 20
3.5429945325105283
 10
154.745584045102
 20
3.58504082628827
 10
154.61729119221962
 20
3.610559861372988
 10
154.48676499999965
 20
3.6191149999991694
 10
154.35623880777968
 20
3.610559861372988
 10
154.2279459548973
 20
3.58504082628827
 10
154.1040815676348
 20
3.5429945325105283
 10
153.98676499999996
 20
3.4851404037837344
 10
153.8780035709913
 20
3.4124683402905975
 10
153.77965821881352
 20
3.3262217811859878
 10
153.69341165970886
 20
3.227876429008247
 10
153.62073959621566
 20
3.119114999999619
 10
153.56288546748883
 20
3.0017984323648044
 10
153.520839173711
 20
2.8779340451023323
 10
153.49532013862623
 20
2.749641192219957
 10
153.486765
 20
2.6191149999999936
 10
153.486765
 20
0.0
 10
24.486765
 20
0.0
 10
24.486765
 20
2.6191149999999936
 10
24.4782098613738
 20
2.749641192220047
 10
24.452690826289057
 20
2.877934045102518
 10
24.41064453251128
 20
3.0017984323650895
 10
24.352790403784432
 20
3.119115000000002
 10
24.28011834029123
 20
3.227876429008725
 10
24.193871781186544
 20
3.3262217811865544
 10
24.095526429008718
 20
3.412468340291244
 10
23.986764999999995
 20
3.48514040378445
 10
23.869448432365086
 20
3.5429945325112997
 10
23.745584045102515
 20
3.5850408262890823
 10
23.617291192220044
 20
3.610559861373825
 10
23.48676499999999
 20
3.619115000000015
 10
23.35623880777994
 20
3.610559861373825
 10
23.227945954897468
 20
3.5850408262890823
 10
23.1040815676349
 20
3.5429945325112997
 10
22.986764999999988
 20
3.48514040378445
 10
22.878003570991265
 20
3.4124683402912446
 10
22.779658218813438
 20
3.3262217811865544
 10
22.69341165970875
 20
3.2278764290087256
 10
22.62073959621555
 20
3.1191150000000025
 10
22.5628854674887
 20
3.0017984323650895
 10
22.520839173710925
 20
2.8779340451025184
 10
22.495320138626184
 20
2.749641192220047
 10
22.486765
 20
2.6191149999999936
 10
22.486765
 20
0.0
 10
1.5
 20
0.0
 10
1.402216472775739
 20
0.0028634328349546045
 10
1.3048296177765264
 20
0.012116427884155012
 10
1.2082565055143313
 20
0.02771935812214288
 10
1.1129107215533838
 20
0.04960540218886256
 10
1.0192005952819865
 20
0.07768083055989372
 10
0.9275274511945073
 20
0.11182540695402055
 10
0.8382838901726416
 20
0.15189290325906368
 10
0.7518521081265612
 20
0.19771172577074614
 10
0.6686022591965621
 20
0.24908565006265126
 10
0.588890870524985
 20
0.305794661340109
 10
0.5130593153873415
 20
0.36759589667909487
 10
0.4414323512216345
 20
0.43422468511489476
 10
0.37431672881692535
 20
0.5053956811262375
 10
0.31199987861747247
 20
0.5808040866606151
 10
0.2547486797684868
 20
0.6601269564673232
 10
0.20280831717520953
 20
0.7430245811479915
 10
0.15640123147009266
 20
0.8291419420015151
 10
0.11572616638496869
 20
0.9181102314328569
 10
0.08095731760794656
 20
1.0095484324143875
 10
0.0522435867701565
 20
1.1030649502355356
 10
0.029707943757227184
 20
1.1982592895525972
 10
0.013446900076476753
 20
1.2947237695565386
 10
0.003530095535177802
 20
1.392045269913386
 10
-2.220446049250313e-16
 20
1.4898070000000134
 10
0.0
 20
37.25
 10
2.6191150000000007
 20
37.25
 10
2.749641192220049
 20
37.25855513862619
 10
2.8779340451025144
 20
37.28407417371094
 10
3.0017984323650793
 20
37.32612046748872
 10
3.1191149999999856
 20
37.38397459621557
 10
3.2278764290087025
 20
37.45664665970878
 10
3.3262217811865256
 20
37.54289321881347
 10
3.4124683402912095
 20
37.64123857099129
 10
3.48514040378441
 20
37.75000000000001
 10
3.5429945325112553
 20
37.867316567634916
 10
3.585040826289035
 20
37.99118095489749
 10
3.610559861373776
 20
38.119473807779954
 10
3.619114999999965
 20
38.25
 10
3.610559861373776
 20
38.380526192220046
 10
3.5850408262890348
 20
38.50881904510251
 10
3.5429945325112553
 20
38.632683432365084
 10
3.48514040378441
 20
38.74999999999999
 10
3.412468340291209
 20
38.85876142900871
 10
3.326221781186525
 20
38.95710678118653
 10
3.227876429008702
 20
39.043353340291226
 10
3.1191149999999856
 20
39.11602540378443
 10
3.0017984323650793
 20
39.17387953251128
 10
2.8779340451025144
 20
39.21592582628906
 10
2.749641192220049
 20
39.24144486137381
 10
2.6191150000000007
 20
39.25
 10
0.0
 20
39.25
 10
0.0
 20
112.8
 10
0.0032131355693156838
 20
112.89810420674222
 10
0.012835580797325719
 20
112.99578822881615
 10
0.028826132608502197
 20
113.0926337856243
 10
0.05111631985041032
 20
113.18822618685697
 10
0.07961069648551056
 20
113.28215610818603
 10
0.11418725028876175
 20
113.37402134398172
 10
0.1546979253009888
 20
113.46342852954731
 10
0.2009692558008862
 20
113.54999482549717
 10
0.25280310908099857
 20
113.63334955706559
 10
0.30997753384714266
 20
113.71313580132716
 10
0.37224771060842143
 20
113.78901191553199
 10
0.4393469999883135
 20
113.86065300001164
 10
0.5109880844679695
 20
113.92775228939153
 10
0.5868641986728156
 20
113.9900224661528
 10
0.6666504429343949
 20
114.04719689091894
 10
0.7500051745028151
 20
114.09903074419904
 10
0.8365714704526647
 20
114.14530207469893
 10
0.9259786560182623
 20
114.18581274971115
 10
1.0178438918139556
 20
114.2203893035144
 10
1.1117738131430213
 20
114.24888368014949
 10
1.207366214375692
 20
114.27117386739138
 10
1.3042117711838452
 20
114.28716441920255
 10
1.4018957932577807
 20
114.29678686443056
 10
1.4999999999999998
 20
114.29999999999986
 10
360.44996499999996
 20
114.3
 10
360.54806988593276
 20
114.2967889844467
 10
360.645754706148
 20
114.28716842498824
 10
360.7426011523939
 20
114.27117951901224
 10
360.83819450652373
 20
114.24889073459076
 10
360.93212541641134
 20
114.22039751728452
 10
361.0239916488888
 20
114.18582188142385
 10
361.1133998121987
 20
114.14531188761585
 10
361.1999670405856
 20
114.09904100871586
 10
361.28332263381304
 20
114.04720738697786
 10
361.36310964458454
 20
113.99003298556502
 10
361.4389864070722
 20
113.9277626380538
 10
361.51062800000574
 20
113.86066300000175
 10
361.57772763805843
 20
113.78902140706882
 10
361.63999798557035
 20
113.71314464458176
 10
361.69717238698394
 20
113.63335763381075
 10
361.7490060087227
 20
113.55000204058379
 10
361.79527688762346
 20
113.46343481219728
 10
361.8357868814323
 20
113.37402664888776
 10
361.8703625172938
 20
113.28216041641062
 10
361.8988557346009
 20
113.18822950652327
 10
361.92114451902324
 20
113.09263615239368
 10
361.9371334250001
 20
112.9957897061479
 10
361.9467539844595
 20
112.89810488593278
 10
361.94996500001366
 20
112.8
 10
361.95
 20
1.4898070000000132
 10
361.94646768485893
 20
1.3920459893110535
 10
361.9365489066532
 20
1.2947253322022592
 10
361.9202861411136
 20
1.1982617902903674
 10
361.8977490311779
 20
1.103068454720443
 10
361.86903408875474
 20
1.0095529771628842
 10
361.83426428142565
 20
0.9181158241041997
 10
361.79358850585385
 20
0.8291485619072831
 10
361.7471809501562
 20
0.7430321799851891
 10
361.6952403479676
 20
0.6601354592691575
 10
361.63798912739315
 20
0.580813392957696
 10
361.5756724584919
 20
0.5054056663096281
 10
361.5085572033715
 20
0.43423520199117993
 10
361.43693077339003
 20
0.367606777206436
 10
361.36109989835853
 20
0.30580571853311334
 10
361.2813893130149
 20
0.2490966800528216
 10
361.19814036639445
 20
0.197722510008296
 10
361.111709560052
 20
0.1519032108409748
 10
361.022467021396
 20
0.11183499706241262
 10
360.93079491867087
 20
0.07768945499405722
 10
360.83708582437754
 20
0.04961280797368195
 10
360.74174103413816
 20
0.027725290175124595
 10
360.6451688482057
 20
0.012120631722852826
 10
360.5477828229776
 20
0.002865657306284408
 10
360.45000000000005
 20
1.2733814003240695e-11
 10
286.736765
 20
0.0
 10
286.736765
 20
2.6191149999999936
 10
286.7282098613769
 20
2.74964119222036
 10
286.70269082629227
 20
2.8779340451031574
 10
286.6606445325145
 20
3.0017984323660594
 10
286.60279040378765
 20
3.119115000001297
 10
286.53011834029434
 20
3.2278764290103314
 10
286.44387178118956
 20
3.32622178118845
 10
286.34552642901156
 20
3.4124683402933984
 10
286.2367650000026
 20
3.4851404037868257
 10
286.11944843236745
 20
3.542994532513854
 10
285.9955840451046
 20
3.5850408262917677
 10
285.86729119222184
 20
3.610559861376591
 10
285.73676500000147
 20
3.6191150000028074
 10
285.6062388077811
 20
3.610559861376591
 10
285.47794595489836
 20
3.5850408262917677
 10
285.3540815676355
 20
3.5429945325138537
 10
285.23676500000033
 20
3.4851404037868257
 10
285.1280035709914
 20
3.412468340293398
 10
285.0296582188134
 20
3.3262217811884494
 10
284.9434116597086
 20
3.2278764290103314
 10
284.8707395962153
 20
3.119115000001297
 10
284.81288546748846
 20
3.0017984323660594
 10
284.77083917371067
 20
2.8779340451031574
 10
284.745320138626
 20
2.7496411922203596
  0
LWPOLYLINE
  5
8F
330
17
100
AcDbEntity
  8
SWITCH_CUTOUTS
100
AcDbPolyline
 90
12
 70
1
 10
16.525000000000006
 20
97.775
 10
16.525000000000006
 20
98.375
 10
17.325000000000006
 20
98.375
 10
17.325000000000006
 20
111.17500000000001
 10
16.525000000000006
 20
111.17500000000001
 10
16.525000000000006
 20
111.775
 10
2.5250000000000075
 20
111.775
 10
2.5250000000000075
 20
111.17500000000001
 10
1.7250000000000076
 20
111.17500000000001
 10
1.7250000000000076
 20
98.375
 10
2.5250000000000075
 20
98.375
 10
2.5250000000000075
 20
97.775
  0
LWPOLYLINE
  5
90
330
17
100
AcDbEntity
  8
SWITCH_CUTOUTS
100
AcDbPolyline
 90
12
 70
1
 10
35.57500000000001
 20
97.775
 10
35.57500000000001
 20
98.375
 10
36.37500000000001
 20
98.375
 10
36.37500000000001
 20
111.17500000000001
 10
35.57500000000001
 20
111.17500000000001
 10
35.57500000000001
 20
111.775
 10
21.57500000000001
 20
111.775
 10
21.57500000000001
 20
111.17500000000001
 10
20.77500000000001
 20
111.17500000000001
 10
20.77500000000001
 20
98.375
 10
21.57500000000001
 20
98.375
 10
21.57500000000001
 20
97.775
  0
LWPOLYLINE
  5
91
330
17
100
AcDbEntity
  8
SWITCH_CUTOUTS
100
AcDbPolyline
 90
12
 70
1
 10
54.62500000000001
 20
97.775
 10
54.62500000000001
 20
98.375
 10
55.425000000000004
 20
98.375
 10
55.425000000000004
 20
111.17500000000001
 10
54.62500000000001
 20
111.17500000000001
 10
54.62500000000001
 20
111.775
 10
40.62500000000001
 20
111.775
 10
40.62500000000001
 20
111.17500000000001
 10
39.82500000000001
 20
111.17500000000001
 10
39.82500000000001
 20
98.375
 10
40.62500000000001
 20
98.375
 10
40.62500000000001
 20
97.775
  0
LWPOLYLINE
  5
92
330
17
100
AcDbEntity
  8
SWITCH_CUTOUTS
100
AcDbPolyline
 90
12
 70
1
 10
73.67500000000001
 20
97.775
 10
73.67500000000001
 20
98.375
 10
74.475
 20
98.375
 10
74.475
 20
111.17500000000001
 10
73.67500000000001
 20
111.17500000000001
 10
73.67500000000001
 20
111.775
 10
59.675000000000004
 20
111.775
 10
59.675000000000004
 20
111.17500000000001
 10
58.87500000000001
 20
111.17500000000001
 10
58.87500000000001
 20
98.375
 10
59.675000000000004
 20
98.375
 10
59.675000000000004
 20
97.775
  0
LWPOLYLINE
  5
93
330
17
100
AcDbEntity
  8
SWITCH_CUTOUTS
100
AcDbPolyline
 90
12
 70
1
 10
92.72500000000002
 20
97.775
 10
92.72500000000002
 20
98.375
 10
93.525
 20
98.375
 10
93.525
 20
111.17500000000001
 10
92.72500000000002
 20
111.17500000000001
 10
92.72500000000002
 20
111.775
 10
78.72500000000002
 20
111.775
 10
78.72500000000002
 20
111.17500000000001
 10
77.92500000000001
 20
111.17500000000001
 10
77.92500000000001
 20
98.375
 10
78.72500000000002
 20
98.375
 10
78.72500000000002
 20
97.775
  0
LWPOLYLINE
  5
94
330
17
100
AcDbEntity
  8
SWITCH_CUTOUTS
100
AcDbPolyline
 90
12
 70
1
 10
111.775
 20
97.775
 10
111.775
 20
98.375
 10
112.57500000000002
 20
98.375
 10
112.57500000000002
 20
111.17500000000001
 10
111.775
 20
111.17500000000001
 10
111.775
 20
111.775
 10
97.775
 20
111.775
 10
97.775
 20
111.17500000000001
 10
96.97500000000002
 20
111.17500000000001
 10
96.97500000000002
 20
98.375
 10
97.775
 20
98.375
 10
97.775
 20
97.775
  0
LWPOLYLINE
  5
95
330
17
100
AcDbEntity
  8
SWITCH_CUTOUTS
100
AcDbPolyline
 90
12
 70
1
 10
130.825
 20
97.775
 10
130.825
 20
98.375
 10
131.625
 20
98.375
 10
131.625
 20
111.17500000000001
 10
130.825
 20
111.17500000000001
 10
130.825
 20
111.775
 10
116.82500000000002
 20
111.775
 10
116.82500000000002
 20
111.17500000000001
 10
116.025
 20
111.17500000000001
 10
116.025
 20
98.375
 10
116.82500000000002
 20
98.375
 10
116.82500000000002
 20
97.775
  0
LWPOLYLINE
  5
96
330
17
100
AcDbEntity
  8
SWITCH_CUTOUTS
100
AcDbPolyline
 90
12
 70
1
 10
149.875
 20
97.775
 10
149.875
 20
98.375
 10
150.675
 20
98.375
 10
150.675
 20
111.17500000000001
 10
149.875
 20
111.17500000000001
 10
149.875
 20
111.775
 10
135.875
 20
111.775
 10
135.875
 20
111.17500000000001
 10
135.075
 20
111.17500000000001
 10
135.075
 20
98.375
 10
135.875
 20
98.375
 10
135.875
 20
97.775
  0
LWPOLYLINE
  5
97
330
17
100
AcDbEntity
  8
SWITCH_CUTOUTS
100
AcDbPolyline
 90
12
 70
1
 10
168.925
 20
97.775
 10
168.925
 20
98.375
 10
169.72500000000002
 20
98.375
 10
169.72500000000002
 20
111.17500000000001
 10
168.925
 20
111.17500000000001
 10
168.925
 20
111.775
 10
154.925
 20
111.775
 10
154.925
 20
111.17500000000001
 10
154.125
 20
111.17500000000001
 10
154.125
 20
98.375
 10
154.925
 20
98.375
 10
154.925
 20
97.775
  0
LWPOLYLINE
  5
98
330
17
100
AcDbEntity
  8
SWITCH_CUTOUTS
100
AcDbPolyline
 90
12
 70
1
 10
187.975
 20
97.775
 10
187.975
 20
98.375
 10
188.775
 20
98.375
 10
188.775
 20
111.17500000000001
 10
187.975
 20
111.17500000000001
 10
187.975
 20
111.775
 10
173.975
 20
111.775
 10
173.975
 20
111.17500000000001
 10
173.17499999999998
 20
111.17500000000001
 10
173.17499999999998
 20
98.375
 10
173.975
 20
98.375
 10
173.975
 20
97.775
  0
LWPOLYLINE
  5
99
330
17
100
AcDbEntity
  8
SWITCH_CUTOUTS
100
AcDbPolyline
 90
12
 70
1
 10
207.025
 20
97.775
 10
207.025
 20
98.375
 10
207.82500000000002
 20
98.375
 10
207.82500000000002
 20
111.17500000000001
 10
207.025
 20
111.17500000000001
 10
207.025
 20
111.775
 10
193.025
 20
111.775
 10
193.025
 20
111.17500000000001
 10
192.225
 20
111.17500000000001
 10
192.225
 20
98.375
 10
193.025
 20
98.375
 10
193.025
 20
97.775
  0
LWPOLYLINE
  5
9A
330
17
100
AcDbEntity
  8
SWITCH_CUTOUTS
100
AcDbPolyline
 90
12
 70
1
 10
226.07500000000002
 20
97.775
 10
226.07500000000002
 20
98.375
 10
226.87500000000003
 20
98.375
 10
226.87500000000003
 20
111.17500000000001
 10
226.07500000000002
 20
111.17500000000001
 10
226.07500000000002
 20
111.775
 10
212.07500000000002
 20
111.775
 10
212.07500000000002
 20
111.17500000000001
 10
211.275
 20
111.17500000000001
 10
211.275
 20
98.375
 10
212.07500000000002
 20
98.375
 10
212.07500000000002
 20
97.775
  0
LWPOLYLINE
  5
9B
330
17
100
AcDbEntity
  8
SWITCH_CUTOUTS
100
AcDbPolyline
 90
12
 70
1
 10
245.125
 20
97.775
 10
245.125
 20
98.375
 10
245.925
 20
98.375
 10
245.925
 20
111.17500000000001
 10
245.125
 20
111.17500000000001
 10
245.125
 20
111.775
 10
231.125
 20
111.775
 10
231.125
 20
111.17500000000001
 10
230.325
 20
111.17500000000001
 10
230.325
 20
98.375
 10
231.125
 20
98.375
 10
231.125
 20
97.775
  0
LWPOLYLINE
  5
9C
330
17
100
AcDbEntity
  8
SWITCH_CUTOUTS
100
AcDbPolyline
 90
12
 70
1
 10
264.175
 20
97.775
 10
264.175
 20
98.375
 10
264.975
 20
98.375
 10
264.975
 20
111.17500000000001
 10
264.175
 20
111.17500000000001
 10
264.175
 20
111.775
 10
250.175
 20
111.775
 10
250.175
 20
111.17500000000001
 10
249.375
 20
111.17500000000001
 10
249.375
 20
98.375
 10
250.175
 20
98.375
 10
250.175
 20
97.775
  0
LWPOLYLINE
  5
9D
330
17
100
AcDbEntity
  8
SWITCH_CUTOUTS
100
AcDbPolyline
 90
12
 70
1
 10
283.225
 20
97.775
 10
283.225
 20
98.375
 10
284.02500000000003
 20
98.375
 10
284.02500000000003
 20
111.17500000000001
 10
283.225
 20
111.17500000000001
 10
283.225
 20
111.775
 10
269.225
 20
111.775
 10
269.225
 20
111.17500000000001
 10
268.425
 20
111.17500000000001
 10
268.425
 20
98.375
 10
269.225
 20
98.375
 10
269.225
 20
97.775
  0
LWPOLYLINE
  5
9E
330
17
100
AcDbEntity
  8
SWITCH_CUTOUTS
100
AcDbPolyline
 90
12
 70
1
 10
302.27500000000003
 20
97.775
 10
302.27500000000003
 20
98.375
 10
303.07500000000005
 20
98.375
 10
303.07500000000005
 20
111.17500000000001
 10
302.27500000000003
 20
111.17500000000001
 10
302.27500000000003
 20
111.775
 10
288.27500000000003
 20
111.775
 10
288.27500000000003
 20
111.17500000000001
 10
287.475
 20
111.17500000000001
 10
287.475
 20
98.375
 10
288.27500000000003
 20
98.375
 10
288.27500000000003
 20
97.775
  0
LWPOLYLINE
  5
9F
330
17
100
AcDbEntity
  8
SWITCH_CUTOUTS
100
AcDbPolyline
 90
12
 70
1
 10
321.325
 20
97.775
 10
321.325
 20
98.375
 10
322.125
 20
98.375
 10
322.125
 20
111.17500000000001
 10
321.325
 20
111.17500000000001
 10
321.325
 20
111.775
 10
307.325
 20
111.775
 10
307.325
 20
111.17500000000001
 10
306.525
 20
111.17500000000001
 10
306.525
 20
98.375
 10
307.325
 20
98.375
 10
307.325
 20
97.775
  0
LWPOLYLINE
  5
A0
330
17
100
AcDbEntity
  8
SWITCH_CUTOUTS
100
AcDbPolyline
 90
12
 70
1
 10
340.375
 20
97.775
 10
340.375
 20
98.375
 10
341.175
 20
98.375
 10
341.175
 20
111.17500000000001
 10
340.375
 20
111.17500000000001
 10
340.375
 20
111.775
 10
326.375
 20
111.775
 10
326.375
 20
111.17500000000001
 10
325.575
 20
111.17500000000001
 10
325.575
 20
98.375
 10
326.375
 20
98.375
 10
326.375
 20
97.775
  0
LWPOLYLINE
  5
A1
330
17
100
AcDbEntity
  8
SWITCH_CUTOUTS
100
AcDbPolyline
 90
12
 70
1
 10
359.425
 20
97.775
 10
359.425
 20
98.375
 10
360.225
 20
98.375
 10
360.225
 20
111.17500000000001
 10
359.425
 20
111.17500000000001
 10
359.425
 20
111.775
 10
345.425
 20
111.775
 10
345.425
 20
111.17500000000001
 10
344.625
 20
111.17500000000001
 10
344.625
 20
98.375
 10
345.425
 20
98.375
 10
345.425
 20
97.775
  0
LWPOLYLINE
  5
A2
330
17
100
AcDbEntity
  8
SWITCH_CUTOUTS
100
AcDbPolyline
 90
12
 70
1
 10
16.525000000000006
 20
78.72500000000001
 10
16.525000000000006
 20
79.325
 10
17.325000000000006
 20
79.325
 10
17.325000000000006
 20
92.12500000000001
 10
16.525000000000006
 20
92.12500000000001
 10
16.525000000000006
 20
92.72500000000001
 10
2.5250000000000075
 20
92.72500000000001
 10
2.5250000000000075
 20
92.12500000000001
 10
1.7250000000000076
 20
92.12500000000001
 10
1.7250000000000076
 20
79.325
 10
2.5250000000000075
 20
79.325
 10
2.5250000000000075
 20
78.72500000000001
  0
LWPOLYLINE
  5
A3
330
17
100
AcDbEntity
  8
SWITCH_CUTOUTS
100
AcDbPolyline
 90
12
 70
1
 10
35.57500000000001
 20
78.72500000000001
 10
35.57500000000001
 20
79.325
 10
36.37500000000001
 20
79.325
 10
36.37500000000001
 20
92.12500000000001
 10
35.57500000000001
 20
92.12500000000001
 10
35.57500000000001
 20
92.72500000000001
 10
21.57500000000001
 20
92.72500000000001
 10
21.57500000000001
 20
92.12500000000001
 10
20.77500000000001
 20
92.12500000000001
 10
20.77500000000001
 20
79.325
 10
21.57500000000001
 20
79.325
 10
21.57500000000001
 20
78.72500000000001
  0
LWPOLYLINE
  5
A4
330
17
100
AcDbEntity
  8
SWITCH_CUTOUTS
100
AcDbPolyline
 90
12
 70
1
 10
54.62500000000001
 20
78.72500000000001
 10
54.62500000000001
 20
79.325
 10
55.425000000000004
 20
79.325
 10
55.425000000000004
 20
92.12500000000001
 10
54.62500000000001
 20
92.12500000000001
 10
54.62500000000001
 20
92.72500000000001
 10
40.62500000000001
 20
92.72500000000001
 10
40.62500000000001
 20
92.12500000000001
 10
39.82500000000001
 20
92.12500000000001
 10
39.82500000000001
 20
79.325
 10
40.62500000000001
 20
79.325
 10
40.62500000000001
 20
78.72500000000001
  0
LWPOLYLINE
  5
A5
330
17
100
AcDbEntity
  8
SWITCH_CUTOUTS
100
AcDbPolyline
 90
12
 70
1
 10
73.67500000000001
 20
78.72500000000001
 10
73.67500000000001
 20
79.325
 10
74.475
 20
79.325
 10
74.475
 20
92.12500000000001
 10
73.67500000000001
 20
92.12500000000001
 10
73.67500000000001
 20
92.72500000000001
 10
59.675000000000004
 20
92.72500000000001
 10
59.675000000000004
 20
92.12500000000001
 10
58.87500000000001
 20
92.12500000000001
 10
58.87500000000001
 20
79.325
 10
59.675000000000004
 20
79.325
 10
59.675000000000004
 20
78.72500000000001
  0
LWPOLYLINE
  5
A6
330
17
100
AcDbEntity
  8
SWITCH_CUTOUTS
100
AcDbPolyline
 90
12
 70
1
 10
92.72500000000002
 20
78.72500000000001
 10
92.72500000000002
 20
79.325
 10
93.525
 20
79.325
 10
93.525
 20
92.12500000000001
 10
92.72500000000002
 20
92.12500000000001
 10
92.72500000000002
 20
92.72500000000001
 10
78.72500000000002
 20
92.72500000000001
 10
78.72500000000002
 20
92.12500000000001
 10
77.92500000000001
 20
92.12500000000001
 10
77.92500000000001
 20
79.325
 10
78.72500000000002
 20
79.325
 10
78.72500000000002
 20
78.72500000000001
  0
LWPOLYLINE
  5
A7
330
17
100
AcDbEntity
  8
SWITCH_CUTOUTS
100
AcDbPolyline
 90
12
 70
1
 10
111.775
 20
78.72500000000001
 10
111.775
 20
79.325
 10
112.57500000000002
 20
79.325
 10
112.57500000000002
 20
92.12500000000001
 10
111.775
 20
92.12500000000001
 10
111.775
 20
92.72500000000001
 10
97.775
 20
92.72500000000001
 10
97.775
 20
92.12500000000001
 10
96.97500000000002
 20
92.12500000000001
 10
96.97500000000002
 20
79.325
 10
97.775
 20
79.325
 10
97.775
 20
78.72500000000001
  0
LWPOLYLINE
  5
A8
330
17
100
AcDbEntity
  8
SWITCH_CUTOUTS
100
AcDbPolyline
 90
12
 70
1
 10
130.825
 20
78.72500000000001
 10
130.825
 20
79.325
 10
131.625
 20
79.325
 10
131.625
 20
92.12500000000001
 10
130.825
 20
92.12500000000001
 10
130.825
 20
92.72500000000001
 10
116.82500000000002
 20
92.72500000000001
 10
116.82500000000002
 20
92.12500000000001
 10
116.025
 20
92.12500000000001
 10
116.025
 20
79.325
 10
116.82500000000002
 20
79.325
 10
116.82500000000002
 20
78.72500000000001
  0
LWPOLYLINE
  5
A9
330
17
100
AcDbEntity
  8
SWITCH_CUTOUTS
100
AcDbPolyline
 90
12
 70
1
 10
149.875
 20
78.72500000000001
 10
149.875
 20
79.325
 10
150.675
 20
79.325
 10
150.675
 20
92.12500000000001
 10
149.875
 20
92.12500000000001
 10
149.875
 20
92.72500000000001
 10
135.875
 20
92.72500000000001
 10
135.875
 20
92.12500000000001
 10
135.075
 20
92.12500000000001
 10
135.075
 20
79.325
 10
135.875
 20
79.325
 10
135.875
 20
78.72500000000001
  0
LWPOLYLINE
  5
AA
330
17
100
AcDbEntity
  8
SWITCH_CUTOUTS
100
AcDbPolyline
 90
12
 70
1
 10
168.925
 20
78.72500000000001
 10
168.925
 20
79.325
 10
169.72500000000002
 20
79.325
 10
169.72500000000002
 20
92.12500000000001
 10
168.925
 20
92.12500000000001
 10
168.925
 20
92.72500000000001
 10
154.925
 20
92.72500000000001
 10
154.925
 20
92.12500000000001
 10
154.125
 20
92.12500000000001
 10
154.125
 20
79.325
 10
154.925
 20
79.325
 10
154.925
 20
78.72500000000001
  0
LWPOLYLINE
  5
AB
330
17
100
AcDbEntity
  8
SWITCH_CUTOUTS
100
AcDbPolyline
 90
12
 70
1
 10
187.975
 20
78.72500000000001
 10
187.975
 20
79.325
 10
188.775
 20
79.325
 10
188.775
 20
92.12500000000001
 10
187.975
 20
92.12500000000001
 10
187.975
 20
92.72500000000001
 10
173.975
 20
92.72500000000001
 10
173.975
 20
92.12500000000001
 10
173.17499999999998
 20
92.12500000000001
 10
173.17499999999998
 20
79.325
 10
173.975
 20
79.325
 10
173.975
 20
78.72500000000001
  0
LWPOLYLINE
  5
AC
330
17
100
AcDbEntity
  8
SWITCH_CUTOUTS
100
AcDbPolyline
 90
12
 70
1
 10
207.025
 20
78.72500000000001
 10
207.025
 20
79.325
 10
207.82500000000002
 20
79.325
 10
207.82500000000002
 20
92.12500000000001
 10
207.025
 20
92.12500000000001
 10
207.025
 20
92.72500000000001
 10
193.025
 20
92.72500000000001
 10
193.025
 20
92.12500000000001
 10
192.225
 20
92.12500000000001
 10
192.225
 20
79.325
 10
193.025
 20
79.325
 10
193.025
 20
78.72500000000001
  0
LWPOLYLINE
  5
AD
330
17
100
AcDbEntity
  8
SWITCH_CUTOUTS
100
AcDbPolyline
 90
12
 70
1
 10
226.07500000000002
 20
78.72500000000001
 10
226.07500000000002
 20
79.325
 10
226.87500000000003
 20
79.325
 10
226.87500000000003
 20
92.12500000000001
 10
226.07500000000002
 20
92.12500000000001
 10
226.07500000000002
 20
92.72500000000001
 10
212.07500000000002
 20
92.72500000000001
 10
212.07500000000002
 20
92.12500000000001
 10
211.275
 20
92.12500000000001
 10
211.275
 20
79.325
 10
212.07500000000002
 20
79.325
 10
212.07500000000002
 20
78.72500000000001
  0
LWPOLYLINE
  5
AE
330
17
100
AcDbEntity
  8
SWITCH_CUTOUTS
100
AcDbPolyline
 90
12
 70
1
 10
245.125
 20
78.72500000000001
 10
245.125
 20
79.325
 10
245.925
 20
79.325
 10
245.925
 20
92.12500000000001
 10
245.125
 20
92.12500000000001
 10
245.125
 20
92.72500000000001
 10
231.125
 20
92.72500000000001
 10
231.125
 20
92.12500000000001
 10
230.325
 20
92.12500000000001
 10
230.325
 20
79.325
 10
231.125
 20
79.325
 10
231.125
 20
78.72500000000001
  0
LWPOLYLINE
  5
AF
330
17
100
AcDbEntity
  8
SWITCH_CUTOUTS
100
AcDbPolyline
 90
52
 70
1
 10
273.7
 20
78.72500000000001
 10
259.7
 20
78.72500000000001
 10
259.7
 20
79.325
 10
258.9
 20
79.325
 10
258.9
 20
80.995
 10
258.125
 20
80.995
 10
258.125
 20
80.19500000000001
 10
256.4
 20
80.19500000000001
 10
256.4
 20
79.275
 10
253.1
 20
79.275
 10
253.1
 20
80.19500000000001
 10
251.475
 20
80.19500000000001
 10
251.475
 20
83.42500000000001
 10
250.6
 20
83.42500000000001
 10
250.6
 20
86.22500000000001
 10
251.475
 20
86.22500000000001
 10
251.475
 20
92.495
 10
253.1
 20
92.495
 10
253.1
 20
93.47500000000001
 10
256.4
 20
93.47500000000001
 10
256.4
 20
92.495
 10
258.125
 20
92.495
 10
258.125
 20
91.69500000000001
 10
258.9
 20
91.69500000000001
 10
258.9
 20
92.12500000000001
 10
259.7
 20
92.12500000000001
 10
259.7
 20
92.72500000000001
 10
273.7
 20
92.72500000000001
 10
273.7
 20
92.12500000000001
 10
274.5
 20
92.12500000000001
 10
274.5
 20
91.69500000000001
 10
275.275
 20
91.69500000000001
 10
275.275
 20
92.495
 10
277.0
 20
92.495
 10
277.0
 20
93.47500000000001
 10
280.3
 20
93.47500000000001
 10
280.3
 20
92.495
 10
281.925
 20
92.495
 10
281.925
 20
86.22500000000001
 10
282.8
 20
86.22500000000001
 10
282.8
 20
83.42500000000001
 10
281.925
 20
83.42500000000001
 10
281.925
 20
80.19500000000001
 10
280.3
 20
80.19500000000001
 10
280.3
 20
79.275
 10
277.0
 20
79.275
 10
277.0
 20
80.19500000000001
 10
275.275
 20
80.19500000000001
 10
275.275
 20
80.995
 10
274.5
 20
80.995
 10
274.5
 20
79.325
 10
273.7
 20
79.325
  0
LWPOLYLINE
  5
B0
330
17
100
AcDbEntity
  8
SWITCH_CUTOUTS
100
AcDbPolyline
 90
12
 70
1
 10
302.27500000000003
 20
78.72500000000001
 10
302.27500000000003
 20
79.325
 10
303.07500000000005
 20
79.325
 10
303.07500000000005
 20
92.12500000000001
 10
302.27500000000003
 20
92.12500000000001
 10
302.27500000000003
 20
92.72500000000001
 10
288.27500000000003
 20
92.72500000000001
 10
288.27500000000003
 20
92.12500000000001
 10
287.475
 20
92.12500000000001
 10
287.475
 20
79.325
 10
288.27500000000003
 20
79.325
 10
288.27500000000003
 20
78.72500000000001
  0
LWPOLYLINE
  5
B1
330
17
100
AcDbEntity
  8
SWITCH_CUTOUTS
100
AcDbPolyline
 90
12
 70
1
 10
321.325
 20
78.72500000000001
 10
321.325
 20
79.325
 10
322.125
 20
79.325
 10
322.125
 20
92.12500000000001
 10
321.325
 20
92.12500000000001
 10
321.325
 20
92.72500000000001
 10
307.325
 20
92.72500000000001
 10
307.325
 20
92.12500000000001
 10
306.525
 20
92.12500000000001
 10
306.525
 20
79.325
 10
307.325
 20
79.325
 10
307.325
 20
78.72500000000001
  0
LWPOLYLINE
  5
B2
330
17
100
AcDbEntity
  8
SWITCH_CUTOUTS
100
AcDbPolyline
 90
12
 70
1
 10
340.375
 20
78.72500000000001
 10
340.375
 20
79.325
 10
341.175
 20
79.325
 10
341.175
 20
92.12500000000001
 10
340.375
 20
92.12500000000001
 10
340.375
 20
92.72500000000001
 10
326.375
 20
92.72500000000001
 10
326.375
 20
92.12500000000001
 10
325.575
 20
92.12500000000001
 10
325.575
 20
79.325
 10
326.375
 20
79.325
 10
326.375
 20
78.72500000000001
  0
LWPOLYLINE
  5
B3
330
17
100
AcDbEntity
  8
SWITCH_CUTOUTS
100
AcDbPolyline
 90
12
 70
1
 10
359.425
 20
78.72500000000001
 10
359.425
 20
79.325
 10
360.225
 20
79.325
 10
360.225
 20
92.12500000000001
 10
359.425
 20
92.12500000000001
 10
359.425
 20
92.72500000000001
 10
345.425
 20
92.72500000000001
 10
345.425
 20
92.12500000000001
 10
344.625
 20
92.12500000000001
 10
344.625
 20
79.325
 10
345.425
 20
79.325
 10
345.425
 20
78.72500000000001
  0
LWPOLYLINE
  5
B4
330
17
100
AcDbEntity
  8
SWITCH_CUTOUTS
100
AcDbPolyline
 90
12
 70
1
 10
21.28750000000001
 20
59.675
 10
21.28750000000001
 20
60.275
 10
22.08750000000001
 20
60.275
 10
22.08750000000001
 20
73.075
 10
21.28750000000001
 20
73.075
 10
21.28750000000001
 20
73.675
 10
7.2875000000000085
 20
73.675
 10
7.2875000000000085
 20
73.075
 10
6.487500000000009
 20
73.075
 10
6.487500000000009
 20
60.275
 10
7.2875000000000085
 20
60.275
 10
7.2875000000000085
 20
59.675
  0
LWPOLYLINE
  5
B5
330
17
100
AcDbEntity
  8
SWITCH_CUTOUTS
100
AcDbPolyline
 90
12
 70
1
 10
45.10000000000001
 20
59.675
 10
45.10000000000001
 20
60.275
 10
45.900000000000006
 20
60.275
 10
45.900000000000006
 20
73.075
 10
45.10000000000001
 20
73.075
 10
45.10000000000001
 20
73.675
 10
31.10000000000001
 20
73.675
 10
31.10000000000001
 20
73.075
 10
30.300000000000008
 20
73.075
 10
30.300000000000008
 20
60.275
 10
31.10000000000001
 20
60.275
 10
31.10000000000001
 20
59.675
  0
LWPOLYLINE
  5
B6
330
17
100
AcDbEntity
  8
SWITCH_CUTOUTS
100
AcDbPolyline
 90
12
 70
1
 10
64.15
 20
59.675
 10
64.15
 20
60.275
 10
64.95000000000002
 20
60.275
 10
64.95000000000002
 20
73.075
 10
64.15
 20
73.075
 10
64.15
 20
73.675
 10
50.15000000000001
 20
73.675
 10
50.15000000000001
 20
73.075
 10
49.350000000000016
 20
73.075
 10
49.350000000000016
 20
60.275
 10
50.15000000000001
 20
60.275
 10
50.15000000000001
 20
59.675
  0
LWPOLYLINE
  5
B7
330
17
100
AcDbEntity
  8
SWITCH_CUTOUTS
100
AcDbPolyline
 90
12
 70
1
 10
83.20000000000002
 20
59.675
 10
83.20000000000002
 20
60.275
 10
84.0
 20
60.275
 10
84.0
 20
73.075
 10
83.20000000000002
 20
73.075
 10
83.20000000000002
 20
73.675
 10
69.20000000000002
 20
73.675
 10
69.20000000000002
 20
73.075
 10
68.4
 20
73.075
 10
68.4
 20
60.275
 10
69.20000000000002
 20
60.275
 10
69.20000000000002
 20
59.675
  0
LWPOLYLINE
  5
B8
330
17
100
AcDbEntity
  8
SWITCH_CUTOUTS
100
AcDbPolyline
 90
12
 70
1
 10
102.25
 20
59.675
 10
102.25
 20
60.275
 10
103.05000000000001
 20
60.275
 10
103.05000000000001
 20
73.075
 10
102.25
 20
73.075
 10
102.25
 20
73.675
 10
88.25
 20
73.675
 10
88.25
 20
73.075
 10
87.45000000000002
 20
73.075
 10
87.45000000000002
 20
60.275
 10
88.25
 20
60.275
 10
88.25
 20
59.675
  0
LWPOLYLINE
  5
B9
330
17
100
AcDbEntity
  8
SWITCH_CUTOUTS
100
AcDbPolyline
 90
12
 70
1
 10
121.30000000000001
 20
59.675
 10
121.30000000000001
 20
60.275
 10
122.10000000000002
 20
60.275
 10
122.10000000000002
 20
73.075
 10
121.30000000000001
 20
73.075
 10
121.30000000000001
 20
73.675
 10
107.30000000000001
 20
73.675
 10
107.30000000000001
 20
73.075
 10
106.50000000000003
 20
73.075
 10
106.50000000000003
 20
60.275
 10
107.30000000000001
 20
60.275
 10
107.30000000000001
 20
59.675
  0
LWPOLYLINE
  5
BA
330
17
100
AcDbEntity
  8
SWITCH_CUTOUTS
100
AcDbPolyline
 90
12
 70
1
 10
140.35
 20
59.675
 10
140.35
 20
60.275
 10
141.15
 20
60.275
 10
141.15
 20
73.075
 10
140.35
 20
73.075
 10
140.35
 20
73.675
 10
126.35
 20
73.675
 10
126.35
 20
73.075
 10
125.55000000000001
 20
73.075
 10
125.55000000000001
 20
60.275
 10
126.35
 20
60.275
 10
126.35
 20
59.675
  0
LWPOLYLINE
  5
BB
330
17
100
AcDbEntity
  8
SWITCH_CUTOUTS
100
AcDbPolyline
 90
12
 70
1
 10
159.4
 20
59.675
 10
159.4
 20
60.275
 10
160.20000000000002
 20
60.275
 10
160.20000000000002
 20
73.075
 10
159.4
 20
73.075
 10
159.4
 20
73.675
 10
145.4
 20
73.675
 10
145.4
 20
73.075
 10
144.6
 20
73.075
 10
144.6
 20
60.275
 10
145.4
 20
60.275
 10
145.4
 20
59.675
  0
LWPOLYLINE
  5
BC
330
17
100
AcDbEntity
  8
SWITCH_CUTOUTS
100
AcDbPolyline
 90
12
 70
1
 10
178.45000000000002
 20
59.675
 10
178.45000000000002
 20
60.275
 10
179.25000000000003
 20
60.275
 10
179.25000000000003
 20
73.075
 10
178.45000000000002
 20
73.075
 10
178.45000000000002
 20
73.675
 10
164.45000000000002
 20
73.675
 10
164.45000000000002
 20
73.075
 10
163.65
 20
73.075
 10
163.65
 20
60.275
 10
164.45000000000002
 20
60.275
 10
164.45000000000002
 20
59.675
  0
LWPOLYLINE
  5
BD
330
17
100
AcDbEntity
  8
SWITCH_CUTOUTS
100
AcDbPolyline
 90
12
 70
1
 10
197.5
 20
59.675
 10
197.5
 20
60.275
 10
198.3
 20
60.275
 10
198.3
 20
73.075
 10
197.5
 20
73.075
 10
197.5
 20
73.675
 10
183.5
 20
73.675
 10
183.5
 20
73.075
 10
182.7
 20
73.075
 10
182.7
 20
60.275
 10
183.5
 20
60.275
 10
183.5
 20
59.675
  0
LWPOLYLINE
  5
BE
330
17
100
AcDbEntity
  8
SWITCH_CUTOUTS
100
AcDbPolyline
 90
12
 70
1
 10
216.55
 20
59.675
 10
216.55
 20
60.275
 10
217.35000000000002
 20
60.275
 10
217.35000000000002
 20
73.075
 10
216.55
 20
73.075
 10
216.55
 20
73.675
 10
202.55
 20
73.675
 10
202.55
 20
73.075
 10
201.75
 20
73.075
 10
201.75
 20
60.275
 10
202.55
 20
60.275
 10
202.55
 20
59.675
  0
LWPOLYLINE
  5
BF
330
17
100
AcDbEntity
  8
SWITCH_CUTOUTS
100
AcDbPolyline
 90
12
 70
1
 10
235.60000000000002
 20
59.675
 10
235.60000000000002
 20
60.275
 10
236.40000000000003
 20
60.275
 10
236.40000000000003
 20
73.075
 10
235.60000000000002
 20
73.075
 10
235.60000000000002
 20
73.675
 10
221.60000000000002
 20
73.675
 10
221.60000000000002
 20
73.075
 10
220.8
 20
73.075
 10
220.8
 20
60.275
 10
221.60000000000002
 20
60.275
 10
221.60000000000002
 20
59.675
  0
LWPOLYLINE
  5
C0
330
17
100
AcDbEntity
  8
SWITCH_CUTOUTS
100
AcDbPolyline
 90
12
 70
1
 10
254.65
 20
59.675
 10
254.65
 20
60.275
 10
255.45000000000002
 20
60.275
 10
255.45000000000002
 20
73.075
 10
254.65
 20
73.075
 10
254.65
 20
73.675
 10
240.65
 20
73.675
 10
240.65
 20
73.075
 10
239.85
 20
73.075
 10
239.85
 20
60.275
 10
240.65
 20
60.275
 10
240.65
 20
59.675
  0
LWPOLYLINE
  5
C1
330
17
100
AcDbEntity
  8
SWITCH_CUTOUTS
100
AcDbPolyline
 90
12
 70
1
 10
278.46250000000003
 20
59.675
 10
278.46250000000003
 20
60.275
 10
279.26250000000005
 20
60.275
 10
279.26250000000005
 20
73.075
 10
278.46250000000003
 20
73.075
 10
278.46250000000003
 20
73.675
 10
264.46250000000003
 20
73.675
 10
264.46250000000003
 20
73.075
 10
263.6625
 20
73.075
 10
263.6625
 20
60.275
 10
264.46250000000003
 20
60.275
 10
264.46250000000003
 20
59.675
  0
LWPOLYLINE
  5
C2
330
17
100
AcDbEntity
  8
SWITCH_CUTOUTS
100
AcDbPolyline
 90
12
 70
1
 10
302.27500000000003
 20
59.675
 10
302.27500000000003
 20
60.275
 10
303.07500000000005
 20
60.275
 10
303.07500000000005
 20
73.075
 10
302.27500000000003
 20
73.075
 10
302.27500000000003
 20
73.675
 10
288.27500000000003
 20
73.675
 10
288.27500000000003
 20
73.075
 10
287.475
 20
73.075
 10
287.475
 20
60.275
 10
288.27500000000003
 20
60.275
 10
288.27500000000003
 20
59.675
  0
LWPOLYLINE
  5
C3
330
17
100
AcDbEntity
  8
SWITCH_CUTOUTS
100
AcDbPolyline
 90
12
 70
1
 10
321.325
 20
59.675
 10
321.325
 20
60.275
 10
322.125
 20
60.275
 10
322.125
 20
73.075
 10
321.325
 20
73.075
 10
321.325
 20
73.675
 10
307.325
 20
73.675
 10
307.325
 20
73.075
 10
306.525
 20
73.075
 10
306.525
 20
60.275
 10
307.325
 20
60.275
 10
307.325
 20
59.675
  0
LWPOLYLINE
  5
C4
330
17
100
AcDbEntity
  8
SWITCH_CUTOUTS
100
AcDbPolyline
 90
12
 70
1
 10
340.375
 20
59.675
 10
340.375
 20
60.275
 10
341.175
 20
60.275
 10
341.175
 20
73.075
 10
340.375
 20
73.075
 10
340.375
 20
73.675
 10
326.375
 20
73.675
 10
326.375
 20
73.075
 10
325.575
 20
73.075
 10
325.575
 20
60.275
 10
326.375
 20
60.275
 10
326.375
 20
59.675
  0
LWPOLYLINE
  5
C5
330
17
100
AcDbEntity
  8
SWITCH_CUTOUTS
100
AcDbPolyline
 90
52
 70
1
 10
359.425
 20
64.15
 10
359.425
 20
63.550000000000004
 10
360.225
 20
63.550000000000004
 10
360.225
 20
50.75000000000001
 10
359.425
 20
50.75000000000001
 10
359.425
 20
50.150000000000006
 10
357.15500000000003
 20
50.150000000000006
 10
357.15500000000003
 20
48.575
 10
357.955
 20
48.575
 10
357.955
 20
46.85000000000001
 10
358.875
 20
46.85000000000001
 10
358.875
 20
43.550000000000004
 10
357.955
 20
43.550000000000004
 10
357.955
 20
41.925000000000004
 10
354.725
 20
41.925000000000004
 10
354.725
 20
41.050000000000004
 10
351.925
 20
41.050000000000004
 10
351.925
 20
41.925000000000004
 10
345.65500000000003
 20
41.925000000000004
 10
345.65500000000003
 20
43.550000000000004
 10
344.675
 20
43.550000000000004
 10
344.675
 20
46.85000000000001
 10
345.65500000000003
 20
46.85000000000001
 10
345.65500000000003
 20
48.575
 10
346.455
 20
48.575
 10
346.455
 20
50.150000000000006
 10
345.425
 20
50.150000000000006
 10
345.425
 20
50.75000000000001
 10
344.625
 20
50.75000000000001
 10
344.625
 20
63.550000000000004
 10
345.425
 20
63.550000000000004
 10
345.425
 20
64.15
 10
346.455
 20
64.15
 10
346.455
 20
65.72500000000001
 10
345.65500000000003
 20
65.72500000000001
 10
345.65500000000003
 20
67.45
 10
344.675
 20
67.45
 10
344.675
 20
70.75
 10
345.65500000000003
 20
70.75
 10
345.65500000000003
 20
72.375
 10
351.925
 20
72.375
 10
351.925
 20
73.25
 10
354.725
 20
73.25
 10
354.725
 20
72.375
 10
357.955
 20
72.375
 10
357.955
 20
70.75
 10
358.875
 20
70.75
 10
358.875
 20
67.45
 10
357.955
 20
67.45
 10
357.955
 20
65.72500000000001
 10
357.15500000000003
 20
65.72500000000001
 10
357.15500000000003
 20
64.15
  0
LWPOLYLINE
  5
C6
330
17
100
AcDbEntity
  8
SWITCH_CUTOUTS
100
AcDbPolyline
 90
12
 70
1
 10
23.668750000000006
 20
40.625
 10
23.668750000000006
 20
41.225
 10
24.468750000000007
 20
41.225
 10
24.468750000000007
 20
54.025
 10
23.668750000000006
 20
54.025
 10
23.668750000000006
 20
54.625
 10
9.668750000000006
 20
54.625
 10
9.668750000000006
 20
54.025
 10
8.868750000000006
 20
54.025
 10
8.868750000000006
 20
41.225
 10
9.668750000000006
 20
41.225
 10
9.668750000000006
 20
40.625
  0
LWPOLYLINE
  5
C7
330
17
100
AcDbEntity
  8
SWITCH_CUTOUTS
100
AcDbPolyline
 90
12
 70
1
 10
49.86250000000001
 20
40.625
 10
49.86250000000001
 20
41.225
 10
50.66250000000001
 20
41.225
 10
50.66250000000001
 20
54.025
 10
49.86250000000001
 20
54.025
 10
49.86250000000001
 20
54.625
 10
35.86250000000001
 20
54.625
 10
35.86250000000001
 20
54.025
 10
35.062500000000014
 20
54.025
 10
35.062500000000014
 20
41.225
 10
35.86250000000001
 20
41.225
 10
35.86250000000001
 20
40.625
  0
LWPOLYLINE
  5
C8
330
17
100
AcDbEntity
  8
SWITCH_CUTOUTS
100
AcDbPolyline
 90
12
 70
1
 10
68.9125
 20
40.625
 10
68.9125
 20
41.225
 10
69.7125
 20
41.225
 10
69.7125
 20
54.025
 10
68.9125
 20
54.025
 10
68.9125
 20
54.625
 10
54.91250000000001
 20
54.625
 10
54.91250000000001
 20
54.025
 10
54.11250000000001
 20
54.025
 10
54.11250000000001
 20
41.225
 10
54.91250000000001
 20
41.225
 10
54.91250000000001
 20
40.625
  0
LWPOLYLINE
  5
C9
330
17
100
AcDbEntity
  8
SWITCH_CUTOUTS
100
AcDbPolyline
 90
12
 70
1
 10
87.9625
 20
40.625
 10
87.9625
 20
41.225
 10
88.76250000000002
 20
41.225
 10
88.76250000000002
 20
54.025
 10
87.9625
 20
54.025
 10
87.9625
 20
54.625
 10
73.9625
 20
54.625
 10
73.9625
 20
54.025
 10
73.16250000000002
 20
54.025
 10
73.16250000000002
 20
41.225
 10
73.9625
 20
41.225
 10
73.9625
 20
40.625
  0
LWPOLYLINE
  5
CA
330
17
100
AcDbEntity
  8
SWITCH_CUTOUTS
100
AcDbPolyline
 90
12
 70
1
 10
107.01250000000002
 20
40.625
 10
107.01250000000002
 20
41.225
 10
107.8125
 20
41.225
 10
107.8125
 20
54.025
 10
107.01250000000002
 20
54.025
 10
107.01250000000002
 20
54.625
 10
93.01250000000002
 20
54.625
 10
93.01250000000002
 20
54.025
 10
92.2125
 20
54.025
 10
92.2125
 20
41.225
 10
93.01250000000002
 20
41.225
 10
93.01250000000002
 20
40.625
  0
LWPOLYLINE
  5
CB
330
17
100
AcDbEntity
  8
SWITCH_CUTOUTS
100
AcDbPolyline
 90
12
 70
1
 10
126.0625
 20
40.625
 10
126.0625
 20
41.225
 10
126.86250000000001
 20
41.225
 10
126.86250000000001
 20
54.025
 10
126.0625
 20
54.025
 10
126.0625
 20
54.625
 10
112.0625
 20
54.625
 10
112.0625
 20
54.025
 10
111.26250000000002
 20
54.025
 10
111.26250000000002
 20
41.225
 10
112.0625
 20
41.225
 10
112.0625
 20
40.625
  0
LWPOLYLINE
  5
CC
330
17
100
AcDbEntity
  8
SWITCH_CUTOUTS
100
AcDbPolyline
 90
12
 70
1
 10
145.1125
 20
40.625
 10
145.1125
 20
41.225
 10
145.91250000000002
 20
41.225
 10
145.91250000000002
 20
54.025
 10
145.1125
 20
54.025
 10
145.1125
 20
54.625
 10
131.1125
 20
54.625
 10
131.1125
 20
54.025
 10
130.3125
 20
54.025
 10
130.3125
 20
41.225
 10
131.1125
 20
41.225
 10
131.1125
 20
40.625
  0
LWPOLYLINE
  5
CD
330
17
100
AcDbEntity
  8
SWITCH_CUTOUTS
100
AcDbPolyline
 90
12
 70
1
 10
164.1625
 20
40.625
 10
164.1625
 20
41.225
 10
164.9625
 20
41.225
 10
164.9625
 20
54.025
 10
164.1625
 20
54.025
 10
164.1625
 20
54.625
 10
150.1625
 20
54.625
 10
150.1625
 20
54.025
 10
149.36249999999998
 20
54.025
 10
149.36249999999998
 20
41.225
 10
150.1625
 20
41.225
 10
150.1625
 20
40.625
  0
LWPOLYLINE
  5
CE
330
17
100
AcDbEntity
  8
SWITCH_CUTOUTS
100
AcDbPolyline
 90
12
 70
1
 10
183.2125
 20
40.625
 10
183.2125
 20
41.225
 10
184.01250000000002
 20
41.225
 10
184.01250000000002
 20
54.025
 10
183.2125
 20
54.025
 10
183.2125
 20
54.625
 10
169.2125
 20
54.625
 10
169.2125
 20
54.025
 10
168.4125
 20
54.025
 10
168.4125
 20
41.225
 10
169.2125
 20
41.225
 10
169.2125
 20
40.625
  0
LWPOLYLINE
  5
CF
330
17
100
AcDbEntity
  8
SWITCH_CUTOUTS
100
AcDbPolyline
 90
12
 70
1
 10
202.26250000000002
 20
40.625
 10
202.26250000000002
 20
41.225
 10
203.06250000000003
 20
41.225
 10
203.06250000000003
 20
54.025
 10
202.26250000000002
 20
54.025
 10
202.26250000000002
 20
54.625
 10
188.26250000000002
 20
54.625
 10
188.26250000000002
 20
54.025
 10
187.4625
 20
54.025
 10
187.4625
 20
41.225
 10
188.26250000000002
 20
41.225
 10
188.26250000000002
 20
40.625
  0
LWPOLYLINE
  5
D0
330
17
100
AcDbEntity
  8
SWITCH_CUTOUTS
100
AcDbPolyline
 90
12
 70
1
 10
221.3125
 20
40.625
 10
221.3125
 20
41.225
 10
222.1125
 20
41.225
 10
222.1125
 20
54.025
 10
221.3125
 20
54.025
 10
221.3125
 20
54.625
 10
207.3125
 20
54.625
 10
207.3125
 20
54.025
 10
206.5125
 20
54.025
 10
206.5125
 20
41.225
 10
207.3125
 20
41.225
 10
207.3125
 20
40.625
  0
LWPOLYLINE
  5
D1
330
17
100
AcDbEntity
  8
SWITCH_CUTOUTS
100
AcDbPolyline
 90
12
 70
1
 10
240.3625
 20
40.625
 10
240.3625
 20
41.225
 10
241.16250000000002
 20
41.225
 10
241.16250000000002
 20
54.025
 10
240.3625
 20
54.025
 10
240.3625
 20
54.625
 10
226.3625
 20
54.625
 10
226.3625
 20
54.025
 10
225.5625
 20
54.025
 10
225.5625
 20
41.225
 10
226.3625
 20
41.225
 10
226.3625
 20
40.625
  0
LWPOLYLINE
  5
D2
330
17
100
AcDbEntity
  8
SWITCH_CUTOUTS
100
AcDbPolyline
 90
52
 70
1
 10
271.31875
 20
40.625
 10
257.31875
 20
40.625
 10
257.31875
 20
41.225
 10
256.51875
 20
41.225
 10
256.51875
 20
42.894999999999996
 10
255.74375000000003
 20
42.894999999999996
 10
255.74375000000003
 20
42.095
 10
254.01875
 20
42.095
 10
254.01875
 20
41.175
 10
250.71875000000003
 20
41.175
 10
250.71875000000003
 20
42.095
 10
249.09375000000003
 20
42.095
 10
249.09375000000003
 20
45.325
 10
248.21875000000003
 20
45.325
 10
248.21875000000003
 20
48.125
 10
249.09375000000003
 20
48.125
 10
249.09375000000003
 20
54.394999999999996
 10
250.71875000000003
 20
54.394999999999996
 10
250.71875000000003
 20
55.375
 10
254.01875
 20
55.375
 10
254.01875
 20
54.394999999999996
 10
255.74375000000003
 20
54.394999999999996
 10
255.74375000000003
 20
53.595
 10
256.51875
 20
53.595
 10
256.51875
 20
54.025
 10
257.31875
 20
54.025
 10
257.31875
 20
54.625
 10
271.31875
 20
54.625
 10
271.31875
 20
54.025
 10
272.11875000000003
 20
54.025
 10
272.11875000000003
 20
53.595
 10
272.89375
 20
53.595
 10
272.89375
 20
54.394999999999996
 10
274.61875000000003
 20
54.394999999999996
 10
274.61875000000003
 20
55.375
 10
277.91875000000005
 20
55.375
 10
277.91875000000005
 20
54.394999999999996
 10
279.54375000000005
 20
54.394999999999996
 10
279.54375000000005
 20
48.125
 10
280.41875000000005
 20
48.125
 10
280.41875000000005
 20
45.325
 10
279.54375000000005
 20
45.325
 10
279.54375000000005
 20
42.095
 10
277.91875000000005
 20
42.095
 10
277.91875000000005
 20
41.175
 10
274.61875000000003
 20
41.175
 10
274.61875000000003
 20
42.095
 10
272.89375
 20
42.095
 10
272.89375
 20
42.894999999999996
 10
272.11875000000003
 20
42.894999999999996
 10
272.11875000000003
 20
41.225
 10
271.31875
 20
41.225
  0
LWPOLYLINE
  5
D3
330
17
100
AcDbEntity
  8
SWITCH_CUTOUTS
100
AcDbPolyline
 90
12
 70
1
 10
302.27500000000003
 20
40.625
 10
302.27500000000003
 20
41.225
 10
303.07500000000005
 20
41.225
 10
303.07500000000005
 20
54.025
 10
302.27500000000003
 20
54.025
 10
302.27500000000003
 20
54.625
 10
288.27500000000003
 20
54.625
 10
288.27500000000003
 20
54.025
 10
287.475
 20
54.025
 10
287.475
 20
41.225
 10
288.27500000000003
 20
41.225
 10
288.27500000000003
 20
40.625
  0
LWPOLYLINE
  5
D4
330
17
100
AcDbEntity
  8
SWITCH_CUTOUTS
100
AcDbPolyline
 90
12
 70
1
 10
321.325
 20
40.625
 10
321.325
 20
41.225
 10
322.125
 20
41.225
 10
322.125
 20
54.025
 10
321.325
 20
54.025
 10
321.325
 20
54.625
 10
307.325
 20
54.625
 10
307.325
 20
54.025
 10
306.525
 20
54.025
 10
306.525
 20
41.225
 10
307.325
 20
41.225
 10
307.325
 20
40.625
  0
LWPOLYLINE
  5
D5
330
17
100
AcDbEntity
  8
SWITCH_CUTOUTS
100
AcDbPolyline
 90
12
 70
1
 10
340.375
 20
40.625
 10
340.375
 20
41.225
 10
341.175
 20
41.225
 10
341.175
 20
54.025
 10
340.375
 20
54.025
 10
340.375
 20
54.625
 10
326.375
 20
54.625
 10
326.375
 20
54.025
 10
325.575
 20
54.025
 10
325.575
 20
41.225
 10
326.375
 20
41.225
 10
326.375
 20
40.625
  0
LWPOLYLINE
  5
D6
330
17
100
AcDbEntity
  8
SWITCH_CUTOUTS
100
AcDbPolyline
 90
52
 70
1
 10
28.43125000000001
 20
21.575000000000003
 10
14.43125000000001
 20
21.575000000000003
 10
14.43125000000001
 20
22.175000000000004
 10
13.631250000000009
 20
22.175000000000004
 10
13.631250000000009
 20
23.845000000000002
 10
12.85625000000001
 20
23.845000000000002
 10
12.85625000000001
 20
23.045
 10
11.131250000000009
 20
23.045
 10
11.131250000000009
 20
22.125000000000004
 10
7.83125000000001
 20
22.125000000000004
 10
7.83125000000001
 20
23.045
 10
6.20625000000001
 20
23.045
 10
6.20625000000001
 20
26.275000000000002
 10
5.331250000000008
 20
26.275000000000002
 10
5.331250000000008
 20
29.075000000000003
 10
6.20625000000001
 20
29.075000000000003
 10
6.20625000000001
 20
35.345
 10
7.83125000000001
 20
35.345
 10
7.83125000000001
 20
36.325
 10
11.131250000000009
 20
36.325
 10
11.131250000000009
 20
35.345
 10
12.85625000000001
 20
35.345
 10
12.85625000000001
 20
34.545
 10
13.631250000000009
 20
34.545
 10
13.631250000000009
 20
34.975
 10
14.43125000000001
 20
34.975
 10
14.43125000000001
 20
35.575
 10
28.43125000000001
 20
35.575
 10
28.43125000000001
 20
34.975
 10
29.23125000000001
 20
34.975
 10
29.23125000000001
 20
34.545
 10
30.00625000000001
 20
34.545
 10
30.00625000000001
 20
35.345
 10
31.73125000000001
 20
35.345
 10
31.73125000000001
 20
36.325
 10
35.03125000000001
 20
36.325
 10
35.03125000000001
 20
35.345
 10
36.65625000000001
 20
35.345
 10
36.65625000000001
 20
29.075000000000003
 10
37.53125000000001
 20
29.075000000000003
 10
37.53125000000001
 20
26.275000000000002
 10
36.65625000000001
 20
26.275000000000002
 10
36.65625000000001
 20
23.045
 10
35.03125000000001
 20
23.045
 10
35.03125000000001
 20
22.125000000000004
 10
31.73125000000001
 20
22.125000000000004
 10
31.73125000000001
 20
23.045
 10
30.00625000000001
 20
23.045
 10
30.00625000000001
 20
23.845000000000002
 10
29.23125000000001
 20
23.845000000000002
 10
29.23125000000001
 20
22.175000000000004
 10
28.43125000000001
 20
22.175000000000004
  0
LWPOLYLINE
  5
D7
330
17
100
AcDbEntity
  8
SWITCH_CUTOUTS
100
AcDbPolyline
 90
12
 70
1
 10
59.38750000000001
 20
21.575000000000003
 10
59.38750000000001
 20
22.175000000000004
 10
60.18750000000001
 20
22.175000000000004
 10
60.18750000000001
 20
34.975
 10
59.38750000000001
 20
34.975
 10
59.38750000000001
 20
35.575
 10
45.38750000000001
 20
35.575
 10
45.38750000000001
 20
34.975
 10
44.58750000000001
 20
34.975
 10
44.58750000000001
 20
22.175000000000004
 10
45.38750000000001
 20
22.175000000000004
 10
45.38750000000001
 20
21.575000000000003
  0
LWPOLYLINE
  5
D8
330
17
100
AcDbEntity
  8
SWITCH_CUTOUTS
100
AcDbPolyline
 90
12
 70
1
 10
78.4375
 20
21.575000000000003
 10
78.4375
 20
22.175000000000004
 10
79.23750000000001
 20
22.175000000000004
 10
79.23750000000001
 20
34.975
 10
78.4375
 20
34.975
 10
78.4375
 20
35.575
 10
64.4375
 20
35.575
 10
64.4375
 20
34.975
 10
63.63750000000001
 20
34.975
 10
63.63750000000001
 20
22.175000000000004
 10
64.4375
 20
22.175000000000004
 10
64.4375
 20
21.575000000000003
  0
LWPOLYLINE
  5
D9
330
17
100
AcDbEntity
  8
SWITCH_CUTOUTS
100
AcDbPolyline
 90
12
 70
1
 10
97.48750000000001
 20
21.575000000000003
 10
97.48750000000001
 20
22.175000000000004
 10
98.2875
 20
22.175000000000004
 10
98.2875
 20
34.975
 10
97.48750000000001
 20
34.975
 10
97.48750000000001
 20
35.575
 10
83.48750000000001
 20
35.575
 10
83.48750000000001
 20
34.975
 10
82.6875
 20
34.975
 10
82.6875
 20
22.175000000000004
 10
83.48750000000001
 20
22.175000000000004
 10
83.48750000000001
 20
21.575000000000003
  0
LWPOLYLINE
  5
DA
330
17
100
AcDbEntity
  8
SWITCH_CUTOUTS
100
AcDbPolyline
 90
12
 70
1
 10
116.53750000000002
 20
21.575000000000003
 10
116.53750000000002
 20
22.175000000000004
 10
117.3375
 20
22.175000000000004
 10
117.3375
 20
34.975
 10
116.53750000000002
 20
34.975
 10
116.53750000000002
 20
35.575
 10
102.53750000000002
 20
35.575
 10
102.53750000000002
 20
34.975
 10
101.73750000000001
 20
34.975
 10
101.73750000000001
 20
22.175000000000004
 10
102.53750000000002
 20
22.175000000000004
 10
102.53750000000002
 20
21.575000000000003
  0
LWPOLYLINE
  5
DB
330
17
100
AcDbEntity
  8
SWITCH_CUTOUTS
100
AcDbPolyline
 90
12
 70
1
 10
135.5875
 20
21.575000000000003
 10
135.5875
 20
22.175000000000004
 10
136.38750000000002
 20
22.175000000000004
 10
136.38750000000002
 20
34.975
 10
135.5875
 20
34.975
 10
135.5875
 20
35.575
 10
121.5875
 20
35.575
 10
121.5875
 20
34.975
 10
120.78750000000002
 20
34.975
 10
120.78750000000002
 20
22.175000000000004
 10
121.5875
 20
22.175000000000004
 10
121.5875
 20
21.575000000000003
  0
LWPOLYLINE
  5
DC
330
17
100
AcDbEntity
  8
SWITCH_CUTOUTS
100
AcDbPolyline
 90
12
 70
1
 10
154.63750000000002
 20
21.575000000000003
 10
154.63750000000002
 20
22.175000000000004
 10
155.43750000000003
 20
22.175000000000004
 10
155.43750000000003
 20
34.975
 10
154.63750000000002
 20
34.975
 10
154.63750000000002
 20
35.575
 10
140.63750000000002
 20
35.575
 10
140.63750000000002
 20
34.975
 10
139.8375
 20
34.975
 10
139.8375
 20
22.175000000000004
 10
140.63750000000002
 20
22.175000000000004
 10
140.63750000000002
 20
21.575000000000003
  0
LWPOLYLINE
  5
DD
330
17
100
AcDbEntity
  8
SWITCH_CUTOUTS
100
AcDbPolyline
 90
12
 70
1
 10
173.6875
 20
21.575000000000003
 10
173.6875
 20
22.175000000000004
 10
174.4875
 20
22.175000000000004
 10
174.4875
 20
34.975
 10
173.6875
 20
34.975
 10
173.6875
 20
35.575
 10
159.6875
 20
35.575
 10
159.6875
 20
34.975
 10
158.8875
 20
34.975
 10
158.8875
 20
22.175000000000004
 10
159.6875
 20
22.175000000000004
 10
159.6875
 20
21.575000000000003
  0
LWPOLYLINE
  5
DE
330
17
100
AcDbEntity
  8
SWITCH_CUTOUTS
100
AcDbPolyline
 90
12
 70
1
 10
192.7375
 20
21.575000000000003
 10
192.7375
 20
22.175000000000004
 10
193.53750000000002
 20
22.175000000000004
 10
193.53750000000002
 20
34.975
 10
192.7375
 20
34.975
 10
192.7375
 20
35.575
 10
178.7375
 20
35.575
 10
178.7375
 20
34.975
 10
177.9375
 20
34.975
 10
177.9375
 20
22.175000000000004
 10
178.7375
 20
22.175000000000004
 10
178.7375
 20
21.575000000000003
  0
LWPOLYLINE
  5
DF
330
17
100
AcDbEntity
  8
SWITCH_CUTOUTS
100
AcDbPolyline
 90
12
 70
1
 10
211.7875
 20
21.575000000000003
 10
211.7875
 20
22.175000000000004
 10
212.5875
 20
22.175000000000004
 10
212.5875
 20
34.975
 10
211.7875
 20
34.975
 10
211.7875
 20
35.575
 10
197.7875
 20
35.575
 10
197.7875
 20
34.975
 10
196.98749999999998
 20
34.975
 10
196.98749999999998
 20
22.175000000000004
 10
197.7875
 20
22.175000000000004
 10
197.7875
 20
21.575000000000003
  0
LWPOLYLINE
  5
E0
330
17
100
AcDbEntity
  8
SWITCH_CUTOUTS
100
AcDbPolyline
 90
12
 70
1
 10
230.8375
 20
21.575000000000003
 10
230.8375
 20
22.175000000000004
 10
231.63750000000002
 20
22.175000000000004
 10
231.63750000000002
 20
34.975
 10
230.8375
 20
34.975
 10
230.8375
 20
35.575
 10
216.8375
 20
35.575
 10
216.8375
 20
34.975
 10
216.0375
 20
34.975
 10
216.0375
 20
22.175000000000004
 10
216.8375
 20
22.175000000000004
 10
216.8375
 20
21.575000000000003
  0
LWPOLYLINE
  5
E1
330
17
100
AcDbEntity
  8
SWITCH_CUTOUTS
100
AcDbPolyline
 90
12
 70
1
 10
257.03125
 20
21.575000000000003
 10
257.03125
 20
22.175000000000004
 10
257.83125
 20
22.175000000000004
 10
257.83125
 20
34.975
 10
257.03125
 20
34.975
 10
257.03125
 20
35.575
 10
243.03125
 20
35.575
 10
243.03125
 20
34.975
 10
242.23125
 20
34.975
 10
242.23125
 20
22.175000000000004
 10
243.03125
 20
22.175000000000004
 10
243.03125
 20
21.575000000000003
  0
LWPOLYLINE
  5
E2
330
17
100
AcDbEntity
  8
SWITCH_CUTOUTS
100
AcDbPolyline
 90
12
 70
1
 10
283.225
 20
21.575000000000003
 10
283.225
 20
22.175000000000004
 10
284.02500000000003
 20
22.175000000000004
 10
284.02500000000003
 20
34.975
 10
283.225
 20
34.975
 10
283.225
 20
35.575
 10
269.225
 20
35.575
 10
269.225
 20
34.975
 10
268.425
 20
34.975
 10
268.425
 20
22.175000000000004
 10
269.225
 20
22.175000000000004
 10
269.225
 20
21.575000000000003
  0
LWPOLYLINE
  5
E3
330
17
100
AcDbEntity
  8
SWITCH_CUTOUTS
100
AcDbPolyline
 90
12
 70
1
 10
302.27500000000003
 20
21.575000000000003
 10
302.27500000000003
 20
22.175000000000004
 10
303.07500000000005
 20
22.175000000000004
 10
303.07500000000005
 20
34.975
 10
302.27500000000003
 20
34.975
 10
302.27500000000003
 20
35.575
 10
288.27500000000003
 20
35.575
 10
288.27500000000003
 20
34.975
 10
287.475
 20
34.975
 10
287.475
 20
22.175000000000004
 10
288.27500000000003
 20
22.175000000000004
 10
288.27500000000003
 20
21.575000000000003
  0
LWPOLYLINE
  5
E4
330
17
100
AcDbEntity
  8
SWITCH_CUTOUTS
100
AcDbPolyline
 90
12
 70
1
 10
321.325
 20
21.575000000000003
 10
321.325
 20
22.175000000000004
 10
322.125
 20
22.175000000000004
 10
322.125
 20
34.975
 10
321.325
 20
34.975
 10
321.325
 20
35.575
 10
307.325
 20
35.575
 10
307.325
 20
34.975
 10
306.525
 20
34.975
 10
306.525
 20
22.175000000000004
 10
307.325
 20
22.175000000000004
 10
307.325
 20
21.575000000000003
  0
LWPOLYLINE
  5
E5
330
17
100
AcDbEntity
  8
SWITCH_CUTOUTS
100
AcDbPolyline
 90
12
 70
1
 10
340.375
 20
21.575000000000003
 10
340.375
 20
22.175000000000004
 10
341.175
 20
22.175000000000004
 10
341.175
 20
34.975
 10
340.375
 20
34.975
 10
340.375
 20
35.575
 10
326.375
 20
35.575
 10
326.375
 20
34.975
 10
325.575
 20
34.975
 10
325.575
 20
22.175000000000004
 10
326.375
 20
22.175000000000004
 10
326.375
 20
21.575000000000003
  0
LWPOLYLINE
  5
E6
330
17
100
AcDbEntity
  8
SWITCH_CUTOUTS
100
AcDbPolyline
 90
52
 70
1
 10
359.425
 20
26.05
 10
359.425
 20
25.450000000000003
 10
360.225
 20
25.450000000000003
 10
360.225
 20
12.65
 10
359.425
 20
12.65
 10
359.425
 20
12.05
 10
357.15500000000003
 20
12.05
 10
357.15500000000003
 20
10.475000000000001
 10
357.955
 20
10.475000000000001
 10
357.955
 20
8.75
 10
358.875
 20
8.75
 10
358.875
 20
5.450000000000001
 10
357.955
 20
5.450000000000001
 10
357.955
 20
3.825000000000001
 10
354.725
 20
3.825000000000001
 10
354.725
 20
2.9499999999999993
 10
351.925
 20
2.9499999999999993
 10
351.925
 20
3.825000000000001
 10
345.65500000000003
 20
3.825000000000001
 10
345.65500000000003
 20
5.450000000000001
 10
344.675
 20
5.450000000000001
 10
344.675
 20
8.75
 10
345.65500000000003
 20
8.75
 10
345.65500000000003
 20
10.475000000000001
 10
346.455
 20
10.475000000000001
 10
346.455
 20
12.05
 10
345.425
 20
12.05
 10
345.425
 20
12.65
 10
344.625
 20
12.65
 10
344.625
 20
25.450000000000003
 10
345.425
 20
25.450000000000003
 10
345.425
 20
26.05
 10
346.455
 20
26.05
 10
346.455
 20
27.625
 10
345.65500000000003
 20
27.625
 10
345.65500000000003
 20
29.35
 10
344.675
 20
29.35
 10
344.675
 20
32.65
 10
345.65500000000003
 20
32.65
 10
345.65500000000003
 20
34.275
 10
351.925
 20
34.275
 10
351.925
 20
35.150000000000006
 10
354.725
 20
35.150000000000006
 10
354.725
 20
34.275
 10
357.955
 20
34.275
 10
357.955
 20
32.65
 10
358.875
 20
32.65
 10
358.875
 20
29.35
 10
357.955
 20
29.35
 10
357.955
 20
27.625
 10
357.15500000000003
 20
27.625
 10
357.15500000000003
 20
26.05
  0
LWPOLYLINE
  5
E7
330
17
100
AcDbEntity
  8
SWITCH_CUTOUTS
100
AcDbPolyline
 90
12
 70
1
 10
18.906250000000007
 20
2.5250000000000004
 10
18.906250000000007
 20
3.125
 10
19.706250000000008
 20
3.125
 10
19.706250000000008
 20
15.925
 10
18.906250000000007
 20
15.925
 10
18.906250000000007
 20
16.525
 10
4.906250000000007
 20
16.525
 10
4.906250000000007
 20
15.925
 10
4.106250000000007
 20
15.925
 10
4.106250000000007
 20
3.125
 10
4.906250000000007
 20
3.125
 10
4.906250000000007
 20
2.5250000000000004
  0
LWPOLYLINE
  5
E8
330
17
100
AcDbEntity
  8
SWITCH_CUTOUTS
100
AcDbPolyline
 90
12
 70
1
 10
42.71875000000001
 20
2.5250000000000004
 10
42.71875000000001
 20
3.125
 10
43.518750000000004
 20
3.125
 10
43.518750000000004
 20
15.925
 10
42.71875000000001
 20
15.925
 10
42.71875000000001
 20
16.525
 10
28.718750000000007
 20
16.525
 10
28.718750000000007
 20
15.925
 10
27.918750000000006
 20
15.925
 10
27.918750000000006
 20
3.125
 10
28.718750000000007
 20
3.125
 10
28.718750000000007
 20
2.5250000000000004
  0
LWPOLYLINE
  5
E9
330
17
100
AcDbEntity
  8
SWITCH_CUTOUTS
100
AcDbPolyline
 90
12
 70
1
 10
66.53125
 20
2.5250000000000004
 10
66.53125
 20
3.125
 10
67.33125000000001
 20
3.125
 10
67.33125000000001
 20
15.925
 10
66.53125
 20
15.925
 10
66.53125
 20
16.525
 10
52.53125000000001
 20
16.525
 10
52.53125000000001
 20
15.925
 10
51.73125000000001
 20
15.925
 10
51.73125000000001
 20
3.125
 10
52.53125000000001
 20
3.125
 10
52.53125000000001
 20
2.5250000000000004
  0
LWPOLYLINE
  5
EA
330
17
100
AcDbEntity
  8
SWITCH_CUTOUTS
100
AcDbPolyline
 90
52
 70
1
 10
137.96875
 20
2.5250000000000004
 10
123.96875
 20
2.5250000000000004
 10
123.96875
 20
3.125
 10
123.16875000000002
 20
3.125
 10
123.16875000000002
 20
7.2250000000000005
 10
84.29375000000002
 20
7.2250000000000005
 10
84.29375000000002
 20
3.995
 10
82.61875
 20
3.995
 10
82.61875
 20
3.075
 10
79.31875
 20
3.075
 10
79.31875
 20
3.995
 10
77.64375000000001
 20
3.995
 10
77.64375000000001
 20
7.2250000000000005
 10
76.76875000000001
 20
7.2250000000000005
 10
76.76875000000001
 20
10.025
 10
77.64375000000001
 20
10.025
 10
77.64375000000001
 20
16.295
 10
79.31875
 20
16.295
 10
79.31875
 20
17.275
 10
82.61875
 20
17.275
 10
82.61875
 20
16.295
 10
84.29375000000002
 20
16.295
 10
84.29375000000002
 20
11.825
 10
123.16875000000002
 20
11.825
 10
123.16875000000002
 20
15.925
 10
123.96875
 20
15.925
 10
123.96875
 20
16.525
 10
137.96875
 20
16.525
 10
137.96875
 20
15.925
 10
138.76875
 20
15.925
 10
138.76875
 20
11.825
 10
177.64375
 20
11.825
 10
177.64375
 20
16.295
 10
179.31875
 20
16.295
 10
179.31875
 20
17.275
 10
182.61875
 20
17.275
 10
182.61875
 20
16.295
 10
184.29375
 20
16.295
 10
184.29375
 20
10.025
 10
185.16875
 20
10.025
 10
185.16875
 20
7.2250000000000005
 10
184.29375
 20
7.2250000000000005
 10
184.29375
 20
3.995
 10
182.61875
 20
3.995
 10
182.61875
 20
3.075
 10
179.31875
 20
3.075
 10
179.31875
 20
3.995
 10
177.64375
 20
3.995
 10
177.64375
 20
7.2250000000000005
 10
138.76875
 20
7.2250000000000005
 10
138.76875
 20
3.125
 10
137.96875
 20
3.125
  0
LWPOLYLINE
  5
EB
330
17
100
AcDbEntity
  8
SWITCH_CUTOUTS
100
AcDbPolyline
 90
12
 70
1
 10
207.025
 20
2.5250000000000004
 10
207.025
 20
3.125
 10
207.82500000000002
 20
3.125
 10
207.82500000000002
 20
15.925
 10
207.025
 20
15.925
 10
207.025
 20
16.525
 10
193.025
 20
16.525
 10
193.025
 20
15.925
 10
192.225
 20
15.925
 10
192.225
 20
3.125
 10
193.025
 20
3.125
 10
193.025
 20
2.5250000000000004
  0
LWPOLYLINE
  5
EC
330
17
100
AcDbEntity
  8
SWITCH_CUTOUTS
100
AcDbPolyline
 90
12
 70
1
 10
226.07500000000002
 20
2.5250000000000004
 10
226.07500000000002
 20
3.125
 10
226.87500000000003
 20
3.125
 10
226.87500000000003
 20
15.925
 10
226.07500000000002
 20
15.925
 10
226.07500000000002
 20
16.525
 10
212.07500000000002
 20
16.525
 10
212.07500000000002
 20
15.925
 10
211.275
 20
15.925
 10
211.275
 20
3.125
 10
212.07500000000002
 20
3.125
 10
212.07500000000002
 20
2.5250000000000004
  0
LWPOLYLINE
  5
ED
330
17
100
AcDbEntity
  8
SWITCH_CUTOUTS
100
AcDbPolyline
 90
12
 70
1
 10
245.125
 20
2.5250000000000004
 10
245.125
 20
3.125
 10
245.925
 20
3.125
 10
245.925
 20
15.925
 10
245.125
 20
15.925
 10
245.125
 20
16.525
 10
231.125
 20
16.525
 10
231.125
 20
15.925
 10
230.325
 20
15.925
 10
230.325
 20
3.125
 10
231.125
 20
3.125
 10
231.125
 20
2.5250000000000004
  0
LWPOLYLINE
  5
EE
330
17
100
AcDbEntity
  8
SWITCH_CUTOUTS
100
AcDbPolyline
 90
12
 70
1
 10
264.175
 20
2.5250000000000004
 10
264.175
 20
3.125
 10
264.975
 20
3.125
 10
264.975
 20
15.925
 10
264.175
 20
15.925
 10
264.175
 20
16.525
 10
250.175
 20
16.525
 10
250.175
 20
15.925
 10
249.375
 20
15.925
 10
249.375
 20
3.125
 10
250.175
 20
3.125
 10
250.175
 20
2.5250000000000004
  0
LWPOLYLINE
  5
EF
330
17
100
AcDbEntity
  8
SWITCH_CUTOUTS
100
AcDbPolyline
 90
12
 70
1
 10
283.225
 20
2.5250000000000004
 10
283.225
 20
3.125
 10
284.02500000000003
 20
3.125
 10
284.02500000000003
 20
15.925
 10
283.225
 20
15.925
 10
283.225
 20
16.525
 10
269.225
 20
16.525
 10
269.225
 20
15.925
 10
268.425
 20
15.925
 10
268.425
 20
3.125
 10
269.225
 20
3.125
 10
269.225
 20
2.5250000000000004
  0
LWPOLYLINE
  5
F0
330
17
100
AcDbEntity
  8
SWITCH_CUTOUTS
100
AcDbPolyline
 90
12
 70
1
 10
302.27500000000003
 20
2.5250000000000004
 10
302.27500000000003
 20
3.125
 10
303.07500000000005
 20
3.125
 10
303.07500000000005
 20
15.925
 10
302.27500000000003
 20
15.925
 10
302.27500000000003
 20
16.525
 10
288.27500000000003
 20
16.525
 10
288.27500000000003
 20
15.925
 10
287.475
 20
15.925
 10
287.475
 20
3.125
 10
288.27500000000003
 20
3.125
 10
288.27500000000003
 20
2.5250000000000004
  0
LWPOLYLINE
  5
F1
330
17
100
AcDbEntity
  8
SWITCH_CUTOUTS
100
AcDbPolyline
 90
12
 70
1
 10
321.325
 20
2.5250000000000004
 10
321.325
 20
3.125
 10
322.125
 20
3.125
 10
322.125
 20
15.925
 10
321.325
 20
15.925
 10
321.325
 20
16.525
 10
307.325
 20
16.525
 10
307.325
 20
15.925
 10
306.525
 20
15.925
 10
306.525
 20
3.125
 10
307.325
 20
3.125
 10
307.325
 20
2.5250000000000004
  0
LWPOLYLINE
  5
F2
330
17
100
AcDbEntity
  8
SWITCH_CUTOUTS
100
AcDbPolyline
 90
12
 70
1
 10
340.375
 20
2.5250000000000004
 10
340.375
 20
3.125
 10
341.175
 20
3.125
 10
341.175
 20
15.925
 10
340.375
 20
15.925
 10
340.375
 20
16.525
 10
326.375
 20
16.525
 10
326.375
 20
15.925
 10
325.575
 20
15.925
 10
325.575
 20
3.125
 10
326.375
 20
3.125
 10
326.375
 20
2.5250000000000004
  0
CIRCLE
  5
F3
330
17
100
AcDbEntity
  8
PCB_SCREW_HOLES
100
AcDbCircle
 10
247.65
 20
9.525000000000006
 30
0.0
 40
1.2
  0
CIRCLE
  5
F4
330
17
100
AcDbEntity
  8
PCB_SCREW_HOLES
100
AcDbCircle
 10
285.75
 20
95.25
 30
0.0
 40
1.2
  0
CIRCLE
  5
F5
330
17
100
AcDbEntity
  8
PCB_SCREW_HOLES
100
AcDbCircle
 10
185.73749999999998
 20
57.150000000000006
 30
0.0
 40
1.2
  0
CIRCLE
  5
F6
330
17
100
AcDbEntity
  8
PCB_SCREW_HOLES
100
AcDbCircle
 10
342.9
 20
95.25
 30
0.0
 40
1.2
  0
CIRCLE
  5
F7
330
17
100
AcDbEntity
  8
PCB_SCREW_HOLES
100
AcDbCircle
 10
128.5875
 20
45.484229
 30
0.0
 40
1.2
  0
CIRCLE
  5
F8
330
17
100
AcDbEntity
  8
PCB_SCREW_HOLES
100
AcDbCircle
 10
342.9
 20
38.099999999999994
 30
0.0
 40
1.2
  0
CIRCLE
  5
F9
330
17
100
AcDbEntity
  8
PCB_SCREW_HOLES
100
AcDbCircle
 10
133.35
 20
95.25
 30
0.0
 40
1.2
  0
CIRCLE
  5
FA
330
17
100
AcDbEntity
  8
PCB_SCREW_HOLES
100
AcDbCircle
 10
38.1
 20
95.25
 30
0.0
 40
1.2
  0
CIRCLE
  5
FB
330
17
100
AcDbEntity
  8
PCB_SCREW_HOLES
100
AcDbCircle
 10
228.59999999999997
 20
95.25
 30
0.0
 40
1.2
  0
CIRCLE
  5
FC
330
17
100
AcDbEntity
  8
PCB_SCREW_HOLES
100
AcDbCircle
 10
188.861422
 20
9.525000000000006
 30
0.0
 40
1.2
  0
CIRCLE
  5
FD
330
17
100
AcDbEntity
  8
PCB_SCREW_HOLES
100
AcDbCircle
 10
23.812500000000007
 20
9.525000000000006
 30
0.0
 40
1.2
  0
ENDSEC
  0
SECTION
  2
OBJECTS
  0
DICTIONARY
  5
A
330
0
100
AcDbDictionary
281
1
  3
ACAD_COLOR
350
B
  3
ACAD_GROUP
350
C
  3
ACAD_LAYOUT
350
D
  3
ACAD_MATERIAL
350
E
  3
ACAD_MLEADERSTYLE
350
F
  3
ACAD_MLINESTYLE
350
10
  3
ACAD_PLOTSETTINGS
350
11
  3
ACAD_PLOTSTYLENAME
350
12
  3
ACAD_SCALELIST
350
14
  3
ACAD_TABLESTYLE
350
15
  3
ACAD_VISUALSTYLE
350
16
  3
EZDXF_META
350
2D
  0
DICTIONARY
  5
B
330
A
100
AcDbDictionary
281
1
  0
DICTIONARY
  5
C
330
A
100
AcDbDictionary
281
1
  0
DICTIONARY
  5
D
330
A
100
AcDbDictionary
281
1
  3
Model
350
1A
  3
Layout1
350
1E
  0
DICTIONARY
  5
E
330
A
100
AcDbDictionary
281
1
  3
ByBlock
350
1F
  3
ByLayer
350
20
  3
Global
350
21
  0
DICTIONARY
  5
F
330
A
100
AcDbDictionary
281
1
  3
Standard
350
2C
  0
DICTIONARY
  5
10
330
A
100
AcDbDictionary
281
1
  3
Standard
350
22
  0
DICTIONARY
  5
11
330
A
100
AcDbDictionary
281
1
  0
ACDBDICTIONARYWDFLT
  5
12
330
A
100
AcDbDictionary
281
1
  3
Normal
350
13
100
AcDbDictionaryWithDefault
340
13
  0
ACDBPLACEHOLDER
  5
13
330
12
  0
DICTIONARY
  5
14
330
A
100
AcDbDictionary
281
1
  0
DICTIONARY
  5
15
330
A
100
AcDbDictionary
281
1
  0
DICTIONARY
  5
16
330
A
100
AcDbDictionary
281
1
  3
2dWireframe
350
5A
  3
Basic
350
5B
  3
Brighten
350
5C
  3
ColorChange
350
5D
  3
Conceptual
350
5E
  3
Dim
350
5F
  3
EdgeColorOff
350
60
  3
Facepattern
350
61
  3
Flat
350
62
  3
FlatWithEdges
350
63
  3
Gouraud
350
64
  3
GouraudWithEdges
350
65
  3
Hidden
350
66
  3
JitterOff
350
67
  3
Linepattern
350
68
  3
Modeling
350
69
  3
OverhangOff
350
6A
  3
Realistic
350
6B
  3
Shaded
350
6C
  3
Shaded with edges
350
6D
  3
Shades of Gray
350
6E
  3
Sketchy
350
6F
  3
Thicken
350
70
  3
Wireframe
350
71
  3
X-Ray
350
72
  0
LAYOUT
  5
1A
330
D
100
AcDbPlotSettings
  1

  4
A3
  6

 40
7.5
 41
20.0
 42
7.5
 43
20.0
 44
420.0
 45
297.0
 46
0.0
 47
0.0
 48
0.0
 49
0.0
140
0.0
141
0.0
142
1.0
143
1.0
 70
1024
 72
1
 73
0
 74
5
  7

 75
16
 76
0
 77
2
 78
300
147
1.0
148
0.0
149
0.0
100
AcDbLayout
  1
Model
 70
1
 71
0
 10
0.0
 20
0.0
 11
420.0
 21
297.0
 12
0.0
 22
0.0
 32
0.0
 14
1e+20
 24
1e+20
 34
1e+20
 15
-1e+20
 25
-1e+20
 35
-1e+20
146
0.0
 13
0.0
 23
0.0
 33
0.0
 16
1.0
 26
0.0
 36
0.0
 17
0.0
 27
1.0
 37
0.0
 76
1
330
17
  0
LAYOUT
  5
1E
330
D
100
AcDbPlotSettings
  1

  4
A3
  6

 40
7.5
 41
20.0
 42
7.5
 43
20.0
 44
420.0
 45
297.0
 46
0.0
 47
0.0
 48
0.0
 49
0.0
140
0.0
141
0.0
142
1.0
143
1.0
 70
0
 72
1
 73
0
 74
5
  7

 75
16
 76
0
 77
2
 78
300
147
1.0
148
0.0
149
0.0
100
AcDbLayout
  1
Layout1
 70
1
 71
1
 10
0.0
 20
0.0
 11
420.0
 21
297.0
 12
0.0
 22
0.0
 32
0.0
 14
1e+20
 24
1e+20
 34
1e+20
 15
-1e+20
 25
-1e+20
 35
-1e+20
146
0.0
 13
0.0
 23
0.0
 33
0.0
 16
1.0
 26
0.0
 36
0.0
 17
0.0
 27
1.0
 37
0.0
 76
1
330
1B
  0
MATERIAL
  5
1F
102
{ACAD_REACTORS
330
E
102
}
330
E
100
AcDbMaterial
  1
ByBlock
  2

 70
0
 40
1.0
 71
1
 41
1.0
 91
-1023410177
 42
1.0
 72
1
  3

 73
1
 74
1
 75
1
 44
0.5
 73
0
 45
1.0
 46
1.0
 77
1
  4

 78
1
 79
1
170
1
 48
1.0
171
1
  6

172
1
173
1
174
1
140
1.0
141
1.0
175
1
  7

176
1
177
1
178
1
143
1.0
179
1
  8

270
1
271
1
272
1
145
1.0
146
1.0
273
1
  9

274
1
275
1
276
1
 42
1.0
 72
1
  3

 73
1
 74
1
 75
1
 94
63
  0
MATERIAL
  5
20
102
{ACAD_REACTORS
330
E
102
}
330
E
100
AcDbMaterial
  1
ByLayer
  2

 70
0
 40
1.0
 71
1
 41
1.0
 91
-1023410177
 42
1.0
 72
1
  3

 73
1
 74
1
 75
1
 44
0.5
 73
0
 45
1.0
 46
1.0
 77
1
  4

 78
1
 79
1
170
1
 48
1.0
171
1
  6

172
1
173
1
174
1
140
1.0
141
1.0
175
1
  7

176
1
177
1
178
1
143
1.0
179
1
  8

270
1
271
1
272
1
145
1.0
146
1.0
273
1
  9

274
1
275
1
276
1
 42
1.0
 72
1
  3

 73
1
 74
1
 75
1
 94
63
  0
MATERIAL
  5
21
102
{ACAD_REACTORS
330
E
102
}
330
E
100
AcDbMaterial
  1
Global
  2

 70
0
 40
1.0
 71
1
 41
1.0
 91
-1023410177
 42
1.0
 72
1
  3

 73
1
 74
1
 75
1
 44
0.5
 73
0
 45
1.0
 46
1.0
 77
1
  4

 78
1
 79
1
170
1
 48
1.0
171
1
  6

172
1
173
1
174
1
140
1.0
141
1.0
175
1
  7

176
1
177
1
178
1
143
1.0
179
1
  8

270
1
271
1
272
1
145
1.0
146
1.0
273
1
  9

274
1
275
1
276
1
 42
1.0
 72
1
  3

 73
1
 74
1
 75
1
 94
63
  0
MLINESTYLE
  5
22
102
{ACAD_REACTORS
330
10
102
}
330
10
100
AcDbMlineStyle
  2
Standard
 70
0
  3

 62
256
 51
90.0
 52
90.0
 71
2
 49
0.5
 62
256
  6
BYLAYER
 49
-0.5
 62
256
  6
BYLAYER
  0
MLEADERSTYLE
  5
2C
102
{ACAD_REACTORS
330
F
102
}
330
F
100
AcDbMLeaderStyle
179
2
170
2
171
1
172
0
 90
2
 40
0.0
 41
0.0
173
1
 91
-1056964608
 92
-2
290
1
 42
2.0
291
1
 43
8.0
  3
Standard
 44
4.0
300

342
29
174
1
175
1
176
0
178
1
 93
-1056964608
 45
4.0
292
0
297
0
 46
4.0
 94
-1056964608
 47
1.0
 49
1.0
140
1.0
294
1
141
0.0
177
0
142
1.0
295
0
296
0
143
3.75
271
0
272
9
273
9
  0
DICTIONARY
  5
2D
330
A
100
AcDbDictionary
280
1
281
1
  3
CREATED_BY_EZDXF
350
2E
  3
WRITTEN_BY_EZDXF
350
100
  0
DICTIONARYVAR
  5
2E
330
2D
100
DictionaryVariables
280
0
  1
1.4.3 @ 2026-06-12T01:53:15.190901+00:00
  0
VISUALSTYLE
  5
5A
102
{ACAD_REACTORS
330
16
102
}
330
16
100
AcDbVisualStyle
  2
2dWireframe
 70
4
 90
0
 40
0.6
 62
7
290
0
291
0
  0
VISUALSTYLE
  5
5B
102
{ACAD_REACTORS
330
16
102
}
330
16
100
AcDbVisualStyle
  2
Basic
 70
7
 90
1
 40
0.6
 62
7
290
0
291
1
  0
VISUALSTYLE
  5
5C
102
{ACAD_REACTORS
330
16
102
}
330
16
100
AcDbVisualStyle
  2
Brighten
 70
12
 90
2
 40
0.6
 62
7
290
0
291
1
  0
VISUALSTYLE
  5
5D
102
{ACAD_REACTORS
330
16
102
}
330
16
100
AcDbVisualStyle
  2
ColorChange
 70
16
 90
2
 40
0.6
 62
8
290
0
291
1
  0
VISUALSTYLE
  5
5E
102
{ACAD_REACTORS
330
16
102
}
330
16
100
AcDbVisualStyle
  2
Conceptual
 70
9
 90
3
 40
0.6
 62
7
290
0
291
0
  0
VISUALSTYLE
  5
5F
102
{ACAD_REACTORS
330
16
102
}
330
16
100
AcDbVisualStyle
  2
Dim
 70
11
 90
2
 40
0.6
 62
7
290
0
291
1
  0
VISUALSTYLE
  5
60
102
{ACAD_REACTORS
330
16
102
}
330
16
100
AcDbVisualStyle
  2
EdgeColorOff
 70
22
 90
2
 40
0.6
 62
7
290
0
291
1
  0
VISUALSTYLE
  5
61
102
{ACAD_REACTORS
330
16
102
}
330
16
100
AcDbVisualStyle
  2
Facepattern
 70
15
 90
2
 40
0.6
 62
7
290
0
291
1
  0
VISUALSTYLE
  5
62
102
{ACAD_REACTORS
330
16
102
}
330
16
100
AcDbVisualStyle
  2
Flat
 70
0
 90
2
 40
0.6
 62
7
290
0
291
1
  0
VISUALSTYLE
  5
63
102
{ACAD_REACTORS
330
16
102
}
330
16
100
AcDbVisualStyle
  2
FlatWithEdges
 70
1
 90
2
 40
0.6
 62
7
290
0
291
1
  0
VISUALSTYLE
  5
64
102
{ACAD_REACTORS
330
16
102
}
330
16
100
AcDbVisualStyle
  2
Gouraud
 70
2
 90
2
 40
0.6
 62
7
290
0
291
1
  0
VISUALSTYLE
  5
65
102
{ACAD_REACTORS
330
16
102
}
330
16
100
AcDbVisualStyle
  2
GouraudWithEdges
 70
3
 90
2
 40
0.6
 62
7
290
0
291
1
  0
VISUALSTYLE
  5
66
102
{ACAD_REACTORS
330
16
102
}
330
16
100
AcDbVisualStyle
  2
Hidden
 70
6
 90
1
 40
0.6
 62
7
290
0
291
0
  0
VISUALSTYLE
  5
67
102
{ACAD_REACTORS
330
16
102
}
330
16
100
AcDbVisualStyle
  2
JitterOff
 70
20
 90
2
 40
0.6
 62
7
290
0
291
1
  0
VISUALSTYLE
  5
68
102
{ACAD_REACTORS
330
16
102
}
330
16
100
AcDbVisualStyle
  2
Linepattern
 70
14
 90
2
 40
0.6
 62
7
290
0
291
1
  0
VISUALSTYLE
  5
69
102
{ACAD_REACTORS
330
16
102
}
330
16
100
AcDbVisualStyle
  2
Modeling
 70
10
 90
2
 40
0.6
 62
7
290
0
291
0
  0
VISUALSTYLE
  5
6A
102
{ACAD_REACTORS
330
16
102
}
330
16
100
AcDbVisualStyle
  2
OverhangOff
 70
21
 90
2
 40
0.6
 62
7
290
0
291
1
  0
VISUALSTYLE
  5
6B
102
{ACAD_REACTORS
330
16
102
}
330
16
100
AcDbVisualStyle
  2
Realistic
 70
8
 90
2
 40
0.6
 62
7
290
0
291
0
  0
VISUALSTYLE
  5
6C
102
{ACAD_REACTORS
330
16
102
}
330
16
100
AcDbVisualStyle
  2
Shaded
 70
27
 90
2
 40
0.6
 62
7
290
0
291
0
  0
VISUALSTYLE
  5
6D
102
{ACAD_REACTORS
330
16
102
}
330
16
100
AcDbVisualStyle
  2
Shaded with edges
 70
26
 90
2
 40
0.6
 62
7
290
0
291
0
  0
VISUALSTYLE
  5
6E
102
{ACAD_REACTORS
330
16
102
}
330
16
100
AcDbVisualStyle
  2
Shades of Gray
 70
23
 90
2
 40
0.6
 62
7
290
0
291
0
  0
VISUALSTYLE
  5
6F
102
{ACAD_REACTORS
330
16
102
}
330
16
100
AcDbVisualStyle
  2
Sketchy
 70
24
 90
1
 40
0.6
 62
7
290
0
291
0
  0
VISUALSTYLE
  5
70
102
{ACAD_REACTORS
330
16
102
}
330
16
100
AcDbVisualStyle
  2
Thicken
 70
13
 90
2
 40
0.6
 62
7
290
0
291
1
  0
VISUALSTYLE
  5
71
102
{ACAD_REACTORS
330
16
102
}
330
16
100
AcDbVisualStyle
  2
Wireframe
 70
5
 90
0
 40
0.6
 62
7
290
0
291
0
  0
VISUALSTYLE
  5
72
102
{ACAD_REACTORS
330
16
102
}
330
16
100
AcDbVisualStyle
  2
X-Ray
 70
25
 90
2
 40
0.5
 62
7
290
0
291
0
  0
DICTIONARYVAR
  5
100
330
2D
100
DictionaryVariables
280
0
  1
1.4.3 @ 2026-06-12T01:53:15.229416+00:00
  0
ENDSEC
  0
EOF
