%TF.GenerationSoftware,KiCad,Pcbnew,10.0.0*%
%TF.CreationDate,2026-03-27T21:22:43+05:00*%
%TF.ProjectId,rivasmario 96\u0025 Hotswap Rp2040,72697661-736d-4617-9269-6f2039362520,1*%
%TF.SameCoordinates,Original*%
%TF.FileFunction,Profile,NP*%
%FSLAX46Y46*%
G04 Gerber Fmt 4.6, Leading zero omitted, Abs format (unit mm)*
G04 Created by KiCad (PCBNEW 10.0.0) date 2026-03-27 21:22:43*
%MOMM*%
%LPD*%
G01*
G04 APERTURE LIST*
%TA.AperFunction,Profile*%
%ADD10C,0.200000*%
%TD*%
G04 APERTURE END LIST*
D10*
X51513235Y-71450000D02*
G75*
G02*
X53013235Y-69949935I1500065J0D01*
G01*
X51513235Y-145000000D02*
X51513235Y-71450000D01*
X51513235Y-145000000D02*
X54132350Y-145000000D01*
X51513235Y-147000000D02*
X54132350Y-147000000D01*
X51513235Y-182755170D02*
X51513235Y-147000000D01*
X53013235Y-69950000D02*
X411963200Y-69950000D01*
X53013235Y-184250000D02*
G75*
G02*
X51513300Y-182760193I-5135J1494800D01*
G01*
X54132350Y-145000000D02*
G75*
G02*
X54132350Y-147000000I0J-1000000D01*
G01*
X74000000Y-181630885D02*
G75*
G02*
X76000000Y-181630885I1000000J0D01*
G01*
X74000000Y-184250000D02*
X53013235Y-184250000D01*
X74000000Y-184250000D02*
X74000000Y-181630885D01*
X76000000Y-184250000D02*
X76000000Y-181630885D01*
X76000000Y-184250000D02*
X205000000Y-184250000D01*
X205000000Y-181630885D02*
G75*
G02*
X207000000Y-181630885I1000000J0D01*
G01*
X205000000Y-184250000D02*
X205000000Y-181630885D01*
X207000000Y-184250000D02*
X207000000Y-181630885D01*
X336250000Y-181630885D02*
G75*
G02*
X338250000Y-181630885I1000000J0D01*
G01*
X336250000Y-184250000D02*
X207000000Y-184250000D01*
X336250000Y-184250000D02*
X336250000Y-181630885D01*
X338250000Y-184250000D02*
X338250000Y-181630885D01*
X338250000Y-184250000D02*
X411963235Y-184250000D01*
X411963200Y-69950000D02*
G75*
G02*
X413463200Y-71450000I0J-1500000D01*
G01*
X413463200Y-71450000D02*
X413463235Y-182760193D01*
X413463235Y-182760193D02*
G75*
G02*
X411963235Y-184249935I-1494835J5093D01*
G01*
M02*
