M48
METRIC
T1C0.650
T2C1.750
T3C3.048
T4C3.050
T5C3.988
T6C4.000
%
G90
G05
T1
X67.648Y-74.9
X73.428Y-74.9
T2
X55.958Y-79.475
X55.958Y-98.525
X58.338Y-174.725
X60.721Y-117.575
X63.102Y-136.625
X66.118Y-79.475
X66.118Y-98.525
X67.864Y-155.675
X68.498Y-174.725
X70.881Y-117.575
X73.262Y-136.625
X75.008Y-79.475
X75.008Y-98.525
X78.024Y-155.675
X82.158Y-174.725
X84.533Y-117.575
X85.168Y-79.475
X85.168Y-98.525
X89.296Y-136.625
X92.318Y-174.725
X94.058Y-79.475
X94.058Y-98.525
X94.693Y-117.575
X98.821Y-155.675
X99.456Y-136.625
X103.583Y-117.575
X104.218Y-79.475
X104.218Y-98.525
X105.973Y-174.725
X108.346Y-136.625
X108.981Y-155.675
X113.108Y-79.475
X113.108Y-98.525
X113.743Y-117.575
X116.133Y-174.725
X117.871Y-155.675
X118.506Y-136.625
X122.633Y-117.575
X123.268Y-79.475
X123.268Y-98.525
X127.396Y-136.625
X128.031Y-155.675
X132.158Y-79.475
X132.158Y-98.525
X132.793Y-117.575
X136.921Y-155.675
X137.556Y-136.625
X141.683Y-117.575
X142.318Y-79.475
X142.318Y-98.525
X146.446Y-136.625
X147.081Y-155.675
X151.208Y-79.475
X151.208Y-98.525
X151.843Y-117.575
X155.971Y-155.675
X156.606Y-136.625
X160.733Y-117.575
X161.368Y-79.475
X161.368Y-98.525
X165.496Y-136.625
X166.131Y-155.675
X170.258Y-79.475
X170.258Y-98.525
X170.893Y-117.575
X175.021Y-155.675
X175.656Y-136.625
X177.4Y-174.725
X179.783Y-117.575
X180.418Y-79.475
X180.418Y-98.525
X184.546Y-136.625
X185.181Y-155.675
X187.56Y-174.725
X189.308Y-79.475
X189.308Y-98.525
X189.943Y-117.575
X194.071Y-155.675
X194.706Y-136.625
X198.833Y-117.575
X199.468Y-79.475
X199.468Y-98.525
X203.596Y-136.625
X204.231Y-155.675
X208.358Y-79.475
X208.358Y-98.525
X208.993Y-117.575
X213.121Y-155.675
X213.756Y-136.625
X217.883Y-117.575
X218.518Y-79.475
X218.518Y-98.525
X222.646Y-136.625
X223.281Y-155.675
X227.408Y-79.475
X227.408Y-98.525
X228.043Y-117.575
X232.171Y-155.675
X232.806Y-136.625
X236.933Y-117.575
X237.568Y-79.475
X237.568Y-98.525
X241.696Y-136.625
X242.331Y-155.675
X246.458Y-79.475
X246.458Y-98.525
X247.093Y-117.575
X251.221Y-155.675
X251.221Y-174.725
X251.856Y-136.625
X255.983Y-117.575
X256.618Y-79.475
X256.618Y-98.525
X260.746Y-136.625
X261.381Y-155.675
X261.381Y-174.725
X265.508Y-79.475
X265.508Y-98.525
X266.143Y-117.575
X270.271Y-155.675
X270.906Y-136.625
X275.033Y-117.575
X275.668Y-79.475
X275.668Y-98.525
X279.796Y-136.625
X279.796Y-174.725
X280.431Y-155.675
X284.558Y-79.475
X284.558Y-98.525
X285.193Y-117.575
X289.956Y-136.625
X289.956Y-174.725
X294.083Y-117.575
X294.718Y-79.475
X294.718Y-98.525
X296.464Y-155.675
X303.608Y-79.475
X303.608Y-174.725
X304.243Y-117.575
X306.624Y-155.675
X310.752Y-136.625
X313.133Y-98.525
X313.768Y-79.475
X313.768Y-174.725
X317.896Y-117.575
X320.912Y-136.625
X322.658Y-79.475
X322.658Y-155.675
X322.658Y-174.725
X323.293Y-98.525
X328.056Y-117.575
X332.818Y-79.475
X332.818Y-155.675
X332.818Y-174.725
X341.708Y-79.475
X341.708Y-98.525
X341.708Y-117.575
X341.708Y-136.625
X341.708Y-155.675
X341.708Y-174.725
X351.868Y-79.475
X351.868Y-98.525
X351.868Y-117.575
X351.868Y-136.625
X351.868Y-155.675
X351.868Y-174.725
X360.758Y-79.475
X360.758Y-98.525
X360.758Y-117.575
X360.758Y-136.625
X360.758Y-155.675
X360.758Y-174.725
X370.918Y-79.475
X370.918Y-98.525
X370.918Y-117.575
X370.918Y-136.625
X370.918Y-155.675
X370.918Y-174.725
X379.808Y-79.475
X379.808Y-98.525
X379.808Y-117.575
X379.808Y-136.625
X379.808Y-155.675
X379.808Y-174.725
X389.968Y-79.475
X389.968Y-98.525
X389.968Y-117.575
X389.968Y-136.625
X389.968Y-155.675
X389.968Y-174.725
X398.858Y-79.475
X398.858Y-98.525
X398.858Y-127.1
X398.858Y-165.2
X409.018Y-79.475
X409.018Y-98.525
X409.018Y-127.1
X409.018Y-165.2
T3
X61.006Y-148.69
X84.882Y-148.69
X132.48Y-181.71
X232.48Y-181.71
X303.894Y-143.61
X306.275Y-91.54
X327.77Y-143.61
X330.151Y-91.54
X410.923Y-115.162
X410.923Y-139.038
X410.923Y-153.262
X410.923Y-177.138
T4
X57.228Y-95.985
X58.498Y-84.555
X59.608Y-172.185
X61.991Y-115.035
X63.578Y-93.445
X64.372Y-134.085
X64.848Y-82.015
X65.958Y-169.645
X68.341Y-112.495
X69.134Y-153.135
X70.722Y-131.545
X75.484Y-150.595
X76.278Y-95.985
X77.548Y-84.555
X82.628Y-93.445
X83.428Y-172.185
X83.898Y-82.015
X85.803Y-115.035
X89.778Y-169.645
X90.566Y-134.085
X92.153Y-112.495
X95.328Y-76.935
X95.328Y-95.985
X96.916Y-131.545
X100.091Y-153.135
X101.678Y-74.395
X101.678Y-93.445
X104.853Y-115.035
X106.441Y-150.595
X107.243Y-172.185
X109.616Y-134.085
X111.203Y-112.495
X113.593Y-169.645
X114.378Y-76.935
X114.378Y-95.985
X115.966Y-131.545
X119.141Y-153.135
X120.728Y-74.395
X120.728Y-93.445
X123.903Y-115.035
X125.491Y-150.595
X128.666Y-134.085
X130.253Y-112.495
X133.428Y-76.935
X133.428Y-95.985
X135.016Y-131.545
X138.191Y-153.135
X139.778Y-74.395
X139.778Y-93.445
X142.953Y-115.035
X144.541Y-150.595
X147.716Y-134.085
X149.303Y-112.495
X152.478Y-76.935
X152.478Y-95.985
X154.066Y-131.545
X157.241Y-153.135
X158.828Y-74.395
X158.828Y-93.445
X162.003Y-115.035
X163.591Y-150.595
X166.766Y-134.085
X168.353Y-112.495
X171.528Y-76.935
X171.528Y-95.985
X173.116Y-131.545
X176.291Y-153.135
X177.878Y-74.395
X177.878Y-93.445
X178.67Y-172.185
X181.053Y-115.035
X182.641Y-150.595
X185.02Y-169.645
X185.816Y-134.085
X187.403Y-112.495
X190.578Y-76.935
X190.578Y-95.985
X192.166Y-131.545
X195.341Y-153.135
X196.928Y-74.395
X196.928Y-93.445
X200.103Y-115.035
X201.691Y-150.595
X204.866Y-134.085
X206.453Y-112.495
X209.628Y-76.935
X209.628Y-95.985
X211.216Y-131.545
X214.391Y-153.135
X215.978Y-74.395
X215.978Y-93.445
X219.153Y-115.035
X220.741Y-150.595
X223.916Y-134.085
X225.503Y-112.495
X228.678Y-76.935
X228.678Y-95.985
X230.266Y-131.545
X233.441Y-153.135
X235.028Y-74.395
X235.028Y-93.445
X238.203Y-115.035
X239.791Y-150.595
X242.966Y-134.085
X244.553Y-112.495
X247.728Y-76.935
X247.728Y-95.985
X249.316Y-131.545
X252.491Y-153.135
X252.491Y-172.185
X254.078Y-74.395
X254.078Y-93.445
X257.253Y-115.035
X258.841Y-150.595
X258.841Y-169.645
X262.016Y-134.085
X263.603Y-112.495
X266.778Y-76.935
X266.778Y-95.985
X268.366Y-131.545
X271.541Y-153.135
X273.128Y-74.395
X273.128Y-93.445
X276.303Y-115.035
X277.891Y-150.595
X281.066Y-134.085
X281.066Y-172.185
X282.653Y-112.495
X285.828Y-76.935
X285.828Y-95.985
X287.416Y-131.545
X287.416Y-169.645
X292.178Y-74.395
X292.178Y-93.445
X295.353Y-115.035
X297.734Y-153.135
X301.703Y-112.495
X304.084Y-150.595
X304.878Y-76.935
X304.878Y-172.185
X311.228Y-74.395
X311.228Y-169.645
X312.022Y-134.085
X314.403Y-95.985
X318.372Y-131.545
X319.166Y-115.035
X320.753Y-93.445
X323.928Y-76.935
X323.928Y-153.135
X323.928Y-172.185
X325.516Y-112.495
X330.278Y-74.395
X330.278Y-150.595
X330.278Y-169.645
X342.978Y-76.935
X342.978Y-95.985
X342.978Y-115.035
X342.978Y-134.085
X342.978Y-153.135
X342.978Y-172.185
X349.328Y-74.395
X349.328Y-93.445
X349.328Y-112.495
X349.328Y-131.545
X349.328Y-150.595
X349.328Y-169.645
X362.028Y-76.935
X362.028Y-95.985
X362.028Y-115.035
X362.028Y-134.085
X362.028Y-153.135
X362.028Y-172.185
X368.378Y-74.395
X368.378Y-93.445
X368.378Y-112.495
X368.378Y-131.545
X368.378Y-150.595
X368.378Y-169.645
X381.078Y-76.935
X381.078Y-95.985
X381.078Y-115.035
X381.078Y-134.085
X381.078Y-153.135
X381.078Y-172.185
X387.428Y-74.395
X387.428Y-93.445
X387.428Y-112.495
X387.428Y-131.545
X387.428Y-150.595
X387.428Y-169.645
X400.128Y-76.935
X400.128Y-95.985
X400.128Y-124.56
X400.128Y-162.66
X406.478Y-74.395
X406.478Y-93.445
X406.478Y-122.02
X406.478Y-160.12
T5
X61.006Y-163.9
X84.882Y-163.9
X132.48Y-166.5
X232.48Y-166.5
X303.894Y-128.4
X306.275Y-106.75
X327.77Y-128.4
X330.151Y-106.75
X395.713Y-115.162
X395.713Y-139.038
X395.713Y-153.262
X395.713Y-177.138
T6
X61.038Y-79.475
X61.038Y-98.525
X63.418Y-174.725
X65.801Y-117.575
X68.182Y-136.625
X72.944Y-155.675
X80.088Y-79.475
X80.088Y-98.525
X87.238Y-174.725
X89.613Y-117.575
X94.376Y-136.625
X99.138Y-79.475
X99.138Y-98.525
X103.901Y-155.675
X108.663Y-117.575
X111.053Y-174.725
X113.426Y-136.625
X118.188Y-79.475
X118.188Y-98.525
X122.951Y-155.675
X127.713Y-117.575
X132.476Y-136.625
X137.238Y-79.475
X137.238Y-98.525
X142.001Y-155.675
X146.763Y-117.575
X151.526Y-136.625
X156.288Y-79.475
X156.288Y-98.525
X161.051Y-155.675
X165.813Y-117.575
X170.576Y-136.625
X175.338Y-79.475
X175.338Y-98.525
X180.101Y-155.675
X182.48Y-174.725
X184.863Y-117.575
X189.626Y-136.625
X194.388Y-79.475
X194.388Y-98.525
X199.151Y-155.675
X203.913Y-117.575
X208.676Y-136.625
X213.438Y-79.475
X213.438Y-98.525
X218.201Y-155.675
X222.963Y-117.575
X227.726Y-136.625
X232.488Y-79.475
X232.488Y-98.525
X237.251Y-155.675
X242.013Y-117.575
X246.776Y-136.625
X251.538Y-79.475
X251.538Y-98.525
X256.301Y-155.675
X256.301Y-174.725
X261.063Y-117.575
X265.826Y-136.625
X270.588Y-79.475
X270.588Y-98.525
X275.351Y-155.675
X280.113Y-117.575
X284.876Y-136.625
X284.876Y-174.725
X289.638Y-79.475
X289.638Y-98.525
X299.163Y-117.575
X301.544Y-155.675
X308.688Y-79.475
X308.688Y-174.725
X315.832Y-136.625
X318.213Y-98.525
X322.976Y-117.575
X327.738Y-79.475
X327.738Y-155.675
X327.738Y-174.725
X346.788Y-79.475
X346.788Y-98.525
X346.788Y-117.575
X346.788Y-136.625
X346.788Y-155.675
X346.788Y-174.725
X365.838Y-79.475
X365.838Y-98.525
X365.838Y-117.575
X365.838Y-136.625
X365.838Y-155.675
X365.838Y-174.725
X384.888Y-79.475
X384.888Y-98.525
X384.888Y-117.575
X384.888Y-136.625
X384.888Y-155.675
X384.888Y-174.725
X403.938Y-79.475
X403.938Y-98.525
X403.938Y-127.1
X403.938Y-165.2
M30
