%TF.GenerationSoftware,KiCad,Pcbnew,10.0.0*%
%TF.CreationDate,2026-03-27T21:22:43+05:00*%
%TF.ProjectId,rivasmario 96\u0025 Hotswap Rp2040,72697661-736d-4617-9269-6f2039362520,1*%
%TF.SameCoordinates,Original*%
%TF.FileFunction,Paste,Bot*%
%TF.FilePolarity,Positive*%
%FSLAX46Y46*%
G04 Gerber Fmt 4.6, Leading zero omitted, Abs format (unit mm)*
G04 Created by KiCad (PCBNEW 10.0.0) date 2026-03-27 21:22:43*
%MOMM*%
%LPD*%
G01*
G04 APERTURE LIST*
G04 Aperture macros list*
%AMRoundRect*
0 Rectangle with rounded corners*
0 $1 Rounding radius*
0 $2 $3 $4 $5 $6 $7 $8 $9 X,Y pos of 4 corners*
0 Add a 4 corners polygon primitive as box body*
4,1,4,$2,$3,$4,$5,$6,$7,$8,$9,$2,$3,0*
0 Add four circle primitives for the rounded corners*
1,1,$1+$1,$2,$3*
1,1,$1+$1,$4,$5*
1,1,$1+$1,$6,$7*
1,1,$1+$1,$8,$9*
0 Add four rect primitives between the rounded corners*
20,1,$1+$1,$2,$3,$4,$5,0*
20,1,$1+$1,$4,$5,$6,$7,0*
20,1,$1+$1,$6,$7,$8,$9,0*
20,1,$1+$1,$8,$9,$2,$3,0*%
%AMRotRect*
0 Rectangle, with rotation*
0 The origin of the aperture is its center*
0 $1 length*
0 $2 width*
0 $3 Rotation angle, in degrees counterclockwise*
0 Add horizontal line*
21,1,$1,$2,0,0,$3*%
G04 Aperture macros list end*
%ADD10R,0.540000X0.500000*%
%ADD11RoundRect,0.090000X0.660000X0.360000X-0.660000X0.360000X-0.660000X-0.360000X0.660000X-0.360000X0*%
%ADD12RoundRect,0.250000X-0.250000X-0.475000X0.250000X-0.475000X0.250000X0.475000X-0.250000X0.475000X0*%
%ADD13R,2.890000X2.630000*%
%ADD14R,2.740000X2.570000*%
%ADD15RoundRect,0.275000X0.335000X-0.275000X0.335000X0.275000X-0.335000X0.275000X-0.335000X-0.275000X0*%
%ADD16R,1.800000X1.100000*%
%ADD17RoundRect,0.250000X-0.475000X0.250000X-0.475000X-0.250000X0.475000X-0.250000X0.475000X0.250000X0*%
%ADD18R,1.200000X1.400000*%
%ADD19RoundRect,0.250000X0.250000X0.475000X-0.250000X0.475000X-0.250000X-0.475000X0.250000X-0.475000X0*%
%ADD20R,0.500000X0.540000*%
%ADD21RotRect,0.500000X0.540000X45.000000*%
%ADD22RoundRect,0.147500X-0.147500X-0.172500X0.147500X-0.172500X0.147500X0.172500X-0.147500X0.172500X0*%
%ADD23RoundRect,0.375000X-0.625000X-0.375000X0.625000X-0.375000X0.625000X0.375000X-0.625000X0.375000X0*%
%ADD24RoundRect,0.500000X-0.500000X-1.400000X0.500000X-1.400000X0.500000X1.400000X-0.500000X1.400000X0*%
%ADD25RoundRect,0.250000X-0.292217X-0.292217X0.292217X-0.292217X0.292217X0.292217X-0.292217X0.292217X0*%
%ADD26RoundRect,0.050000X-0.387500X-0.050000X0.387500X-0.050000X0.387500X0.050000X-0.387500X0.050000X0*%
%ADD27RoundRect,0.050000X-0.050000X-0.387500X0.050000X-0.387500X0.050000X0.387500X-0.050000X0.387500X0*%
%ADD28RoundRect,0.150000X0.650000X0.150000X-0.650000X0.150000X-0.650000X-0.150000X0.650000X-0.150000X0*%
%ADD29RotRect,0.500000X0.540000X135.000000*%
%ADD30RoundRect,0.147500X0.147500X0.172500X-0.147500X0.172500X-0.147500X-0.172500X0.147500X-0.172500X0*%
%ADD31R,0.700000X1.000000*%
%ADD32R,0.700000X0.600000*%
%ADD33R,0.600000X1.450000*%
%ADD34R,0.300000X1.450000*%
G04 APERTURE END LIST*
D10*
%TO.C,C18*%
X102304657Y-123615671D03*
X102304657Y-124455871D03*
%TD*%
D11*
%TO.C,LED14*%
X244204657Y-85425771D03*
X244204657Y-88725771D03*
X239304657Y-88725771D03*
X239304657Y-85425771D03*
%TD*%
D12*
%TO.C,C17*%
X74604657Y-106475771D03*
X76504657Y-106475771D03*
%TD*%
D13*
%TO.C,MX58*%
X377763235Y-76970000D03*
D14*
X390668235Y-74490000D03*
%TD*%
D13*
%TO.C,MX46*%
X96775735Y-153170000D03*
D14*
X109680735Y-150690000D03*
%TD*%
D13*
%TO.C,MX31*%
X61056985Y-134120000D03*
D14*
X73961985Y-131640000D03*
%TD*%
D10*
%TO.C,C7*%
X89534657Y-72895971D03*
X89534657Y-72055771D03*
%TD*%
D13*
%TO.C,MX5*%
X130113235Y-96020000D03*
D14*
X143018235Y-93540000D03*
%TD*%
D13*
%TO.C,MX7*%
X168213235Y-96020000D03*
D14*
X181118235Y-93540000D03*
%TD*%
D15*
%TO.C,D3*%
X106574657Y-101125000D03*
X106574657Y-97725000D03*
%TD*%
D13*
%TO.C,MX17*%
X82488235Y-115070000D03*
D14*
X95393235Y-112590000D03*
%TD*%
D15*
%TO.C,D84*%
X334994657Y-82075000D03*
X334994657Y-78675000D03*
%TD*%
D13*
%TO.C,MX23*%
X196788235Y-115070000D03*
D14*
X209693235Y-112590000D03*
%TD*%
D16*
%TO.C,RST1*%
X97475735Y-139905771D03*
X91275735Y-139905771D03*
X97475735Y-143605771D03*
X91275735Y-143605771D03*
%TD*%
D15*
%TO.C,D67*%
X335284657Y-177325000D03*
X335284657Y-173925000D03*
%TD*%
D13*
%TO.C,MX36*%
X163450735Y-134120000D03*
D14*
X176355735Y-131640000D03*
%TD*%
D13*
%TO.C,MX8*%
X187263235Y-96020000D03*
D14*
X200168235Y-93540000D03*
%TD*%
D13*
%TO.C,MX73*%
X358713235Y-96020000D03*
D14*
X371618235Y-93540000D03*
%TD*%
D13*
%TO.C,MX63*%
X249175735Y-172220000D03*
D14*
X262080735Y-169740000D03*
%TD*%
D13*
%TO.C,MX70*%
X111063235Y-76970000D03*
D14*
X123968235Y-74490000D03*
%TD*%
D13*
%TO.C,MX76*%
X225363235Y-76970000D03*
D14*
X238268235Y-74490000D03*
%TD*%
D11*
%TO.C,LED1*%
X58894657Y-121055771D03*
X58894657Y-124355771D03*
X53994657Y-124355771D03*
X53994657Y-121055771D03*
%TD*%
D17*
%TO.C,C30*%
X58994657Y-107095771D03*
X58994657Y-108995771D03*
%TD*%
D13*
%TO.C,MX56*%
X294419485Y-153170000D03*
D14*
X307324485Y-150690000D03*
%TD*%
D15*
%TO.C,D44*%
X354274657Y-82075000D03*
X354274657Y-78675000D03*
%TD*%
%TO.C,D94*%
X376374657Y-179415771D03*
X376374657Y-176015771D03*
%TD*%
D13*
%TO.C,MX78*%
X263463235Y-76970000D03*
D14*
X276368235Y-74490000D03*
%TD*%
D15*
%TO.C,D10*%
X239984657Y-101125000D03*
X239984657Y-97725000D03*
%TD*%
%TO.C,D28*%
X306644657Y-120175000D03*
X306644657Y-116775000D03*
%TD*%
D10*
%TO.C,C36*%
X85354657Y-122695871D03*
X85354657Y-121855671D03*
%TD*%
D13*
%TO.C,MX29*%
X315850735Y-115070000D03*
D14*
X328755735Y-112590000D03*
%TD*%
D13*
%TO.C,MX41*%
X258700735Y-134120000D03*
D14*
X271605735Y-131640000D03*
%TD*%
D13*
%TO.C,MX34*%
X125350735Y-134120000D03*
D14*
X138255735Y-131640000D03*
%TD*%
D18*
%TO.C,Y1*%
X84604657Y-132685771D03*
X84604657Y-134885771D03*
X82904657Y-134885771D03*
X82904657Y-132685771D03*
%TD*%
D15*
%TO.C,D27*%
X287604657Y-120175000D03*
X287604657Y-116775000D03*
%TD*%
D10*
%TO.C,C34*%
X80214657Y-131545671D03*
X80214657Y-132385871D03*
%TD*%
D13*
%TO.C,MX1*%
X53913235Y-96020000D03*
D14*
X66818235Y-93540000D03*
%TD*%
D13*
%TO.C,MX33*%
X106300735Y-134120000D03*
D14*
X119205735Y-131640000D03*
%TD*%
D15*
%TO.C,D82*%
X278114657Y-82075000D03*
X278114657Y-78675000D03*
%TD*%
%TO.C,D22*%
X192314657Y-120175000D03*
X192314657Y-116775000D03*
%TD*%
%TO.C,D25*%
X249444657Y-120175000D03*
X249444657Y-116775000D03*
%TD*%
D13*
%TO.C,MX91*%
X358713235Y-172220000D03*
D14*
X371618235Y-169740000D03*
%TD*%
D15*
%TO.C,D88*%
X182854657Y-82075000D03*
X182854657Y-78675000D03*
%TD*%
D13*
%TO.C,MX11*%
X244413235Y-96020000D03*
D14*
X257318235Y-93540000D03*
%TD*%
D13*
%TO.C,MX55*%
X268225735Y-153170000D03*
D14*
X281130735Y-150690000D03*
%TD*%
D13*
%TO.C,MX38*%
X201550735Y-134120000D03*
D14*
X214455735Y-131640000D03*
%TD*%
D11*
%TO.C,LED6*%
X244754657Y-161555771D03*
X244754657Y-164855771D03*
X239854657Y-164855771D03*
X239854657Y-161555771D03*
%TD*%
D15*
%TO.C,D40*%
X254314657Y-139225000D03*
X254314657Y-135825000D03*
%TD*%
D13*
%TO.C,MX83*%
X358713235Y-115070000D03*
D14*
X371618235Y-112590000D03*
%TD*%
D15*
%TO.C,D2*%
X87454657Y-101125000D03*
X87454657Y-97725000D03*
%TD*%
%TO.C,D83*%
X297124657Y-82075000D03*
X297124657Y-78675000D03*
%TD*%
D11*
%TO.C,LED9*%
X377784657Y-161555771D03*
X377784657Y-164855771D03*
X372884657Y-164855771D03*
X372884657Y-161555771D03*
%TD*%
D15*
%TO.C,D32*%
X101844657Y-139225000D03*
X101844657Y-135825000D03*
%TD*%
D10*
%TO.C,C13*%
X198584657Y-86255971D03*
X198584657Y-85415771D03*
%TD*%
D17*
%TO.C,C29*%
X61074657Y-107095771D03*
X61074657Y-108995771D03*
%TD*%
D15*
%TO.C,D35*%
X158824657Y-142035771D03*
X158824657Y-138635771D03*
%TD*%
D13*
%TO.C,MX45*%
X65819485Y-153170000D03*
D14*
X78724485Y-150690000D03*
%TD*%
D15*
%TO.C,D57*%
X95554657Y-88935771D03*
X95554657Y-85535771D03*
%TD*%
D13*
%TO.C,MX6*%
X149163235Y-96020000D03*
D14*
X162068235Y-93540000D03*
%TD*%
D13*
%TO.C,MX67*%
X339663235Y-96020000D03*
D14*
X352568235Y-93540000D03*
%TD*%
D10*
%TO.C,C22*%
X132114657Y-86265971D03*
X132114657Y-85425771D03*
%TD*%
D11*
%TO.C,LED4*%
X144450735Y-161555771D03*
X144450735Y-164855771D03*
X139550735Y-164855771D03*
X139550735Y-161555771D03*
%TD*%
D10*
%TO.C,C45*%
X80214657Y-133545671D03*
X80214657Y-134385871D03*
%TD*%
D13*
%TO.C,MX51*%
X192025735Y-153170000D03*
D14*
X204930735Y-150690000D03*
%TD*%
D15*
%TO.C,D20*%
X154254657Y-120175000D03*
X154254657Y-116775000D03*
%TD*%
%TO.C,D75*%
X144604657Y-82075000D03*
X144604657Y-78675000D03*
%TD*%
D10*
%TO.C,C11*%
X360594657Y-86245871D03*
X360594657Y-85405671D03*
%TD*%
D13*
%TO.C,MX72*%
X149163235Y-76970000D03*
D14*
X162068235Y-74490000D03*
%TD*%
D15*
%TO.C,D38*%
X216154657Y-139225000D03*
X216154657Y-135825000D03*
%TD*%
%TO.C,D51*%
X206614657Y-158275000D03*
X206614657Y-154875000D03*
%TD*%
D13*
%TO.C,MX97*%
X358713235Y-153170000D03*
D14*
X371618235Y-150690000D03*
%TD*%
D13*
%TO.C,MX48*%
X134875735Y-153170000D03*
D14*
X147780735Y-150690000D03*
%TD*%
D13*
%TO.C,MX69*%
X92013235Y-76970000D03*
D14*
X104918235Y-74490000D03*
%TD*%
D13*
%TO.C,MX95*%
X396813235Y-124595000D03*
D14*
X409718235Y-122115000D03*
%TD*%
D19*
%TO.C,C31*%
X63414657Y-105285771D03*
X61514657Y-105285771D03*
%TD*%
D15*
%TO.C,D91*%
X335274657Y-158275000D03*
X335274657Y-154875000D03*
%TD*%
D13*
%TO.C,MX90*%
X339663235Y-134120000D03*
D14*
X352568235Y-131640000D03*
%TD*%
D15*
%TO.C,D26*%
X268444657Y-120175000D03*
X268444657Y-116775000D03*
%TD*%
D11*
%TO.C,LED16*%
X130124657Y-85425771D03*
X130124657Y-88725771D03*
X125224657Y-88725771D03*
X125224657Y-85425771D03*
%TD*%
D10*
%TO.C,C19*%
X99254657Y-162375871D03*
X99254657Y-161535671D03*
%TD*%
D13*
%TO.C,MX82*%
X339663235Y-115070000D03*
D14*
X352568235Y-112590000D03*
%TD*%
D13*
%TO.C,MX54*%
X249175735Y-153170000D03*
D14*
X262080735Y-150690000D03*
%TD*%
D10*
%TO.C,C39*%
X75034657Y-126735671D03*
X75034657Y-127575871D03*
%TD*%
D19*
%TO.C,C27*%
X63924657Y-75395771D03*
X62024657Y-75395771D03*
%TD*%
D13*
%TO.C,MX86*%
X168213235Y-76970000D03*
D14*
X181118235Y-74490000D03*
%TD*%
D10*
%TO.C,C21*%
X246064657Y-86255971D03*
X246064657Y-85415771D03*
%TD*%
D15*
%TO.C,D100*%
X392134657Y-158275000D03*
X392134657Y-154875000D03*
%TD*%
D13*
%TO.C,MX13*%
X282513235Y-96020000D03*
D14*
X295418235Y-93540000D03*
%TD*%
D15*
%TO.C,D1*%
X68354657Y-101125000D03*
X68354657Y-97725000D03*
%TD*%
D10*
%TO.C,C12*%
X303354657Y-86255871D03*
X303354657Y-85415671D03*
%TD*%
D15*
%TO.C,D30*%
X373364657Y-82075000D03*
X373364657Y-78675000D03*
%TD*%
D13*
%TO.C,MX61*%
X103928235Y-172220000D03*
D14*
X116833235Y-169740000D03*
%TD*%
D20*
%TO.C,C44*%
X84124457Y-131085771D03*
X84964657Y-131085771D03*
%TD*%
D11*
%TO.C,LED13*%
X301614657Y-85425771D03*
X301614657Y-88725771D03*
X296714657Y-88725771D03*
X296714657Y-85425771D03*
%TD*%
D13*
%TO.C,MX59*%
X56293235Y-172220000D03*
D14*
X69198235Y-169740000D03*
%TD*%
D13*
%TO.C,MX85*%
X339663235Y-172220000D03*
D14*
X352568235Y-169740000D03*
%TD*%
D15*
%TO.C,D71*%
X98134657Y-88935771D03*
X98134657Y-85535771D03*
%TD*%
D21*
%TO.C,C35*%
X81294657Y-120215771D03*
X81888769Y-119621659D03*
%TD*%
D15*
%TO.C,D85*%
X373654657Y-123285771D03*
X373654657Y-119885771D03*
%TD*%
D13*
%TO.C,MX60*%
X80113235Y-172220000D03*
D14*
X93018235Y-169740000D03*
%TD*%
D21*
%TO.C,C42*%
X80514657Y-119445771D03*
X81108769Y-118851659D03*
%TD*%
D13*
%TO.C,MX30*%
X358713235Y-76970000D03*
D14*
X371618235Y-74490000D03*
%TD*%
D15*
%TO.C,D21*%
X173304657Y-120175000D03*
X173304657Y-116775000D03*
%TD*%
D13*
%TO.C,MX37*%
X182500735Y-134120000D03*
D14*
X195405735Y-131640000D03*
%TD*%
D22*
%TO.C,Test1*%
X72664657Y-123745771D03*
X73634657Y-123745771D03*
%TD*%
D13*
%TO.C,MX47*%
X115825735Y-153170000D03*
D14*
X128730735Y-150690000D03*
%TD*%
D15*
%TO.C,D4*%
X125694657Y-101125000D03*
X125694657Y-97725000D03*
%TD*%
D11*
%TO.C,LED2*%
X58894657Y-154025000D03*
X58894657Y-157325000D03*
X53994657Y-157325000D03*
X53994657Y-154025000D03*
%TD*%
D13*
%TO.C,MX81*%
X244413235Y-76970000D03*
D14*
X257318235Y-74490000D03*
%TD*%
D11*
%TO.C,LED18*%
X58894657Y-72075771D03*
X58894657Y-75375771D03*
X53994657Y-75375771D03*
X53994657Y-72075771D03*
%TD*%
%TO.C,LED11*%
X406414657Y-85425771D03*
X406414657Y-88725771D03*
X401514657Y-88725771D03*
X401514657Y-85425771D03*
%TD*%
D15*
%TO.C,D61*%
X118434657Y-177325000D03*
X118434657Y-173925000D03*
%TD*%
%TO.C,D11*%
X259034657Y-101125000D03*
X259034657Y-97725000D03*
%TD*%
%TO.C,D69*%
X373334657Y-101125000D03*
X373334657Y-97725000D03*
%TD*%
D13*
%TO.C,MX3*%
X92013235Y-96020000D03*
D14*
X104918235Y-93540000D03*
%TD*%
D23*
%TO.C,U1*%
X65534657Y-108498271D03*
X65534657Y-106198271D03*
D24*
X71834657Y-106198271D03*
D23*
X65534657Y-103898271D03*
%TD*%
D13*
%TO.C,MX50*%
X172975735Y-153170000D03*
D14*
X185880735Y-150690000D03*
%TD*%
D15*
%TO.C,D78*%
X202014657Y-82075000D03*
X202014657Y-78675000D03*
%TD*%
D13*
%TO.C,MX99*%
X396813235Y-162695000D03*
D14*
X409718235Y-160215000D03*
%TD*%
D15*
%TO.C,D31*%
X74114657Y-141965771D03*
X74114657Y-138565771D03*
%TD*%
%TO.C,D64*%
X292314657Y-177325000D03*
X292314657Y-173925000D03*
%TD*%
D13*
%TO.C,MX96*%
X339663235Y-153170000D03*
D14*
X352568235Y-150690000D03*
%TD*%
D15*
%TO.C,D99*%
X373434657Y-158275000D03*
X373434657Y-154875000D03*
%TD*%
D13*
%TO.C,MX79*%
X282513235Y-76970000D03*
D14*
X295418235Y-74490000D03*
%TD*%
D13*
%TO.C,MX65*%
X301563235Y-172220000D03*
D14*
X314468235Y-169740000D03*
%TD*%
D13*
%TO.C,MX4*%
X111063235Y-96020000D03*
D14*
X123968235Y-93540000D03*
%TD*%
D15*
%TO.C,D36*%
X161264657Y-142035771D03*
X161264657Y-138635771D03*
%TD*%
%TO.C,D55*%
X282874657Y-158275000D03*
X282874657Y-154875000D03*
%TD*%
D11*
%TO.C,LED15*%
X196838235Y-85425771D03*
X196838235Y-88725771D03*
X191938235Y-88725771D03*
X191938235Y-85425771D03*
%TD*%
D15*
%TO.C,D8*%
X201964657Y-101125000D03*
X201964657Y-97725000D03*
%TD*%
D13*
%TO.C,MX53*%
X230125735Y-153170000D03*
D14*
X243030735Y-150690000D03*
%TD*%
D13*
%TO.C,MX62*%
X175355000Y-172220000D03*
D14*
X188260000Y-169740000D03*
%TD*%
D15*
%TO.C,D41*%
X273304657Y-139225000D03*
X273304657Y-135825000D03*
%TD*%
D13*
%TO.C,MX74*%
X187263235Y-76970000D03*
D14*
X200168235Y-74490000D03*
%TD*%
D15*
%TO.C,D49*%
X168484657Y-158275000D03*
X168484657Y-154875000D03*
%TD*%
D25*
%TO.C,U4*%
X81252157Y-126148271D03*
X81252157Y-124873271D03*
X79977157Y-126148271D03*
X79977157Y-124873271D03*
D26*
X84052157Y-122910771D03*
X84052157Y-123310771D03*
X84052157Y-123710771D03*
X84052157Y-124110771D03*
X84052157Y-124510771D03*
X84052157Y-124910771D03*
X84052157Y-125310771D03*
X84052157Y-125710771D03*
X84052157Y-126110771D03*
X84052157Y-126510771D03*
X84052157Y-126910771D03*
X84052157Y-127310771D03*
X84052157Y-127710771D03*
X84052157Y-128110771D03*
D27*
X83214657Y-128948271D03*
X82814657Y-128948271D03*
X82414657Y-128948271D03*
X82014657Y-128948271D03*
X81614657Y-128948271D03*
X81214657Y-128948271D03*
X80814657Y-128948271D03*
X80414657Y-128948271D03*
X80014657Y-128948271D03*
X79614657Y-128948271D03*
X79214657Y-128948271D03*
X78814657Y-128948271D03*
X78414657Y-128948271D03*
X78014657Y-128948271D03*
D26*
X77177157Y-128110771D03*
X77177157Y-127710771D03*
X77177157Y-127310771D03*
X77177157Y-126910771D03*
X77177157Y-126510771D03*
X77177157Y-126110771D03*
X77177157Y-125710771D03*
X77177157Y-125310771D03*
X77177157Y-124910771D03*
X77177157Y-124510771D03*
X77177157Y-124110771D03*
X77177157Y-123710771D03*
X77177157Y-123310771D03*
X77177157Y-122910771D03*
D27*
X78014657Y-122073271D03*
X78414657Y-122073271D03*
X78814657Y-122073271D03*
X79214657Y-122073271D03*
X79614657Y-122073271D03*
X80014657Y-122073271D03*
X80414657Y-122073271D03*
X80814657Y-122073271D03*
X81214657Y-122073271D03*
X81614657Y-122073271D03*
X82014657Y-122073271D03*
X82414657Y-122073271D03*
X82814657Y-122073271D03*
X83214657Y-122073271D03*
%TD*%
D13*
%TO.C,MX75*%
X206313235Y-76970000D03*
D14*
X219218235Y-74490000D03*
%TD*%
D15*
%TO.C,D42*%
X292414657Y-139225000D03*
X292414657Y-135825000D03*
%TD*%
D13*
%TO.C,MX21*%
X158688235Y-115070000D03*
D14*
X171593235Y-112590000D03*
%TD*%
D20*
%TO.C,C14*%
X406054557Y-137175771D03*
X406894757Y-137175771D03*
%TD*%
D15*
%TO.C,D63*%
X263804657Y-177325000D03*
X263804657Y-173925000D03*
%TD*%
D12*
%TO.C,C1*%
X74604657Y-112675771D03*
X76504657Y-112675771D03*
%TD*%
D15*
%TO.C,D79*%
X221024657Y-82075000D03*
X221024657Y-78675000D03*
%TD*%
%TO.C,D87*%
X354284657Y-177325000D03*
X354284657Y-173925000D03*
%TD*%
%TO.C,D77*%
X354204657Y-120175000D03*
X354204657Y-116775000D03*
%TD*%
%TO.C,D48*%
X149434657Y-158275000D03*
X149434657Y-154875000D03*
%TD*%
%TO.C,D23*%
X211404657Y-120175000D03*
X211404657Y-116775000D03*
%TD*%
D10*
%TO.C,C25*%
X60754657Y-154855871D03*
X60754657Y-154015671D03*
%TD*%
%TO.C,C26*%
X146424657Y-162405971D03*
X146424657Y-161565771D03*
%TD*%
D15*
%TO.C,D81*%
X259124657Y-82075000D03*
X259124657Y-78675000D03*
%TD*%
D13*
%TO.C,MX94*%
X377763235Y-134120000D03*
D14*
X390668235Y-131640000D03*
%TD*%
D13*
%TO.C,MX26*%
X253938235Y-115070000D03*
D14*
X266843235Y-112590000D03*
%TD*%
D20*
%TO.C,C37*%
X86104557Y-126735771D03*
X86944757Y-126735771D03*
%TD*%
D13*
%TO.C,MX18*%
X101538235Y-115070000D03*
D14*
X114443235Y-112590000D03*
%TD*%
D13*
%TO.C,MX12*%
X263463235Y-96020000D03*
D14*
X276368235Y-93540000D03*
%TD*%
D13*
%TO.C,MX98*%
X377763235Y-153170000D03*
D14*
X390668235Y-150690000D03*
%TD*%
D13*
%TO.C,MX87*%
X396813235Y-76970000D03*
D14*
X409718235Y-74490000D03*
%TD*%
D11*
%TO.C,LED10*%
X406388235Y-132025771D03*
X406388235Y-135325771D03*
X401488235Y-135325771D03*
X401488235Y-132025771D03*
%TD*%
%TO.C,LED17*%
X87694657Y-72075771D03*
X87694657Y-75375771D03*
X82794657Y-75375771D03*
X82794657Y-72075771D03*
%TD*%
D13*
%TO.C,MX2*%
X72963235Y-96020000D03*
D14*
X85868235Y-93540000D03*
%TD*%
D20*
%TO.C,C40*%
X75834657Y-120525771D03*
X74994457Y-120525771D03*
%TD*%
D15*
%TO.C,D54*%
X263734657Y-158275000D03*
X263734657Y-154875000D03*
%TD*%
D13*
%TO.C,MX68*%
X301563235Y-76970000D03*
D14*
X314468235Y-74490000D03*
%TD*%
D10*
%TO.C,C24*%
X335994657Y-162395871D03*
X335994657Y-161555671D03*
%TD*%
D15*
%TO.C,D6*%
X163714657Y-101125000D03*
X163714657Y-97725000D03*
%TD*%
%TO.C,D59*%
X70814657Y-177325000D03*
X70814657Y-173925000D03*
%TD*%
%TO.C,D7*%
X182804657Y-101125000D03*
X182804657Y-97725000D03*
%TD*%
D28*
%TO.C,U3*%
X93314657Y-123955771D03*
X93314657Y-122685771D03*
X93314657Y-121415771D03*
X93314657Y-120145771D03*
X100514657Y-120145771D03*
X100514657Y-121415771D03*
X100514657Y-122685771D03*
X100514657Y-123955771D03*
%TD*%
D15*
%TO.C,D74*%
X125514657Y-82075000D03*
X125514657Y-78675000D03*
%TD*%
D29*
%TO.C,C5*%
X79754657Y-120205771D03*
X79160545Y-119611659D03*
%TD*%
D15*
%TO.C,D80*%
X240014657Y-82075000D03*
X240014657Y-78675000D03*
%TD*%
D10*
%TO.C,C41*%
X75834657Y-121615571D03*
X75834657Y-122455771D03*
%TD*%
D13*
%TO.C,MX92*%
X377763235Y-172220000D03*
D14*
X390668235Y-169740000D03*
%TD*%
D13*
%TO.C,MX28*%
X292038235Y-115070000D03*
D14*
X304943235Y-112590000D03*
%TD*%
D15*
%TO.C,D76*%
X163994657Y-82075000D03*
X163994657Y-78675000D03*
%TD*%
%TO.C,D17*%
X118314657Y-122515771D03*
X118314657Y-119115771D03*
%TD*%
%TO.C,D90*%
X411424657Y-101125000D03*
X411424657Y-97725000D03*
%TD*%
D12*
%TO.C,C4*%
X74604657Y-114735771D03*
X76504657Y-114735771D03*
%TD*%
D13*
%TO.C,MX16*%
X58675735Y-115070000D03*
D14*
X71580735Y-112590000D03*
%TD*%
D15*
%TO.C,D46*%
X111334657Y-158275000D03*
X111334657Y-154875000D03*
%TD*%
%TO.C,D53*%
X244614657Y-158275000D03*
X244614657Y-154875000D03*
%TD*%
%TO.C,D95*%
X373654657Y-141845771D03*
X373654657Y-138445771D03*
%TD*%
D10*
%TO.C,C9*%
X193654657Y-162415971D03*
X193654657Y-161575771D03*
%TD*%
%TO.C,C43*%
X74724657Y-121615671D03*
X74724657Y-122455871D03*
%TD*%
D13*
%TO.C,MX80*%
X320613235Y-76970000D03*
D14*
X333518235Y-74490000D03*
%TD*%
D30*
%TO.C,Pwr1*%
X80394657Y-71865771D03*
X79424657Y-71865771D03*
%TD*%
D13*
%TO.C,MX14*%
X311088235Y-96020000D03*
D14*
X323993235Y-93540000D03*
%TD*%
D15*
%TO.C,D62*%
X189954657Y-177325000D03*
X189954657Y-173925000D03*
%TD*%
%TO.C,D72*%
X392394657Y-101125000D03*
X392394657Y-97725000D03*
%TD*%
D13*
%TO.C,MX32*%
X87250735Y-134120000D03*
D14*
X100155735Y-131640000D03*
%TD*%
D16*
%TO.C,Boot1*%
X111794657Y-120855771D03*
X105594657Y-120855771D03*
X111794657Y-124555771D03*
X105594657Y-124555771D03*
%TD*%
D15*
%TO.C,D52*%
X225734657Y-158275000D03*
X225734657Y-154875000D03*
%TD*%
D13*
%TO.C,MX89*%
X320613235Y-153170000D03*
D14*
X333518235Y-150690000D03*
%TD*%
D15*
%TO.C,D96*%
X376374657Y-141845771D03*
X376374657Y-138445771D03*
%TD*%
D10*
%TO.C,C8*%
X290914657Y-162385971D03*
X290914657Y-161545771D03*
%TD*%
%TO.C,C15*%
X246574657Y-162385871D03*
X246574657Y-161545671D03*
%TD*%
D15*
%TO.C,D86*%
X376374657Y-123285771D03*
X376374657Y-119885771D03*
%TD*%
%TO.C,D14*%
X325714657Y-101125000D03*
X325714657Y-97725000D03*
%TD*%
%TO.C,D18*%
X115914657Y-122515771D03*
X115914657Y-119115771D03*
%TD*%
D12*
%TO.C,C3*%
X74604657Y-110655771D03*
X76504657Y-110655771D03*
%TD*%
D15*
%TO.C,D5*%
X144734657Y-101125000D03*
X144734657Y-97725000D03*
%TD*%
D13*
%TO.C,MX15*%
X68163235Y-81980000D03*
D14*
X55258235Y-84460000D03*
%TD*%
D13*
%TO.C,MX42*%
X277750735Y-134120000D03*
D14*
X290655735Y-131640000D03*
%TD*%
D13*
%TO.C,MX27*%
X272988235Y-115070000D03*
D14*
X285893235Y-112590000D03*
%TD*%
D15*
%TO.C,D60*%
X94644657Y-177325000D03*
X94644657Y-173925000D03*
%TD*%
%TO.C,D33*%
X120904657Y-139225000D03*
X120904657Y-135825000D03*
%TD*%
%TO.C,D92*%
X354204657Y-139225000D03*
X354204657Y-135825000D03*
%TD*%
%TO.C,D16*%
X73064657Y-120175000D03*
X73064657Y-116775000D03*
%TD*%
%TO.C,D12*%
X278124657Y-101125000D03*
X278124657Y-97725000D03*
%TD*%
D10*
%TO.C,C16*%
X60684657Y-121895871D03*
X60684657Y-121055671D03*
%TD*%
D15*
%TO.C,D19*%
X135204657Y-120175000D03*
X135204657Y-116775000D03*
%TD*%
%TO.C,D9*%
X220974657Y-101125000D03*
X220974657Y-97725000D03*
%TD*%
D13*
%TO.C,MX93*%
X358713235Y-134120000D03*
D14*
X371618235Y-131640000D03*
%TD*%
D15*
%TO.C,D47*%
X130424657Y-158275000D03*
X130424657Y-154875000D03*
%TD*%
D11*
%TO.C,LED8*%
X334224657Y-161555771D03*
X334224657Y-164855771D03*
X329324657Y-164855771D03*
X329324657Y-161555771D03*
%TD*%
D13*
%TO.C,MX49*%
X153925735Y-153170000D03*
D14*
X166830735Y-150690000D03*
%TD*%
D13*
%TO.C,MX84*%
X377763235Y-115070000D03*
D14*
X390668235Y-112590000D03*
%TD*%
D15*
%TO.C,D24*%
X230384657Y-120175000D03*
X230384657Y-116775000D03*
%TD*%
%TO.C,D13*%
X297074657Y-101125000D03*
X297074657Y-97725000D03*
%TD*%
%TO.C,D73*%
X100714657Y-88935771D03*
X100714657Y-85535771D03*
%TD*%
%TO.C,D15*%
X316504657Y-82075000D03*
X316504657Y-78675000D03*
%TD*%
%TO.C,D29*%
X330474657Y-120175000D03*
X330474657Y-116775000D03*
%TD*%
D10*
%TO.C,C20*%
X408174657Y-86255871D03*
X408174657Y-85415671D03*
%TD*%
D15*
%TO.C,D98*%
X354554657Y-158275000D03*
X354554657Y-154875000D03*
%TD*%
D10*
%TO.C,C23*%
X379554657Y-162395871D03*
X379554657Y-161555671D03*
%TD*%
D13*
%TO.C,MX19*%
X120588235Y-115070000D03*
D14*
X133493235Y-112590000D03*
%TD*%
D13*
%TO.C,MX52*%
X211075735Y-153170000D03*
D14*
X223980735Y-150690000D03*
%TD*%
D13*
%TO.C,MX77*%
X377763235Y-96020000D03*
D14*
X390668235Y-93540000D03*
%TD*%
D13*
%TO.C,MX66*%
X320613235Y-172220000D03*
D14*
X333518235Y-169740000D03*
%TD*%
D13*
%TO.C,MX25*%
X234888235Y-115070000D03*
D14*
X247793235Y-112590000D03*
%TD*%
D13*
%TO.C,MX43*%
X308706985Y-134120000D03*
D14*
X321611985Y-131640000D03*
%TD*%
D15*
%TO.C,D45*%
X80384657Y-158275000D03*
X80384657Y-154875000D03*
%TD*%
D13*
%TO.C,MX88*%
X396813235Y-96020000D03*
D14*
X409718235Y-93540000D03*
%TD*%
D13*
%TO.C,MX35*%
X144400735Y-134120000D03*
D14*
X157305735Y-131640000D03*
%TD*%
D13*
%TO.C,MX64*%
X277750735Y-172220000D03*
D14*
X290655735Y-169740000D03*
%TD*%
D13*
%TO.C,MX71*%
X130113235Y-76970000D03*
D14*
X143018235Y-74490000D03*
%TD*%
D13*
%TO.C,MX9*%
X206313235Y-96020000D03*
D14*
X219218235Y-93540000D03*
%TD*%
D11*
%TO.C,LED3*%
X97364657Y-161555771D03*
X97364657Y-164855771D03*
X92464657Y-164855771D03*
X92464657Y-161555771D03*
%TD*%
D13*
%TO.C,MX40*%
X239650735Y-134120000D03*
D14*
X252555735Y-131640000D03*
%TD*%
D11*
%TO.C,LED12*%
X358814657Y-85425771D03*
X358814657Y-88725771D03*
X353914657Y-88725771D03*
X353914657Y-85425771D03*
%TD*%
D13*
%TO.C,MX10*%
X225363235Y-96020000D03*
D14*
X238268235Y-93540000D03*
%TD*%
D19*
%TO.C,C10*%
X63414657Y-103245771D03*
X61514657Y-103245771D03*
%TD*%
D20*
%TO.C,C6*%
X61714857Y-72065771D03*
X60874657Y-72065771D03*
%TD*%
D31*
%TO.C,ESD1*%
X70844657Y-86225771D03*
D32*
X70844657Y-87925771D03*
X68844657Y-87925771D03*
X68844657Y-86025771D03*
%TD*%
D15*
%TO.C,D34*%
X139944657Y-139225000D03*
X139944657Y-135825000D03*
%TD*%
D20*
%TO.C,C33*%
X77754656Y-120785771D03*
X76914456Y-120785771D03*
%TD*%
D33*
%TO.C,J4*%
X67288235Y-76345000D03*
X68088235Y-76345000D03*
D34*
X69288235Y-76345000D03*
X70288235Y-76345000D03*
X70788235Y-76345000D03*
X71788235Y-76345000D03*
D33*
X72988235Y-76345000D03*
X73788235Y-76345000D03*
X73788235Y-76345000D03*
X72988235Y-76345000D03*
D34*
X72288235Y-76345000D03*
X71288235Y-76345000D03*
X69788235Y-76345000D03*
X68788235Y-76345000D03*
D33*
X68088235Y-76345000D03*
X67288235Y-76345000D03*
%TD*%
D13*
%TO.C,MX24*%
X215838235Y-115070000D03*
D14*
X228743235Y-112590000D03*
%TD*%
D15*
%TO.C,D39*%
X235164657Y-139225000D03*
X235164657Y-135825000D03*
%TD*%
D13*
%TO.C,MX57*%
X87213235Y-81980000D03*
D14*
X74308235Y-84460000D03*
%TD*%
D13*
%TO.C,MX22*%
X177738235Y-115070000D03*
D14*
X190643235Y-112590000D03*
%TD*%
D15*
%TO.C,D37*%
X197134657Y-139225000D03*
X197134657Y-135825000D03*
%TD*%
D17*
%TO.C,C32*%
X63134657Y-107095771D03*
X63134657Y-108995771D03*
%TD*%
D12*
%TO.C,C2*%
X74604657Y-108525771D03*
X76504657Y-108525771D03*
%TD*%
D11*
%TO.C,LED5*%
X191884657Y-161555771D03*
X191884657Y-164855771D03*
X186984657Y-164855771D03*
X186984657Y-161555771D03*
%TD*%
D13*
%TO.C,MX20*%
X139638235Y-115070000D03*
D14*
X152543235Y-112590000D03*
%TD*%
D11*
%TO.C,LED7*%
X289134657Y-161555771D03*
X289134657Y-164855771D03*
X284234657Y-164855771D03*
X284234657Y-161555771D03*
%TD*%
D15*
%TO.C,D58*%
X392514657Y-82075000D03*
X392514657Y-78675000D03*
%TD*%
%TO.C,D101*%
X411314657Y-167855771D03*
X411314657Y-164455771D03*
%TD*%
%TO.C,D66*%
X316184657Y-177325000D03*
X316184657Y-173925000D03*
%TD*%
D13*
%TO.C,MX39*%
X220600735Y-134120000D03*
D14*
X233505735Y-131640000D03*
%TD*%
D15*
%TO.C,D56*%
X309054657Y-158275000D03*
X309054657Y-154875000D03*
%TD*%
%TO.C,D89*%
X411404657Y-82075000D03*
X411404657Y-78675000D03*
%TD*%
%TO.C,D97*%
X411124657Y-129525771D03*
X411124657Y-126125771D03*
%TD*%
%TO.C,D93*%
X373654657Y-179415771D03*
X373654657Y-176015771D03*
%TD*%
D13*
%TO.C,MX44*%
X339663235Y-76970000D03*
D14*
X352568235Y-74490000D03*
%TD*%
D15*
%TO.C,D43*%
X323074657Y-139225000D03*
X323074657Y-135825000D03*
%TD*%
%TO.C,D68*%
X354324657Y-101125000D03*
X354324657Y-97725000D03*
%TD*%
D10*
%TO.C,C38*%
X81314657Y-131545671D03*
X81314657Y-132385871D03*
%TD*%
D15*
%TO.C,D50*%
X187564657Y-158275000D03*
X187564657Y-154875000D03*
%TD*%
M02*
