M48
METRIC
T1C0.300
T2C0.350
T3C0.600
T4C0.650
T5C2.200
%
G90
G05
T1
X52.655Y-151.446
X52.805Y-124.376
X52.805Y-157.336
X52.845Y-75.356
X53.595Y-135.686
X53.915Y-158.486
X53.965Y-125.476
X54.105Y-127.996
X54.295Y-171.996
X54.545Y-165.956
X55.115Y-89.286
X55.305Y-160.946
X56.245Y-178.566
X56.465Y-76.916
X56.635Y-115.056
X57.115Y-108.926
X58.665Y-151.216
X58.995Y-106.066
X58.995Y-134.096
X59.485Y-138.566
X59.925Y-109.906
X59.995Y-72.066
X60.035Y-121.056
X60.215Y-103.336
X60.605Y-105.286
X60.695Y-122.546
X60.745Y-155.566
X60.945Y-140.626
X60.995Y-75.396
X61.035Y-110.046
X61.087Y-142.539
X61.435Y-159.076
X61.495Y-101.956
X61.705Y-71.366
X62.005Y-76.446
X62.455Y-72.056
X63.185Y-110.146
X63.705Y-85.766
X63.955Y-76.646
X63.995Y-128.146
X64.475Y-124.746
X64.565Y-71.956
X65.475Y-102.576
X65.495Y-90.846
X65.535Y-109.886
X65.595Y-151.156
X65.945Y-88.126
X66.905Y-89.976
X67.005Y-108.456
X68.105Y-77.626
X68.105Y-86.046
X68.675Y-104.326
X68.905Y-122.796
X68.935Y-108.656
X69.125Y-91.816
X69.355Y-102.216
X69.585Y-79.676
X70.105Y-100.826
X71.215Y-90.026
X71.365Y-92.696
X71.685Y-86.246
X71.735Y-79.396
X71.855Y-101.916
X71.875Y-123.716
X72.145Y-81.676
X72.305Y-80.096
X72.525Y-126.476
X72.525Y-127.246
X72.525Y-128.066
X72.525Y-128.966
X72.555Y-88.486
X72.595Y-94.176
X72.685Y-123.006
X72.902Y-79.369
X73.035Y-77.616
X73.085Y-98.986
X73.095Y-121.126
X73.105Y-122.186
X74.005Y-129.536
X74.065Y-122.476
X74.085Y-142.796
X74.994Y-119.396
X75.025Y-128.066
X75.175Y-134.006
X75.375Y-100.806
X75.595Y-126.786
X75.605Y-105.056
X76.325Y-117.266
X76.465Y-111.766
X76.475Y-116.046
X76.485Y-109.686
X76.635Y-71.856
X76.795Y-78.046
X76.915Y-119.546
X77.145Y-122.296
X77.775Y-166.006
X77.825Y-102.306
X78.005Y-172.296
X78.075Y-76.336
X79.165Y-112.936
X79.175Y-115.936
X79.185Y-114.626
X79.245Y-104.106
X79.365Y-108.246
X79.365Y-116.956
X79.385Y-110.706
X79.415Y-106.376
X79.465Y-141.836
X79.545Y-140.306
X79.635Y-118.816
X79.755Y-117.906
X80.335Y-120.629
X80.395Y-71.126
X80.655Y-118.396
X80.655Y-127.706
X80.755Y-132.666
X80.765Y-130.626
X80.965Y-71.866
X81.065Y-146.916
X81.195Y-135.466
X81.615Y-127.886
X81.635Y-75.406
X82.505Y-113.256
X82.525Y-127.696
X82.755Y-126.076
X82.815Y-76.436
X82.885Y-131.636
X82.995Y-123.326
X83.015Y-124.216
X83.615Y-102.086
X83.775Y-136.136
X84.025Y-122.256
X84.605Y-135.956
X85.535Y-131.056
X85.565Y-126.736
X85.945Y-121.876
X86.265Y-105.716
X86.925Y-127.316
X87.205Y-83.936
X87.265Y-132.296
X88.345Y-126.136
X88.515Y-127.246
X88.875Y-72.076
X88.895Y-138.876
X89.385Y-127.076
X89.605Y-152.886
X89.865Y-142.806
X90.005Y-76.936
X90.175Y-96.016
X90.315Y-72.876
X91.115Y-123.906
X91.305Y-164.836
X91.975Y-130.266
X92.275Y-120.596
X92.465Y-165.836
X94.645Y-120.556
X94.805Y-153.126
X95.025Y-121.626
X95.215Y-122.656
X96.275Y-121.506
X97.155Y-126.266
X97.245Y-177.325
X97.535Y-121.346
X97.535Y-158.275
X98.095Y-126.326
X98.925Y-143.636
X99.055Y-126.306
X99.245Y-162.996
X99.365Y-141.896
X99.665Y-115.236
X100.615Y-124.496
X102.035Y-172.236
X102.275Y-125.036
X102.765Y-122.426
X103.455Y-140.426
X103.505Y-106.056
X103.625Y-124.676
X104.425Y-126.666
X104.425Y-134.196
X106.065Y-143.606
X106.575Y-102.316
X108.35Y-88.201
X109.055Y-96.126
X110.045Y-82.075
X110.425Y-142.146
X110.535Y-72.946
X110.615Y-78.866
X113.295Y-124.626
X113.845Y-153.106
X114.505Y-89.476
X115.005Y-85.896
X118.765Y-115.126
X119.9Y-126.781
X123.485Y-134.206
X123.875Y-88.706
X125.245Y-89.836
X127.785Y-73.226
X128.055Y-96.156
X128.065Y-76.906
X132.835Y-153.186
X133.035Y-86.256
X137.445Y-114.796
X137.445Y-124.816
X138.345Y-164.886
X139.565Y-165.966
X140.235Y-88.026
X142.255Y-133.986
X146.425Y-163.016
X147.105Y-76.736
X147.135Y-95.886
X151.805Y-153.186
X156.765Y-115.046
X156.765Y-125.056
X161.405Y-134.126
X166.255Y-76.906
X166.295Y-95.956
X170.965Y-153.176
X173.415Y-172.296
X175.505Y-114.726
X175.515Y-125.056
X178.255Y-88.076
X180.495Y-133.846
X185.035Y-95.786
X185.205Y-76.876
X185.825Y-164.846
X186.915Y-165.886
X189.875Y-153.146
X190.715Y-88.736
X192.035Y-89.966
X193.635Y-163.056
X194.725Y-115.286
X194.725Y-125.206
X199.505Y-134.266
X199.535Y-86.256
X204.155Y-96.136
X204.185Y-76.906
X209.035Y-153.076
X213.705Y-115.006
X213.765Y-126.146
X218.555Y-133.986
X223.245Y-77.036
X223.265Y-96.066
X228.015Y-153.216
X232.865Y-115.246
X237.545Y-134.296
X237.775Y-88.706
X238.655Y-164.876
X239.315Y-89.876
X239.825Y-165.856
X241.46Y-144.461
X242.265Y-95.966
X242.269Y-76.97
X246.155Y-162.946
X246.935Y-86.286
X247.145Y-153.166
X247.165Y-172.446
X247.845Y-162.386
X251.845Y-115.216
X256.715Y-134.146
X260.515Y-144.836
X261.635Y-96.216
X261.645Y-76.916
X266.225Y-153.066
X270.865Y-115.106
X275.665Y-133.906
X275.825Y-172.166
X280.375Y-96.086
X280.605Y-76.826
X281.555Y-145.166
X283.065Y-164.866
X284.245Y-165.806
X290.065Y-115.126
X291.625Y-162.396
X292.235Y-145.436
X292.235Y-153.236
X295.555Y-88.756
X296.745Y-89.886
X299.515Y-76.726
X299.615Y-172.216
X304.215Y-86.226
X306.805Y-134.12
X309.075Y-96.156
X313.745Y-115.166
X318.495Y-77.066
X318.495Y-172.316
X318.525Y-153.096
X323.135Y-145.696
X328.085Y-164.886
X329.335Y-165.906
X335.995Y-163.156
X337.545Y-115.156
X337.579Y-172.22
X337.595Y-145.956
X337.595Y-153.296
X337.615Y-76.956
X337.615Y-96.036
X337.615Y-134.176
X352.735Y-88.706
X353.915Y-89.876
X356.665Y-134.276
X356.665Y-146.336
X356.705Y-153.326
X356.735Y-76.846
X356.735Y-96.246
X356.735Y-115.196
X356.775Y-172.136
X361.425Y-86.256
X371.625Y-164.906
X372.885Y-165.806
X375.505Y-76.886
X375.575Y-115.016
X375.615Y-95.826
X375.645Y-134.206
X375.685Y-172.136
X375.715Y-144.876
X375.715Y-153.046
X379.555Y-162.966
X390.415Y-145.546
X393.775Y-124.396
X394.755Y-76.936
X394.785Y-96.046
X394.835Y-162.676
X399.585Y-133.656
X400.285Y-135.336
X400.375Y-88.746
X401.495Y-136.526
X401.505Y-89.806
X405.305Y-137.186
X409.025Y-86.286
X411.245Y-89.026
T2
X79.34Y-124.236
X79.34Y-125.511
X79.34Y-126.786
X80.615Y-124.236
X80.615Y-125.511
X80.615Y-126.786
X81.89Y-124.236
X81.89Y-125.511
X81.89Y-126.786
T4
X79.635Y-137.926
X80.905Y-137.926
X82.175Y-137.926
X83.445Y-137.926
X84.715Y-137.926
X85.985Y-137.926
T5
X75.335Y-174.725
X89.613Y-89.0
X180.085Y-138.766
X184.863Y-89.0
X237.251Y-127.1
X240.375Y-174.725
X280.113Y-89.0
X296.755Y-174.725
X337.263Y-89.0
X394.413Y-89.0
X394.413Y-146.15
T3
G00X66.218Y-70.95
M15
G01X66.218Y-71.55
M16
G05
G00X66.218Y-74.88
M15
G01X66.218Y-75.98
M16
G05
G00X74.858Y-70.95
M15
G01X74.858Y-71.55
M16
G05
G00X74.858Y-74.88
M15
G01X74.858Y-75.98
M16
G05
M30
